<svg width="1416" height="1159" xmlns="http://www.w3.org/2000/svg" xmlns:xlink="http://www.w3.org/1999/xlink" xml:space="preserve" overflow="hidden"><defs><clipPath id="clip0"><rect x="1671" y="0" width="1416" height="1159"/></clipPath></defs><g clip-path="url(#clip0)" transform="translate(-1671 0)"><rect x="1672" y="1.00003" width="1413" height="1156" fill="#FFFFFF"/><g><path d="M2378.58 459.515 2430.58 484.516M2430.58 484.516 2443.58 541.518M2443.58 541.518 2407.58 586.519M2407.58 586.519 2349.58 586.519M2349.58 586.519 2313.58 541.518M2313.58 541.518 2325.58 484.516M2325.58 484.516 2378.58 459.515M2378.58 392.513 2483.58 442.515M2483.58 442.515 2509.58 556.518M2509.58 556.518 2436.58 647.521M2436.58 647.521 2320.58 647.521M2320.58 647.521 2247.57 556.518M2247.57 556.518 2273.57 442.515M2273.57 442.515 2378.58 392.513M2378.58 325.511 2535.58 400.513M2535.58 400.513 2574.58 571.519M2574.58 571.519 2465.58 707.523M2465.58 707.523 2291.58 707.523M2291.58 707.523 2182.57 571.519M2182.57 571.519 2221.57 400.513M2221.57 400.513 2378.58 325.511M2378.58 258.509 2588.58 359.512M2588.58 359.512 2639.59 586.519M2639.59 586.519 2494.58 767.525M2494.58 767.525 2262.57 767.525M2262.57 767.525 2116.57 586.519M2116.57 586.519 2168.57 359.512M2168.57 359.512 2378.58 258.509M2378.58 191.5 2640.59 317.511M2640.59 317.511 2705.5 600.52M2705.5 600.52 2523.58 828.5M2523.58 828.5 2232.57 828.5M2232.57 828.5 2051.5 600.52M2051.5 600.52 2116.57 317.511M2116.57 317.511 2378.58 191.5" stroke="#D9D9D9" stroke-width="3.4375" stroke-linejoin="round" stroke-miterlimit="10" fill="none"/></g><g><path d="M2378.58 526.517 2378.58 191.5M2378.58 526.517 2640.59 317.511M2378.58 526.517 2705.5 600.52M2378.58 526.517 2523.58 828.5M2378.58 526.517 2232.57 828.5M2378.58 526.517 2051.5 600.52M2378.58 526.517 2116.57 317.511M2378.58 526.517 2378.58 191.5" stroke="#BFBFBF" stroke-width="1.14583" stroke-linejoin="round" stroke-miterlimit="10" fill="none"/></g><g><path d="M2116.57 317.511 2378.58 191.5 2640.59 317.511 2705.5 600.52 2523.58 828.5 2232.57 828.5 2051.5 600.52 2116.57 317.511" stroke="#156082" stroke-width="6.875" stroke-linecap="round" stroke-linejoin="round" stroke-miterlimit="10" fill="none"/></g><g><path d="M2142.5 338.511 2378.58 244.5 2588.58 359.512 2618.5 581.519 2475.58 727.524 2262.57 767.5 2182.57 571.519 2142.5 338.511" stroke="#E97132" stroke-width="6.875" stroke-linecap="round" stroke-linejoin="round" stroke-miterlimit="10" fill="none"/></g><g><text fill="#FFFFFF" font-family="Aptos Narrow,Aptos Narrow_MSFontService,sans-serif" font-weight="400" font-stretch="semi-condensed" font-size="41" transform="matrix(1 0 0 1 2315.76 540)">0</text></g><g><text fill="#FFFFFF" font-family="Aptos Narrow,Aptos Narrow_MSFontService,sans-serif" font-weight="400" font-stretch="semi-condensed" font-size="41" transform="matrix(1 0 0 1 2315.76 473)">1</text></g><g><text fill="#FFFFFF" font-family="Aptos Narrow,Aptos Narrow_MSFontService,sans-serif" font-weight="400" font-stretch="semi-condensed" font-size="41" transform="matrix(1 0 0 1 2315.76 406)">2</text></g><g><text fill="#FFFFFF" font-family="Aptos Narrow,Aptos Narrow_MSFontService,sans-serif" font-weight="400" font-stretch="semi-condensed" font-size="41" transform="matrix(1 0 0 1 2315.76 339)">3</text></g><g><text fill="#FFFFFF" font-family="Aptos Narrow,Aptos Narrow_MSFontService,sans-serif" font-weight="400" font-stretch="semi-condensed" font-size="41" transform="matrix(1 0 0 1 2315.76 272)">4</text></g><g><text fill="#FFFFFF" font-family="Aptos Narrow,Aptos Narrow_MSFontService,sans-serif" font-weight="400" font-stretch="semi-condensed" font-size="41" transform="matrix(1 0 0 1 2315.76 205)">5</text></g><g><text fill="#595959" font-family="Aptos Narrow,Aptos Narrow_MSFontService,sans-serif" font-weight="400" font-stretch="semi-condensed" font-size="41" transform="matrix(1 0 0 1 2218.36 112)">Strategic Alignment</text></g><g><text fill="#595959" font-family="Aptos Narrow,Aptos Narrow_MSFontService,sans-serif" font-weight="400" font-stretch="semi-condensed" font-size="41" transform="matrix(1 0 0 1 2264.17 162)">and Roadmap</text></g><g><text fill="#595959" font-family="Aptos Narrow,Aptos Narrow_MSFontService,sans-serif" font-weight="400" font-stretch="semi-condensed" font-size="41" transform="matrix(1 0 0 1 2654.7 295)">Backlog and</text></g><g><text fill="#595959" font-family="Aptos Narrow,Aptos Narrow_MSFontService,sans-serif" font-weight="400" font-stretch="semi-condensed" font-size="41" transform="matrix(1 0 0 1 2651.02 346)">Prioritization</text></g><g><text fill="#595959" font-family="Aptos Narrow,Aptos Narrow_MSFontService,sans-serif" font-weight="400" font-stretch="semi-condensed" font-size="41" transform="matrix(1 0 0 1 2749.36 590)">Execution and</text></g><g><text fill="#595959" font-family="Aptos Narrow,Aptos Narrow_MSFontService,sans-serif" font-weight="400" font-stretch="semi-condensed" font-size="41" transform="matrix(1 0 0 1 2718.33 641)">Delivery Practices</text></g><g><text fill="#595959" font-family="Aptos Narrow,Aptos Narrow_MSFontService,sans-serif" font-weight="400" font-stretch="semi-condensed" font-size="41" transform="matrix(1 0 0 1 2529.7 827)">Value, Quality and</text></g><g><text fill="#595959" font-family="Aptos Narrow,Aptos Narrow_MSFontService,sans-serif" font-weight="400" font-stretch="semi-condensed" font-size="41" transform="matrix(1 0 0 1 2598.71 877)">Feedback</text></g><g><text fill="#595959" font-family="Aptos Narrow,Aptos Narrow_MSFontService,sans-serif" font-weight="400" font-stretch="semi-condensed" font-size="41" transform="matrix(1 0 0 1 1962.56 802)">Team Capability</text></g><g><text fill="#595959" font-family="Aptos Narrow,Aptos Narrow_MSFontService,sans-serif" font-weight="400" font-stretch="semi-condensed" font-size="41" transform="matrix(1 0 0 1 1964.26 852)">and Continuous</text></g><g><text fill="#595959" font-family="Aptos Narrow,Aptos Narrow_MSFontService,sans-serif" font-weight="400" font-stretch="semi-condensed" font-size="41" transform="matrix(1 0 0 1 1985.01 902)">Improvement</text></g><g><text fill="#595959" font-family="Aptos Narrow,Aptos Narrow_MSFontService,sans-serif" font-weight="400" font-stretch="semi-condensed" font-size="41" transform="matrix(1 0 0 1 1841.19 565)">Engineering</text></g><g><text fill="#595959" font-family="Aptos Narrow,Aptos Narrow_MSFontService,sans-serif" font-weight="400" font-stretch="semi-condensed" font-size="41" transform="matrix(1 0 0 1 1837.29 616)">DevOps and</text></g><g><text fill="#595959" font-family="Aptos Narrow,Aptos Narrow_MSFontService,sans-serif" font-weight="400" font-stretch="semi-condensed" font-size="41" transform="matrix(1 0 0 1 1835.86 666)">Architecture</text></g><g><text fill="#595959" font-family="Aptos Narrow,Aptos Narrow_MSFontService,sans-serif" font-weight="400" font-stretch="semi-condensed" font-size="41" transform="matrix(1 0 0 1 1823.16 270)">Innovation AI and</text></g><g><text fill="#595959" font-family="Aptos Narrow,Aptos Narrow_MSFontService,sans-serif" font-weight="400" font-stretch="semi-condensed" font-size="41" transform="matrix(1 0 0 1 1911.1 321)">Future</text></g><g><text fill="#595959" font-family="Aptos Narrow,Aptos Narrow_MSFontService,sans-serif" font-weight="400" font-stretch="semi-condensed" font-size="41" transform="matrix(1 0 0 1 1851.22 371)">Opportunities</text></g><g><path d="M1890.5 1090.5 1978.5 1090.5" stroke="#156082" stroke-width="6.875" stroke-linecap="round" stroke-linejoin="round" stroke-miterlimit="10" fill="none" fill-rule="evenodd"/></g><g><text fill="#595959" font-family="Aptos Narrow,Aptos Narrow_MSFontService,sans-serif" font-weight="400" font-stretch="semi-condensed" font-size="41" transform="matrix(1 0 0 1 1988.13 1102)">Product Org Team Target</text></g><g><path d="M2467.5 1090.5 2555.5 1090.5" stroke="#E97132" stroke-width="6.875" stroke-linecap="round" stroke-linejoin="round" stroke-miterlimit="10" fill="none" fill-rule="evenodd"/></g><g><text fill="#595959" font-family="Aptos Narrow,Aptos Narrow_MSFontService,sans-serif" font-weight="400" font-stretch="semi-condensed" font-size="41" transform="matrix(1 0 0 1 2564.56 1102)">Shubhi Mairh Score</text></g><rect x="1672.5" y="1.49987" width="1413" height="1156" stroke="#D9D9D9" stroke-width="3.4375" stroke-linejoin="round" stroke-miterlimit="10" fill="none"/></g></svg>