<svg width="2306" height="1525" xmlns="http://www.w3.org/2000/svg" xmlns:xlink="http://www.w3.org/1999/xlink" xml:space="preserve" overflow="hidden"><defs><clipPath id="clip0"><rect x="283" y="38" width="2306" height="1525"/></clipPath></defs><g clip-path="url(#clip0)" transform="translate(-283 -38)"><rect x="284" y="38.9998" width="2303" height="1522" fill="#FFFFFF"/><g><path d="M1435.55 715.524 1467.55 721.524M1467.55 721.524 1494.55 736.524M1494.55 736.524 1515.55 761.525M1515.55 761.525 1525.55 791.526M1525.55 791.526 1525.55 823.527M1525.55 823.527 1515.55 852.528M1515.55 852.528 1494.55 877.529M1494.55 877.529 1467.55 893.529M1467.55 893.529 1435.55 898.53M1435.55 898.53 1404.55 893.529M1404.55 893.529 1376.55 877.529M1376.55 877.529 1356.54 852.528M1356.54 852.528 1345.54 823.527M1345.54 823.527 1345.54 791.526M1345.54 791.526 1356.54 761.525M1356.54 761.525 1376.55 736.524M1376.55 736.524 1404.55 721.524M1404.55 721.524 1435.55 715.524M1435.55 623.521 1498.55 634.521M1498.55 634.521 1553.55 666.522M1553.55 666.522 1594.55 715.524M1594.55 715.524 1616.55 775.526M1616.55 775.526 1616.55 838.528M1616.55 838.528 1594.55 898.53M1594.55 898.53 1553.55 947.531M1553.55 947.531 1498.55 979.532M1498.55 979.532 1435.55 990.533M1435.55 990.533 1372.55 979.532M1372.55 979.532 1317.54 947.531M1317.54 947.531 1276.54 898.53M1276.54 898.53 1255.54 838.528M1255.54 838.528 1255.54 775.526M1255.54 775.526 1276.54 715.524M1276.54 715.524 1317.54 666.522M1317.54 666.522 1372.55 634.521M1372.55 634.521 1435.55 623.521M1435.55 532.518 1529.55 548.518M1529.55 548.518 1612.55 596.52M1612.55 596.52 1673.56 669.522M1673.56 669.522 1706.56 759.525M1706.56 759.525 1706.56 854.528M1706.56 854.528 1673.56 944.531M1673.56 944.531 1612.55 1017.53M1612.55 1017.53 1529.55 1065.54M1529.55 1065.54 1435.55 1082.54M1435.55 1082.54 1341.54 1065.54M1341.54 1065.54 1258.54 1017.53M1258.54 1017.53 1197.54 944.531M1197.54 944.531 1164.54 854.528M1164.54 854.528 1164.54 759.525M1164.54 759.525 1197.54 669.522M1197.54 669.522 1258.54 596.52M1258.54 596.52 1341.54 548.518M1341.54 548.518 1435.55 532.518M1435.55 440.515 1561.55 462.515M1561.55 462.515 1671.55 526.517M1671.55 526.517 1753.56 623.521M1753.56 623.521 1796.56 743.525M1796.56 743.525 1796.56 870.529M1796.56 870.529 1753.56 990.533M1753.56 990.533 1671.55 1087.54M1671.55 1087.54 1561.55 1151.54M1561.55 1151.54 1435.55 1173.54M1435.55 1173.54 1310.54 1151.54M1310.54 1151.54 1200.54 1087.54M1200.54 1087.54 1118.54 990.533M1118.54 990.533 1074.54 870.529M1074.54 870.529 1074.54 743.525M1074.54 743.525 1118.54 623.521M1118.54 623.521 1200.54 526.517M1200.54 526.517 1310.54 462.515M1310.54 462.515 1435.55 440.515M1435.55 348.5 1592.55 376.513M1592.55 376.513 1730.56 456.515M1730.56 456.515 1832.56 577.519M1832.56 577.519 1887.5 727.524M1887.5 727.524 1887.5 886.529M1887.5 886.529 1832.56 1036.53M1832.56 1036.53 1730.56 1158.54M1730.56 1158.54 1592.55 1237.54M1592.55 1237.54 1435.55 1265.5M1435.55 1265.5 1278.54 1237.54M1278.54 1237.54 1141.54 1158.54M1141.54 1158.54 1038.53 1036.53M1038.53 1036.53 984.5 886.529M984.5 886.529 984.5 727.524M984.5 727.524 1038.53 577.519M1038.53 577.519 1141.54 456.515M1141.54 456.515 1278.54 376.513M1278.54 376.513 1435.55 348.5" stroke="#D9D9D9" stroke-width="3.4375" stroke-linejoin="round" stroke-miterlimit="10" fill="none"/></g><g><path d="M1435.55 807.527 1435.55 348.5M1435.55 807.527 1592.55 376.513M1435.55 807.527 1730.56 456.515M1435.55 807.527 1832.56 577.519M1435.55 807.527 1887.5 727.524M1435.55 807.527 1887.5 886.529M1435.55 807.527 1832.56 1036.53M1435.55 807.527 1730.56 1158.54M1435.55 807.527 1592.55 1237.54M1435.55 807.527 1435.55 1265.5M1435.55 807.527 1278.54 1237.54M1435.55 807.527 1141.54 1158.54M1435.55 807.527 1038.53 1036.53M1435.55 807.527 984.5 886.529M1435.55 807.527 984.5 727.524M1435.55 807.527 1038.53 577.519M1435.55 807.527 1141.54 456.515M1435.55 807.527 1278.54 376.513M1435.55 807.527 1435.55 348.5" stroke="#D9D9D9" stroke-width="3.4375" stroke-linejoin="round" stroke-miterlimit="10" fill="none"/></g><g><rect x="1373" y="782" width="21" height="49.9998" fill="#FFFFFF"/></g><g><rect x="1373" y="690" width="21" height="51.0002" fill="#FFFFFF"/></g><g><rect x="1373" y="599" width="21" height="49.9998" fill="#FFFFFF"/></g><g><rect x="1373" y="507" width="21" height="49.9998" fill="#FFFFFF"/></g><g><rect x="1373" y="415" width="21" height="51.0002" fill="#FFFFFF"/></g><g><rect x="1373" y="324" width="21" height="49.9998" fill="#FFFFFF"/></g><g><path d="M1278.54 376.513 1435.55 348.5 1592.55 376.513 1730.56 456.515 1832.56 577.519 1887.5 727.524 1887.5 886.529 1832.56 1036.53 1730.56 1158.54 1592.55 1237.54 1435.55 1265.5 1278.54 1237.54 1141.54 1158.54 1038.53 1036.53 984.5 886.529 984.5 727.524 1038.53 577.519 1141.54 456.515 1278.54 376.513" stroke="#156082" stroke-width="6.875" stroke-linecap="round" stroke-linejoin="round" stroke-miterlimit="10" fill="none"/></g><g><path d="M1341.54 548.518 1435.55 532.5 1529.55 548.518 1612.55 596.52 1673.56 669.522 1706.5 759.525 1616.55 838.528 1673.56 944.531 1612.55 1017.53 1529.55 1065.54 1435.55 1082.5 1341.54 1065.54 1317.54 947.531 1197.5 944.531 1255.54 838.528 1255.54 775.526 1197.5 669.522 1258.54 596.52 1341.54 548.518" stroke="#E97132" stroke-width="6.875" stroke-linecap="round" stroke-linejoin="round" stroke-miterlimit="10" fill="none"/></g><g><rect x="1373" y="782" width="21" height="49.9998" fill="#FFFFFF"/></g><g><text fill="#7F7F7F" font-family="Aptos Narrow,Aptos Narrow_MSFontService,sans-serif" font-weight="400" font-stretch="semi-condensed" font-size="41" transform="matrix(1 0 0 1 1373.03 821)">0</text></g><g><rect x="1373" y="690" width="21" height="51.0002" fill="#FFFFFF"/></g><g><text fill="#7F7F7F" font-family="Aptos Narrow,Aptos Narrow_MSFontService,sans-serif" font-weight="400" font-stretch="semi-condensed" font-size="41" transform="matrix(1 0 0 1 1373.03 729)">1</text></g><g><rect x="1373" y="599" width="21" height="49.9998" fill="#FFFFFF"/></g><g><text fill="#7F7F7F" font-family="Aptos Narrow,Aptos Narrow_MSFontService,sans-serif" font-weight="400" font-stretch="semi-condensed" font-size="41" transform="matrix(1 0 0 1 1373.03 638)">2</text></g><g><rect x="1373" y="507" width="21" height="49.9998" fill="#FFFFFF"/></g><g><text fill="#7F7F7F" font-family="Aptos Narrow,Aptos Narrow_MSFontService,sans-serif" font-weight="400" font-stretch="semi-condensed" font-size="41" transform="matrix(1 0 0 1 1373.03 546)">3</text></g><g><rect x="1373" y="415" width="21" height="51.0002" fill="#FFFFFF"/></g><g><text fill="#7F7F7F" font-family="Aptos Narrow,Aptos Narrow_MSFontService,sans-serif" font-weight="400" font-stretch="semi-condensed" font-size="41" transform="matrix(1 0 0 1 1373.03 454)">4</text></g><g><rect x="1373" y="324" width="21" height="49.9998" fill="#FFFFFF"/></g><g><text fill="#7F7F7F" font-family="Aptos Narrow,Aptos Narrow_MSFontService,sans-serif" font-weight="400" font-stretch="semi-condensed" font-size="41" transform="matrix(1 0 0 1 1373.03 363)">5</text></g><g><text fill="#595959" font-family="Aptos Narrow,Aptos Narrow_MSFontService,sans-serif" font-weight="400" font-stretch="semi-condensed" font-size="41" transform="matrix(1 0 0 1 1234.94 315)">Automation-First Quality</text></g><g><text fill="#595959" font-family="Aptos Narrow,Aptos Narrow_MSFontService,sans-serif" font-weight="400" font-stretch="semi-condensed" font-size="41" transform="matrix(1 0 0 1 1598.75 371)">Backlog Readiness &amp; Governance</text></g><g><text fill="#595959" font-family="Aptos Narrow,Aptos Narrow_MSFontService,sans-serif" font-weight="400" font-stretch="semi-condensed" font-size="41" transform="matrix(1 0 0 1 1742.11 454)">Burndown-Driven Predictability</text></g><g><text fill="#595959" font-family="Aptos Narrow,Aptos Narrow_MSFontService,sans-serif" font-weight="400" font-stretch="semi-condensed" font-size="41" transform="matrix(1 0 0 1 1848.52 580)">Data-Driven PI Commitment</text></g><g><text fill="#595959" font-family="Aptos Narrow,Aptos Narrow_MSFontService,sans-serif" font-weight="400" font-stretch="semi-condensed" font-size="41" transform="matrix(1 0 0 1 1905.13 711)">Definition of Ready &amp; Done</text></g><g><text fill="#595959" font-family="Aptos Narrow,Aptos Narrow_MSFontService,sans-serif" font-weight="400" font-stretch="semi-condensed" font-size="41" transform="matrix(1 0 0 1 2023.78 761)">Governance</text></g><g><text fill="#595959" font-family="Aptos Narrow,Aptos Narrow_MSFontService,sans-serif" font-weight="400" font-stretch="semi-condensed" font-size="41" transform="matrix(1 0 0 1 1905.13 901)">Delivery Predictability</text></g><g><text fill="#595959" font-family="Aptos Narrow,Aptos Narrow_MSFontService,sans-serif" font-weight="400" font-stretch="semi-condensed" font-size="41" transform="matrix(1 0 0 1 1848.52 1057)">Demo Governance &amp; Outcomes</text></g><g><text fill="#595959" font-family="Aptos Narrow,Aptos Narrow_MSFontService,sans-serif" font-weight="400" font-stretch="semi-condensed" font-size="41" transform="matrix(1 0 0 1 1742.11 1184)">Early LTIM Engagement</text></g><g><text fill="#595959" font-family="Aptos Narrow,Aptos Narrow_MSFontService,sans-serif" font-weight="400" font-stretch="semi-condensed" font-size="41" transform="matrix(1 0 0 1 1598.75 1267)">Flow Efficiency</text></g><g><text fill="#595959" font-family="Aptos Narrow,Aptos Narrow_MSFontService,sans-serif" font-weight="400" font-stretch="semi-condensed" font-size="41" transform="matrix(1 0 0 1 1224.61 1323)">GenAI Adoption Roadmap</text></g><g><text fill="#595959" font-family="Aptos Narrow,Aptos Narrow_MSFontService,sans-serif" font-weight="400" font-stretch="semi-condensed" font-size="41" transform="matrix(1 0 0 1 795.281 1267)">KPI Ownership &amp; Enablement</text></g><g><text fill="#595959" font-family="Aptos Narrow,Aptos Narrow_MSFontService,sans-serif" font-weight="400" font-stretch="semi-condensed" font-size="41" transform="matrix(1 0 0 1 747.369 1184)">PI Readiness Discipline</text></g><g><text fill="#595959" font-family="Aptos Narrow,Aptos Narrow_MSFontService,sans-serif" font-weight="400" font-stretch="semi-condensed" font-size="41" transform="matrix(1 0 0 1 596.3 1057)">Risk Management (ROAM)</text></g><g><text fill="#595959" font-family="Aptos Narrow,Aptos Narrow_MSFontService,sans-serif" font-weight="400" font-stretch="semi-condensed" font-size="41" transform="matrix(1 0 0 1 528.796 901)">Root Cause Analysis (RCA)</text></g><g><text fill="#595959" font-family="Aptos Narrow,Aptos Narrow_MSFontService,sans-serif" font-weight="400" font-stretch="semi-condensed" font-size="41" transform="matrix(1 0 0 1 464.423 736)">Self-Organization &amp; Ownership</text></g><g><text fill="#595959" font-family="Aptos Narrow,Aptos Narrow_MSFontService,sans-serif" font-weight="400" font-stretch="semi-condensed" font-size="41" transform="matrix(1 0 0 1 581.379 580)">Sprint Discipline &amp; Stability</text></g><g><text fill="#595959" font-family="Aptos Narrow,Aptos Narrow_MSFontService,sans-serif" font-weight="400" font-stretch="semi-condensed" font-size="41" transform="matrix(1 0 0 1 780.965 428)">Story Quality (INVEST</text></g><g><text fill="#595959" font-family="Aptos Narrow,Aptos Narrow_MSFontService,sans-serif" font-weight="400" font-stretch="semi-condensed" font-size="41" transform="matrix(1 0 0 1 848.604 479)">Compliance)</text></g><g><text fill="#595959" font-family="Aptos Narrow,Aptos Narrow_MSFontService,sans-serif" font-weight="400" font-stretch="semi-condensed" font-size="41" transform="matrix(1 0 0 1 820.191 371)">Technical Debt Governance</text></g><g><text fill="#595959" font-family="Aptos Narrow,Aptos Narrow_MSFontService,sans-serif" font-weight="700" font-stretch="semi-condensed" font-size="64" transform="matrix(1 0 0 1 1003.03 133)">Parameter Score: Optim &amp; Riders </text></g><g><path d="M1116.5 1494.5 1204.5 1494.5" stroke="#156082" stroke-width="6.875" stroke-linecap="round" stroke-linejoin="round" stroke-miterlimit="10" fill="none" fill-rule="evenodd"/></g><g><text fill="#595959" font-family="Aptos Narrow,Aptos Narrow_MSFontService,sans-serif" font-weight="400" font-stretch="semi-condensed" font-size="41" transform="matrix(1 0 0 1 1213.49 1506)">North Star</text></g><g><path d="M1435.5 1494.5 1523.5 1494.5" stroke="#E97132" stroke-width="6.875" stroke-linecap="round" stroke-linejoin="round" stroke-miterlimit="10" fill="none" fill-rule="evenodd"/></g><g><text fill="#595959" font-family="Aptos Narrow,Aptos Narrow_MSFontService,sans-serif" font-weight="400" font-stretch="semi-condensed" font-size="41" transform="matrix(1 0 0 1 1532.68 1506)">Current Status</text></g><rect x="284.5" y="39.5" width="2303" height="1522" stroke="#D9D9D9" stroke-width="3.4375" stroke-linejoin="round" stroke-miterlimit="10" fill="none"/></g></svg>