<svg width="1767" height="1053" xmlns="http://www.w3.org/2000/svg" xmlns:xlink="http://www.w3.org/1999/xlink" xml:space="preserve" overflow="hidden"><defs><clipPath id="clip0"><rect x="4018" y="3563" width="1767" height="1053"/></clipPath></defs><g clip-path="url(#clip0)" transform="translate(-4018 -3563)"><rect x="4019" y="3564" width="1764" height="1050" fill="#FFFFFF"/><g><path d="M4900.66 4031.63 4924.66 4036.63M4924.66 4036.63 4944.66 4048.63M4944.66 4048.63 4958.66 4067.63M4958.66 4067.63 4965.66 4090.63M4965.66 4090.63 4962.66 4114.64M4962.66 4114.64 4952.66 4135.64M4952.66 4135.64 4934.66 4151.64M4934.66 4151.64 4912.66 4159.64M4912.66 4159.64 4888.66 4159.64M4888.66 4159.64 4866.66 4151.64M4866.66 4151.64 4849.66 4135.64M4849.66 4135.64 4838.66 4114.64M4838.66 4114.64 4836.66 4090.63M4836.66 4090.63 4842.66 4067.63M4842.66 4067.63 4857.66 4048.63M4857.66 4048.63 4877.66 4036.63M4877.66 4036.63 4900.66 4031.63M4900.66 3967.63 4947.66 3975.63M4947.66 3975.63 4987.66 4000.63M4987.66 4000.63 5016.67 4038.63M5016.67 4038.63 5029.67 4084.63M5029.67 4084.63 5025.67 4131.64M5025.67 4131.64 5003.66 4174.64M5003.66 4174.64 4968.66 4206.64M4968.66 4206.64 4924.66 4223.64M4924.66 4223.64 4876.66 4223.64M4876.66 4223.64 4832.66 4206.64M4832.66 4206.64 4797.66 4174.64M4797.66 4174.64 4776.66 4131.64M4776.66 4131.64 4772.66 4084.63M4772.66 4084.63 4785.66 4038.63M4785.66 4038.63 4813.66 4000.63M4813.66 4000.63 4854.66 3975.63M4854.66 3975.63 4900.66 3967.63M4900.66 3902.63 4970.66 3915.63M4970.66 3915.63 5031.67 3953.63M5031.67 3953.63 5074.67 4009.63M5074.67 4009.63 5093.67 4078.63M5093.67 4078.63 5087.67 4149.64M5087.67 4149.64 5055.67 4213.64M5055.67 4213.64 5002.66 4261.64M5002.66 4261.64 4936.66 4286.64M4936.66 4286.64 4865.66 4286.64M4865.66 4286.64 4798.66 4261.64M4798.66 4261.64 4746.66 4213.64M4746.66 4213.64 4714.65 4149.64M4714.65 4149.64 4707.65 4078.63M4707.65 4078.63 4727.66 4009.63M4727.66 4009.63 4770.66 3953.63M4770.66 3953.63 4830.66 3915.63M4830.66 3915.63 4900.66 3902.63M4900.66 3837.63 4994.66 3855.63M4994.66 3855.63 5074.67 3905.63M5074.67 3905.63 5132.67 3981.63M5132.67 3981.63 5158.67 4072.63M5158.67 4072.63 5149.67 4167.64M5149.67 4167.64 5107.67 4252.64M5107.67 4252.64 5036.67 4316.64M5036.67 4316.64 4948.66 4350.64M4948.66 4350.64 4853.66 4350.64M4853.66 4350.64 4764.66 4316.64M4764.66 4316.64 4694.65 4252.64M4694.65 4252.64 4652.65 4167.64M4652.65 4167.64 4643.65 4072.63M4643.65 4072.63 4669.65 3981.63M4669.65 3981.63 4726.66 3905.63M4726.66 3905.63 4807.66 3855.63M4807.66 3855.63 4900.66 3837.63M4900.66 3773.5 5017.67 3795.62M5017.67 3795.62 5118.67 3857.63M5118.67 3857.63 5189.67 3952.63M5189.67 3952.63 5222.5 4066.63M5222.5 4066.63 5211.67 4184.64M5211.67 4184.64 5158.67 4291.64M5158.67 4291.64 5070.67 4371.64M5070.67 4371.64 4960.66 4414.5M4960.66 4414.5 4841.66 4414.5M4841.66 4414.5 4730.66 4371.64M4730.66 4371.64 4642.65 4291.64M4642.65 4291.64 4589.65 4184.64M4589.65 4184.64 4579.5 4066.63M4579.5 4066.63 4611.65 3952.63M4611.65 3952.63 4683.65 3857.63M4683.65 3857.63 4784.66 3795.62M4784.66 3795.62 4900.66 3773.5" stroke="#D9D9D9" stroke-width="3.4375" stroke-linejoin="round" stroke-miterlimit="10" fill="none"/></g><g><path d="M4900.66 4096.63 4900.66 3773.5M4900.66 4096.63 5017.67 3795.62M4900.66 4096.63 5118.67 3857.63M4900.66 4096.63 5189.67 3952.63M4900.66 4096.63 5222.5 4066.63M4900.66 4096.63 5211.67 4184.64M4900.66 4096.63 5158.67 4291.64M4900.66 4096.63 5070.67 4371.64M4900.66 4096.63 4960.66 4414.5M4900.66 4096.63 4841.66 4414.5M4900.66 4096.63 4730.66 4371.64M4900.66 4096.63 4642.65 4291.64M4900.66 4096.63 4589.65 4184.64M4900.66 4096.63 4579.5 4066.63M4900.66 4096.63 4611.65 3952.63M4900.66 4096.63 4683.65 3857.63M4900.66 4096.63 4783.66 3795.62M4900.66 4096.63 4900.66 3773.5" stroke="#BFBFBF" stroke-width="3.4375" stroke-linejoin="round" stroke-miterlimit="10" fill="none"/></g><g><path d="M4783.66 3795.62 4900.66 3773.5 5017.67 3795.62 5118.67 3857.63 5189.67 3952.63 5222.5 4066.63 5211.67 4184.64 5158.67 4291.64 5070.67 4371.64 4960.66 4414.5 4841.66 4414.5 4730.66 4371.64 4642.65 4291.64 4589.65 4184.64 4579.5 4066.63 4611.65 3952.63 4683.65 3857.63 4783.66 3795.62" stroke="#156082" stroke-width="6.875" stroke-linecap="round" stroke-linejoin="round" stroke-miterlimit="10" fill="none"/></g><g><path d="M4911.43 3773.7C4911.43 3779.77 4906.5 3784.7 4900.43 3784.7 4894.35 3784.7 4889.43 3779.77 4889.43 3773.7 4889.43 3767.62 4894.35 3762.7 4900.43 3762.7 4906.5 3762.7 4911.43 3767.62 4911.43 3773.7Z" stroke="#156082" stroke-width="3.4375" stroke-linejoin="round" stroke-miterlimit="10" fill="#156082"/><path d="M5028.43 3795.7C5028.43 3801.77 5023.5 3806.7 5017.43 3806.7 5011.35 3806.7 5006.43 3801.77 5006.43 3795.7 5006.43 3789.62 5011.35 3784.7 5017.43 3784.7 5023.5 3784.7 5028.43 3789.62 5028.43 3795.7Z" stroke="#156082" stroke-width="3.4375" stroke-linejoin="round" stroke-miterlimit="10" fill="#156082"/><path d="M5129.43 3857.7C5129.43 3863.77 5124.5 3868.7 5118.43 3868.7 5112.35 3868.7 5107.43 3863.77 5107.43 3857.7 5107.43 3851.62 5112.35 3846.7 5118.43 3846.7 5124.5 3846.7 5129.43 3851.62 5129.43 3857.7Z" stroke="#156082" stroke-width="3.4375" stroke-linejoin="round" stroke-miterlimit="10" fill="#156082"/><path d="M5201.43 3952.7C5201.43 3958.77 5196.5 3963.7 5190.43 3963.7 5184.35 3963.7 5179.43 3958.77 5179.43 3952.7 5179.43 3946.62 5184.35 3941.7 5190.43 3941.7 5196.5 3941.7 5201.43 3946.62 5201.43 3952.7Z" stroke="#156082" stroke-width="3.4375" stroke-linejoin="round" stroke-miterlimit="10" fill="#156082"/><path d="M5233.43 4066.7C5233.43 4072.77 5228.5 4077.7 5222.43 4077.7 5216.35 4077.7 5211.43 4072.77 5211.43 4066.7 5211.43 4060.62 5216.35 4055.7 5222.43 4055.7 5228.5 4055.7 5233.43 4060.62 5233.43 4066.7Z" stroke="#156082" stroke-width="3.4375" stroke-linejoin="round" stroke-miterlimit="10" fill="#156082"/><path d="M5222.43 4184.7C5222.43 4190.77 5217.5 4195.7 5211.43 4195.7 5205.35 4195.7 5200.43 4190.77 5200.43 4184.7 5200.43 4178.62 5205.35 4173.7 5211.43 4173.7 5217.5 4173.7 5222.43 4178.62 5222.43 4184.7Z" stroke="#156082" stroke-width="3.4375" stroke-linejoin="round" stroke-miterlimit="10" fill="#156082"/><path d="M5169.43 4291.7C5169.43 4297.77 5164.5 4302.7 5158.43 4302.7 5152.35 4302.7 5147.43 4297.77 5147.43 4291.7 5147.43 4285.62 5152.35 4280.7 5158.43 4280.7 5164.5 4280.7 5169.43 4285.62 5169.43 4291.7Z" stroke="#156082" stroke-width="3.4375" stroke-linejoin="round" stroke-miterlimit="10" fill="#156082"/><path d="M5081.43 4371.7C5081.43 4377.77 5076.5 4382.7 5070.43 4382.7 5064.35 4382.7 5059.43 4377.77 5059.43 4371.7 5059.43 4365.62 5064.35 4360.7 5070.43 4360.7 5076.5 4360.7 5081.43 4365.62 5081.43 4371.7Z" stroke="#156082" stroke-width="3.4375" stroke-linejoin="round" stroke-miterlimit="10" fill="#156082"/><path d="M4971.43 4414.7C4971.43 4420.77 4966.5 4425.7 4960.43 4425.7 4954.35 4425.7 4949.43 4420.77 4949.43 4414.7 4949.43 4408.62 4954.35 4403.7 4960.43 4403.7 4966.5 4403.7 4971.43 4408.62 4971.43 4414.7Z" stroke="#156082" stroke-width="3.4375" stroke-linejoin="round" stroke-miterlimit="10" fill="#156082"/><path d="M4852.43 4414.7C4852.43 4420.77 4847.5 4425.7 4841.43 4425.7 4835.35 4425.7 4830.43 4420.77 4830.43 4414.7 4830.43 4408.62 4835.35 4403.7 4841.43 4403.7 4847.5 4403.7 4852.43 4408.62 4852.43 4414.7Z" stroke="#156082" stroke-width="3.4375" stroke-linejoin="round" stroke-miterlimit="10" fill="#156082"/><path d="M4741.43 4371.7C4741.43 4377.77 4736.5 4382.7 4730.43 4382.7 4724.35 4382.7 4719.43 4377.77 4719.43 4371.7 4719.43 4365.62 4724.35 4360.7 4730.43 4360.7 4736.5 4360.7 4741.43 4365.62 4741.43 4371.7Z" stroke="#156082" stroke-width="3.4375" stroke-linejoin="round" stroke-miterlimit="10" fill="#156082"/><path d="M4654.43 4291.7C4654.43 4297.77 4649.5 4302.7 4643.43 4302.7 4637.35 4302.7 4632.43 4297.77 4632.43 4291.7 4632.43 4285.62 4637.35 4280.7 4643.43 4280.7 4649.5 4280.7 4654.43 4285.62 4654.43 4291.7Z" stroke="#156082" stroke-width="3.4375" stroke-linejoin="round" stroke-miterlimit="10" fill="#156082"/><path d="M4601.43 4184.7C4601.43 4190.77 4596.5 4195.7 4590.43 4195.7 4584.35 4195.7 4579.43 4190.77 4579.43 4184.7 4579.43 4178.62 4584.35 4173.7 4590.43 4173.7 4596.5 4173.7 4601.43 4178.62 4601.43 4184.7Z" stroke="#156082" stroke-width="3.4375" stroke-linejoin="round" stroke-miterlimit="10" fill="#156082"/><path d="M4590.43 4066.7C4590.43 4072.77 4585.5 4077.7 4579.43 4077.7 4573.35 4077.7 4568.43 4072.77 4568.43 4066.7 4568.43 4060.62 4573.35 4055.7 4579.43 4055.7 4585.5 4055.7 4590.43 4060.62 4590.43 4066.7Z" stroke="#156082" stroke-width="3.4375" stroke-linejoin="round" stroke-miterlimit="10" fill="#156082"/><path d="M4622.43 3952.7C4622.43 3958.77 4617.5 3963.7 4611.43 3963.7 4605.35 3963.7 4600.43 3958.77 4600.43 3952.7 4600.43 3946.62 4605.35 3941.7 4611.43 3941.7 4617.5 3941.7 4622.43 3946.62 4622.43 3952.7Z" stroke="#156082" stroke-width="3.4375" stroke-linejoin="round" stroke-miterlimit="10" fill="#156082"/><path d="M4694.43 3857.7C4694.43 3863.77 4689.5 3868.7 4683.43 3868.7 4677.35 3868.7 4672.43 3863.77 4672.43 3857.7 4672.43 3851.62 4677.35 3846.7 4683.43 3846.7 4689.5 3846.7 4694.43 3851.62 4694.43 3857.7Z" stroke="#156082" stroke-width="3.4375" stroke-linejoin="round" stroke-miterlimit="10" fill="#156082"/><path d="M4795.43 3795.7C4795.43 3801.77 4790.5 3806.7 4784.43 3806.7 4778.35 3806.7 4773.43 3801.77 4773.43 3795.7 4773.43 3789.62 4778.35 3784.7 4784.43 3784.7 4790.5 3784.7 4795.43 3789.62 4795.43 3795.7Z" stroke="#156082" stroke-width="3.4375" stroke-linejoin="round" stroke-miterlimit="10" fill="#156082"/></g><g><path d="M4812.66 3867.63 4900.66 3854.63 4997.66 3847.5 5090.67 3888.63 5110.67 3991.63 5171.5 4071.63 5152.67 4167.64 5116.67 4259.64 5055.67 4347.64 4954.66 4385.5 4852.66 4356.64 4763.66 4318.64 4677.65 4264.64 4631.65 4173.64 4616.5 4070.63 4660.65 3976.63 4722.66 3901.63 4812.66 3867.63" stroke="#E97132" stroke-width="6.875" stroke-linecap="round" stroke-linejoin="round" stroke-miterlimit="10" fill="none"/></g><g><path d="M4911.43 3854.7C4911.43 3860.77 4906.5 3865.7 4900.43 3865.7 4894.35 3865.7 4889.43 3860.77 4889.43 3854.7 4889.43 3848.62 4894.35 3843.7 4900.43 3843.7 4906.5 3843.7 4911.43 3848.62 4911.43 3854.7Z" stroke="#E97132" stroke-width="3.4375" stroke-linejoin="round" stroke-miterlimit="10" fill="#E97132"/><path d="M5008.43 3847.7C5008.43 3853.77 5003.5 3858.7 4997.43 3858.7 4991.35 3858.7 4986.43 3853.77 4986.43 3847.7 4986.43 3841.62 4991.35 3836.7 4997.43 3836.7 5003.5 3836.7 5008.43 3841.62 5008.43 3847.7Z" stroke="#E97132" stroke-width="3.4375" stroke-linejoin="round" stroke-miterlimit="10" fill="#E97132"/><path d="M5101.43 3888.7C5101.43 3894.77 5096.5 3899.7 5090.43 3899.7 5084.35 3899.7 5079.43 3894.77 5079.43 3888.7 5079.43 3882.62 5084.35 3877.7 5090.43 3877.7 5096.5 3877.7 5101.43 3882.62 5101.43 3888.7Z" stroke="#E97132" stroke-width="3.4375" stroke-linejoin="round" stroke-miterlimit="10" fill="#E97132"/><path d="M5121.43 3992.7C5121.43 3998.77 5116.5 4003.7 5110.43 4003.7 5104.35 4003.7 5099.43 3998.77 5099.43 3992.7 5099.43 3986.62 5104.35 3981.7 5110.43 3981.7 5116.5 3981.7 5121.43 3986.62 5121.43 3992.7Z" stroke="#E97132" stroke-width="3.4375" stroke-linejoin="round" stroke-miterlimit="10" fill="#E97132"/><path d="M5182.43 4071.7C5182.43 4077.77 5177.5 4082.7 5171.43 4082.7 5165.35 4082.7 5160.43 4077.77 5160.43 4071.7 5160.43 4065.62 5165.35 4060.7 5171.43 4060.7 5177.5 4060.7 5182.43 4065.62 5182.43 4071.7Z" stroke="#E97132" stroke-width="3.4375" stroke-linejoin="round" stroke-miterlimit="10" fill="#E97132"/><path d="M5163.43 4168.7C5163.43 4174.77 5158.5 4179.7 5152.43 4179.7 5146.35 4179.7 5141.43 4174.77 5141.43 4168.7 5141.43 4162.62 5146.35 4157.7 5152.43 4157.7 5158.5 4157.7 5163.43 4162.62 5163.43 4168.7Z" stroke="#E97132" stroke-width="3.4375" stroke-linejoin="round" stroke-miterlimit="10" fill="#E97132"/><path d="M5127.43 4259.7C5127.43 4265.77 5122.5 4270.7 5116.43 4270.7 5110.35 4270.7 5105.43 4265.77 5105.43 4259.7 5105.43 4253.62 5110.35 4248.7 5116.43 4248.7 5122.5 4248.7 5127.43 4253.62 5127.43 4259.7Z" stroke="#E97132" stroke-width="3.4375" stroke-linejoin="round" stroke-miterlimit="10" fill="#E97132"/><path d="M5067.43 4347.7C5067.43 4353.77 5062.5 4358.7 5056.43 4358.7 5050.35 4358.7 5045.43 4353.77 5045.43 4347.7 5045.43 4341.62 5050.35 4336.7 5056.43 4336.7 5062.5 4336.7 5067.43 4341.62 5067.43 4347.7Z" stroke="#E97132" stroke-width="3.4375" stroke-linejoin="round" stroke-miterlimit="10" fill="#E97132"/><path d="M4965.43 4385.7C4965.43 4391.77 4960.5 4396.7 4954.43 4396.7 4948.35 4396.7 4943.43 4391.77 4943.43 4385.7 4943.43 4379.62 4948.35 4374.7 4954.43 4374.7 4960.5 4374.7 4965.43 4379.62 4965.43 4385.7Z" stroke="#E97132" stroke-width="3.4375" stroke-linejoin="round" stroke-miterlimit="10" fill="#E97132"/><path d="M4863.43 4356.7C4863.43 4362.77 4858.5 4367.7 4852.43 4367.7 4846.35 4367.7 4841.43 4362.77 4841.43 4356.7 4841.43 4350.62 4846.35 4345.7 4852.43 4345.7 4858.5 4345.7 4863.43 4350.62 4863.43 4356.7Z" stroke="#E97132" stroke-width="3.4375" stroke-linejoin="round" stroke-miterlimit="10" fill="#E97132"/><path d="M4774.43 4318.7C4774.43 4324.77 4769.5 4329.7 4763.43 4329.7 4757.35 4329.7 4752.43 4324.77 4752.43 4318.7 4752.43 4312.62 4757.35 4307.7 4763.43 4307.7 4769.5 4307.7 4774.43 4312.62 4774.43 4318.7Z" stroke="#E97132" stroke-width="3.4375" stroke-linejoin="round" stroke-miterlimit="10" fill="#E97132"/><path d="M4689.43 4264.7C4689.43 4270.77 4684.5 4275.7 4678.43 4275.7 4672.35 4275.7 4667.43 4270.77 4667.43 4264.7 4667.43 4258.62 4672.35 4253.7 4678.43 4253.7 4684.5 4253.7 4689.43 4258.62 4689.43 4264.7Z" stroke="#E97132" stroke-width="3.4375" stroke-linejoin="round" stroke-miterlimit="10" fill="#E97132"/><path d="M4642.43 4173.7C4642.43 4179.77 4637.5 4184.7 4631.43 4184.7 4625.35 4184.7 4620.43 4179.77 4620.43 4173.7 4620.43 4167.62 4625.35 4162.7 4631.43 4162.7 4637.5 4162.7 4642.43 4167.62 4642.43 4173.7Z" stroke="#E97132" stroke-width="3.4375" stroke-linejoin="round" stroke-miterlimit="10" fill="#E97132"/><path d="M4627.43 4070.7C4627.43 4076.77 4622.5 4081.7 4616.43 4081.7 4610.35 4081.7 4605.43 4076.77 4605.43 4070.7 4605.43 4064.62 4610.35 4059.7 4616.43 4059.7 4622.5 4059.7 4627.43 4064.62 4627.43 4070.7Z" stroke="#E97132" stroke-width="3.4375" stroke-linejoin="round" stroke-miterlimit="10" fill="#E97132"/><path d="M4671.43 3976.7C4671.43 3982.77 4666.5 3987.7 4660.43 3987.7 4654.35 3987.7 4649.43 3982.77 4649.43 3976.7 4649.43 3970.62 4654.35 3965.7 4660.43 3965.7 4666.5 3965.7 4671.43 3970.62 4671.43 3976.7Z" stroke="#E97132" stroke-width="3.4375" stroke-linejoin="round" stroke-miterlimit="10" fill="#E97132"/><path d="M4734.43 3901.7C4734.43 3907.77 4729.5 3912.7 4723.43 3912.7 4717.35 3912.7 4712.43 3907.77 4712.43 3901.7 4712.43 3895.62 4717.35 3890.7 4723.43 3890.7 4729.5 3890.7 4734.43 3895.62 4734.43 3901.7Z" stroke="#E97132" stroke-width="3.4375" stroke-linejoin="round" stroke-miterlimit="10" fill="#E97132"/><path d="M4823.43 3868.7C4823.43 3874.77 4818.5 3879.7 4812.43 3879.7 4806.35 3879.7 4801.43 3874.77 4801.43 3868.7 4801.43 3862.62 4806.35 3857.7 4812.43 3857.7 4818.5 3857.7 4823.43 3862.62 4823.43 3868.7Z" stroke="#E97132" stroke-width="3.4375" stroke-linejoin="round" stroke-miterlimit="10" fill="#E97132"/></g><g><text fill="#FFFFFF" font-family="Aptos Narrow,Aptos Narrow_MSFontService,sans-serif" font-weight="400" font-stretch="semi-condensed" font-size="41" transform="matrix(1 0 0 1 4838.19 4110)">0</text></g><g><text fill="#FFFFFF" font-family="Aptos Narrow,Aptos Narrow_MSFontService,sans-serif" font-weight="400" font-stretch="semi-condensed" font-size="41" transform="matrix(1 0 0 1 4838.19 4046)">1</text></g><g><text fill="#FFFFFF" font-family="Aptos Narrow,Aptos Narrow_MSFontService,sans-serif" font-weight="400" font-stretch="semi-condensed" font-size="41" transform="matrix(1 0 0 1 4838.19 3981)">2</text></g><g><text fill="#FFFFFF" font-family="Aptos Narrow,Aptos Narrow_MSFontService,sans-serif" font-weight="400" font-stretch="semi-condensed" font-size="41" transform="matrix(1 0 0 1 4838.19 3916)">3</text></g><g><text fill="#FFFFFF" font-family="Aptos Narrow,Aptos Narrow_MSFontService,sans-serif" font-weight="400" font-stretch="semi-condensed" font-size="41" transform="matrix(1 0 0 1 4838.19 3852)">4</text></g><g><text fill="#FFFFFF" font-family="Aptos Narrow,Aptos Narrow_MSFontService,sans-serif" font-weight="400" font-stretch="semi-condensed" font-size="41" transform="matrix(1 0 0 1 4838.19 3787)">5</text></g><g><text fill="#595959" font-family="Aptos Narrow,Aptos Narrow_MSFontService,sans-serif" font-weight="400" font-stretch="semi-condensed" font-size="41" transform="matrix(1 0 0 1 4708.79 3745)">Foundational Concepts</text></g><g><text fill="#595959" font-family="Aptos Narrow,Aptos Narrow_MSFontService,sans-serif" font-weight="400" font-stretch="semi-condensed" font-size="41" transform="matrix(1 0 0 1 5022.31 3795)">Preparation and…</text></g><g><text fill="#595959" font-family="Aptos Narrow,Aptos Narrow_MSFontService,sans-serif" font-weight="400" font-stretch="semi-condensed" font-size="41" transform="matrix(1 0 0 1 5127.28 3860)">Backlog Management…</text></g><g><text fill="#595959" font-family="Aptos Narrow,Aptos Narrow_MSFontService,sans-serif" font-weight="400" font-stretch="semi-condensed" font-size="41" transform="matrix(1 0 0 1 5201.72 3958)">Estimation Methodology</text></g><g><text fill="#595959" font-family="Aptos Narrow,Aptos Narrow_MSFontService,sans-serif" font-weight="400" font-stretch="semi-condensed" font-size="41" transform="matrix(1 0 0 1 5235.52 4077)">Sprint Planning</text></g><g><text fill="#595959" font-family="Aptos Narrow,Aptos Narrow_MSFontService,sans-serif" font-weight="400" font-stretch="semi-condensed" font-size="41" transform="matrix(1 0 0 1 5224.12 4200)">Daily Scrum</text></g><g><text fill="#595959" font-family="Aptos Narrow,Aptos Narrow_MSFontService,sans-serif" font-weight="400" font-stretch="semi-condensed" font-size="41" transform="matrix(1 0 0 1 5169.07 4311)">Execution</text></g><g><text fill="#595959" font-family="Aptos Narrow,Aptos Narrow_MSFontService,sans-serif" font-weight="400" font-stretch="semi-condensed" font-size="41" transform="matrix(1 0 0 1 5077.78 4394)">Sprint Review</text></g><g><text fill="#595959" font-family="Aptos Narrow,Aptos Narrow_MSFontService,sans-serif" font-weight="400" font-stretch="semi-condensed" font-size="41" transform="matrix(1 0 0 1 4962.65 4438)">Sprint Retrospection</text></g><g><text fill="#595959" font-family="Aptos Narrow,Aptos Narrow_MSFontService,sans-serif" font-weight="400" font-stretch="semi-condensed" font-size="41" transform="matrix(1 0 0 1 4464.21 4438)">Metrics and Monitoring</text></g><g><text fill="#595959" font-family="Aptos Narrow,Aptos Narrow_MSFontService,sans-serif" font-weight="400" font-stretch="semi-condensed" font-size="41" transform="matrix(1 0 0 1 4445.13 4394)">Quality Practices</text></g><g><text fill="#595959" font-family="Aptos Narrow,Aptos Narrow_MSFontService,sans-serif" font-weight="400" font-stretch="semi-condensed" font-size="41" transform="matrix(1 0 0 1 4241.73 4311)">Release and PI Planning</text></g><g><text fill="#595959" font-family="Aptos Narrow,Aptos Narrow_MSFontService,sans-serif" font-weight="400" font-stretch="semi-condensed" font-size="41" transform="matrix(1 0 0 1 4177.99 4200)">Engineering and DevOps</text></g><g><text fill="#595959" font-family="Aptos Narrow,Aptos Narrow_MSFontService,sans-serif" font-weight="400" font-stretch="semi-condensed" font-size="41" transform="matrix(1 0 0 1 4304.49 4077)">Team Dynamics</text></g><g><text fill="#595959" font-family="Aptos Narrow,Aptos Narrow_MSFontService,sans-serif" font-weight="400" font-stretch="semi-condensed" font-size="41" transform="matrix(1 0 0 1 4427.04 3958)">Innovation</text></g><g><text fill="#595959" font-family="Aptos Narrow,Aptos Narrow_MSFontService,sans-serif" font-weight="400" font-stretch="semi-condensed" font-size="41" transform="matrix(1 0 0 1 4316.13 3860)"> Leadership and Team…</text></g><g><text fill="#595959" font-family="Aptos Narrow,Aptos Narrow_MSFontService,sans-serif" font-weight="400" font-stretch="semi-condensed" font-size="41" transform="matrix(1 0 0 1 4515.91 3795)">Gen AI Adoption</text></g><g><text fill="#595959" font-family="Aptos Narrow,Aptos Narrow_MSFontService,sans-serif" font-weight="700" font-stretch="semi-condensed" font-size="64" transform="matrix(1 0 0 1 4818.63 3659)">Optim</text></g><g><path d="M4693.5 4547.5 4781.5 4547.5" stroke="#156082" stroke-width="6.875" stroke-linecap="round" stroke-linejoin="round" stroke-miterlimit="10" fill="none" fill-rule="evenodd"/></g><g><path d="M4748 4547C4748 4553.07 4743.08 4558 4737 4558 4730.92 4558 4726 4553.07 4726 4547 4726 4540.92 4730.92 4536 4737 4536 4743.08 4536 4748 4540.92 4748 4547Z" stroke="#156082" stroke-width="3.4375" stroke-linejoin="round" stroke-miterlimit="10" fill="#156082"/></g><g><text fill="#595959" font-family="Aptos Narrow,Aptos Narrow_MSFontService,sans-serif" font-weight="400" font-stretch="semi-condensed" font-size="41" transform="matrix(1 0 0 1 4790.53 4559)">Target</text></g><g><path d="M4932.5 4547.5 5020.5 4547.5" stroke="#E97132" stroke-width="6.875" stroke-linecap="round" stroke-linejoin="round" stroke-miterlimit="10" fill="none" fill-rule="evenodd"/></g><g><path d="M4987 4547C4987 4553.07 4982.08 4558 4976 4558 4969.92 4558 4965 4553.07 4965 4547 4965 4540.92 4969.92 4536 4976 4536 4982.08 4536 4987 4540.92 4987 4547Z" stroke="#E97132" stroke-width="3.4375" stroke-linejoin="round" stroke-miterlimit="10" fill="#E97132"/></g><g><text fill="#595959" font-family="Aptos Narrow,Aptos Narrow_MSFontService,sans-serif" font-weight="400" font-stretch="semi-condensed" font-size="41" transform="matrix(1 0 0 1 5029.9 4559)">Score</text></g><rect x="4019.5" y="3564.5" width="1764" height="1050" stroke="#D9D9D9" stroke-width="3.4375" stroke-linejoin="round" stroke-miterlimit="10" fill="none"/></g></svg>