<svg width="1767" height="1053" xmlns="http://www.w3.org/2000/svg" xmlns:xlink="http://www.w3.org/1999/xlink" xml:space="preserve" overflow="hidden"><defs><clipPath id="clip0"><rect x="-1" y="4189" width="1767" height="1053"/></clipPath></defs><g clip-path="url(#clip0)" transform="translate(1 -4189)"><rect x="0" y="4190" width="1764" height="1050" fill="#FFFFFF"/><g><path d="M881.529 4658.65 905.53 4662.65M905.53 4662.65 925.531 4674.65M925.531 4674.65 939.531 4693.65M939.531 4693.65 946.531 4716.65M946.531 4716.65 944.531 4740.66M944.531 4740.66 933.531 4761.66M933.531 4761.66 915.53 4777.66M915.53 4777.66 893.53 4786.66M893.53 4786.66 870.529 4786.66M870.529 4786.66 847.528 4777.66M847.528 4777.66 830.527 4761.66M830.527 4761.66 819.527 4740.66M819.527 4740.66 817.527 4716.65M817.527 4716.65 824.527 4693.65M824.527 4693.65 838.528 4674.65M838.528 4674.65 858.528 4662.65M858.528 4662.65 881.529 4658.65M881.529 4593.65 928.531 4602.65M928.531 4602.65 969.532 4627.65M969.532 4627.65 997.533 4665.65M997.533 4665.65 1010.53 4710.65M1010.53 4710.65 1006.53 4758.66M1006.53 4758.66 985.533 4800.66M985.533 4800.66 949.531 4832.66M949.531 4832.66 905.53 4849.66M905.53 4849.66 858.528 4849.66M858.528 4849.66 813.527 4832.66M813.527 4832.66 778.526 4800.66M778.526 4800.66 757.525 4758.66M757.525 4758.66 753.525 4710.65M753.525 4710.65 766.525 4665.65M766.525 4665.65 794.526 4627.65M794.526 4627.65 835.528 4602.65M835.528 4602.65 881.529 4593.65M881.529 4528.65 951.531 4541.65M951.531 4541.65 1012.53 4579.65M1012.53 4579.65 1055.53 4636.65M1055.53 4636.65 1074.54 4704.65M1074.54 4704.65 1068.54 4775.66M1068.54 4775.66 1036.53 4839.66M1036.53 4839.66 983.532 4887.66M983.532 4887.66 917.53 4913.66M917.53 4913.66 846.528 4913.66M846.528 4913.66 779.526 4887.66M779.526 4887.66 727.524 4839.66M727.524 4839.66 695.523 4775.66M695.523 4775.66 688.523 4704.65M688.523 4704.65 708.523 4636.65M708.523 4636.65 751.525 4579.65M751.525 4579.65 811.527 4541.65M811.527 4541.65 881.529 4528.65M881.529 4464.65 975.532 4481.65M975.532 4481.65 1056.53 4531.65M1056.53 4531.65 1113.54 4607.65M1113.54 4607.65 1139.54 4698.65M1139.54 4698.65 1130.54 4793.66M1130.54 4793.66 1088.54 4878.66M1088.54 4878.66 1018.53 4942.66M1018.53 4942.66 929.531 4976.66M929.531 4976.66 834.528 4976.66M834.528 4976.66 745.525 4942.66M745.525 4942.66 675.522 4878.66M675.522 4878.66 633.521 4793.66M633.521 4793.66 624.521 4698.65M624.521 4698.65 650.522 4607.65M650.522 4607.65 707.523 4531.65M707.523 4531.65 788.526 4481.65M788.526 4481.65 881.529 4464.65M881.529 4399.5 998.533 4421.65M998.533 4421.65 1099.54 4483.65M1099.54 4483.65 1171.54 4578.65M1171.54 4578.65 1203.5 4692.65M1203.5 4692.65 1192.54 4811.66M1192.54 4811.66 1139.54 4917.66M1139.54 4917.66 1052.53 4997.66M1052.53 4997.66 941.531 5040.5M941.531 5040.5 822.527 5040.5M822.527 5040.5 711.524 4997.66M711.524 4997.66 624.521 4917.66M624.521 4917.66 571.519 4811.66M571.519 4811.66 560.5 4692.65M560.5 4692.65 592.52 4578.65M592.52 4578.65 664.522 4483.65M664.522 4483.65 765.525 4421.65M765.525 4421.65 881.529 4399.5" stroke="#D9D9D9" stroke-width="3.4375" stroke-linejoin="round" stroke-miterlimit="10" fill="none"/></g><g><path d="M881.529 4722.65 881.529 4399.5M881.529 4722.65 998.533 4421.65M881.529 4722.65 1099.54 4483.65M881.529 4722.65 1171.54 4578.65M881.529 4722.65 1203.5 4692.65M881.529 4722.65 1192.54 4811.66M881.529 4722.65 1139.54 4917.66M881.529 4722.65 1052.53 4997.66M881.529 4722.65 941.531 5040.5M881.529 4722.65 822.527 5040.5M881.529 4722.65 711.524 4997.66M881.529 4722.65 624.521 4917.66M881.529 4722.65 571.519 4811.66M881.529 4722.65 560.5 4692.65M881.529 4722.65 592.52 4578.65M881.529 4722.65 664.522 4483.65M881.529 4722.65 765.525 4421.65M881.529 4722.65 881.529 4399.5" stroke="#BFBFBF" stroke-width="3.4375" stroke-linejoin="round" stroke-miterlimit="10" fill="none"/></g><g><path d="M765.525 4421.65 881.529 4399.5 998.533 4421.65 1099.54 4483.65 1171.54 4578.65 1203.5 4692.65 1192.54 4811.66 1139.54 4917.66 1052.53 4997.66 941.531 5040.5 822.527 5040.5 711.524 4997.66 624.521 4917.66 571.519 4811.66 560.5 4692.65 592.52 4578.65 664.522 4483.65 765.525 4421.65" stroke="#156082" stroke-width="6.875" stroke-linecap="round" stroke-linejoin="round" stroke-miterlimit="10" fill="none"/></g><g><path d="M892.499 4399.98C892.499 4406.05 887.574 4410.98 881.5 4410.98 875.425 4410.98 870.5 4406.05 870.5 4399.98 870.5 4393.9 875.425 4388.98 881.5 4388.98 887.574 4388.98 892.499 4393.9 892.499 4399.98Z" stroke="#156082" stroke-width="3.4375" stroke-linejoin="round" stroke-miterlimit="10" fill="#156082"/><path d="M1009.5 4421.98C1009.5 4428.05 1004.57 4432.98 998.5 4432.98 992.425 4432.98 987.5 4428.05 987.5 4421.98 987.5 4415.9 992.425 4410.98 998.5 4410.98 1004.57 4410.98 1009.5 4415.9 1009.5 4421.98Z" stroke="#156082" stroke-width="3.4375" stroke-linejoin="round" stroke-miterlimit="10" fill="#156082"/><path d="M1110.5 4483.98C1110.5 4490.05 1105.57 4494.98 1099.5 4494.98 1093.42 4494.98 1088.5 4490.05 1088.5 4483.98 1088.5 4477.9 1093.42 4472.98 1099.5 4472.98 1105.57 4472.98 1110.5 4477.9 1110.5 4483.98Z" stroke="#156082" stroke-width="3.4375" stroke-linejoin="round" stroke-miterlimit="10" fill="#156082"/><path d="M1182.5 4578.98C1182.5 4585.05 1177.57 4589.98 1171.5 4589.98 1165.42 4589.98 1160.5 4585.05 1160.5 4578.98 1160.5 4572.9 1165.42 4567.98 1171.5 4567.98 1177.57 4567.98 1182.5 4572.9 1182.5 4578.98Z" stroke="#156082" stroke-width="3.4375" stroke-linejoin="round" stroke-miterlimit="10" fill="#156082"/><path d="M1214.5 4693.98C1214.5 4700.05 1209.57 4704.98 1203.5 4704.98 1197.42 4704.98 1192.5 4700.05 1192.5 4693.98 1192.5 4687.9 1197.42 4682.98 1203.5 4682.98 1209.57 4682.98 1214.5 4687.9 1214.5 4693.98Z" stroke="#156082" stroke-width="3.4375" stroke-linejoin="round" stroke-miterlimit="10" fill="#156082"/><path d="M1203.5 4811.98C1203.5 4818.05 1198.57 4822.98 1192.5 4822.98 1186.42 4822.98 1181.5 4818.05 1181.5 4811.98 1181.5 4805.9 1186.42 4800.98 1192.5 4800.98 1198.57 4800.98 1203.5 4805.9 1203.5 4811.98Z" stroke="#156082" stroke-width="3.4375" stroke-linejoin="round" stroke-miterlimit="10" fill="#156082"/><path d="M1150.5 4917.98C1150.5 4924.05 1145.57 4928.98 1139.5 4928.98 1133.42 4928.98 1128.5 4924.05 1128.5 4917.98 1128.5 4911.9 1133.42 4906.98 1139.5 4906.98 1145.57 4906.98 1150.5 4911.9 1150.5 4917.98Z" stroke="#156082" stroke-width="3.4375" stroke-linejoin="round" stroke-miterlimit="10" fill="#156082"/><path d="M1063.5 4997.98C1063.5 5004.05 1058.57 5008.98 1052.5 5008.98 1046.42 5008.98 1041.5 5004.05 1041.5 4997.98 1041.5 4991.9 1046.42 4986.98 1052.5 4986.98 1058.57 4986.98 1063.5 4991.9 1063.5 4997.98Z" stroke="#156082" stroke-width="3.4375" stroke-linejoin="round" stroke-miterlimit="10" fill="#156082"/><path d="M952.499 5040.98C952.499 5047.05 947.575 5051.98 941.5 5051.98 935.425 5051.98 930.5 5047.05 930.5 5040.98 930.5 5034.9 935.425 5029.98 941.5 5029.98 947.575 5029.98 952.499 5034.9 952.499 5040.98Z" stroke="#156082" stroke-width="3.4375" stroke-linejoin="round" stroke-miterlimit="10" fill="#156082"/><path d="M833.499 5040.98C833.499 5047.05 828.575 5051.98 822.5 5051.98 816.425 5051.98 811.5 5047.05 811.5 5040.98 811.5 5034.9 816.425 5029.98 822.5 5029.98 828.575 5029.98 833.499 5034.9 833.499 5040.98Z" stroke="#156082" stroke-width="3.4375" stroke-linejoin="round" stroke-miterlimit="10" fill="#156082"/><path d="M722.499 4997.98C722.499 5004.05 717.575 5008.98 711.5 5008.98 705.425 5008.98 700.5 5004.05 700.5 4997.98 700.5 4991.9 705.425 4986.98 711.5 4986.98 717.575 4986.98 722.499 4991.9 722.499 4997.98Z" stroke="#156082" stroke-width="3.4375" stroke-linejoin="round" stroke-miterlimit="10" fill="#156082"/><path d="M635.499 4917.98C635.499 4924.05 630.575 4928.98 624.5 4928.98 618.425 4928.98 613.5 4924.05 613.5 4917.98 613.5 4911.9 618.425 4906.98 624.5 4906.98 630.575 4906.98 635.499 4911.9 635.499 4917.98Z" stroke="#156082" stroke-width="3.4375" stroke-linejoin="round" stroke-miterlimit="10" fill="#156082"/><path d="M582.499 4811.98C582.499 4818.05 577.575 4822.98 571.5 4822.98 565.425 4822.98 560.5 4818.05 560.5 4811.98 560.5 4805.9 565.425 4800.98 571.5 4800.98 577.575 4800.98 582.499 4805.9 582.499 4811.98Z" stroke="#156082" stroke-width="3.4375" stroke-linejoin="round" stroke-miterlimit="10" fill="#156082"/><path d="M571.499 4693.98C571.499 4700.05 566.575 4704.98 560.5 4704.98 554.425 4704.98 549.5 4700.05 549.5 4693.98 549.5 4687.9 554.425 4682.98 560.5 4682.98 566.575 4682.98 571.499 4687.9 571.499 4693.98Z" stroke="#156082" stroke-width="3.4375" stroke-linejoin="round" stroke-miterlimit="10" fill="#156082"/><path d="M603.499 4578.98C603.499 4585.05 598.575 4589.98 592.5 4589.98 586.425 4589.98 581.5 4585.05 581.5 4578.98 581.5 4572.9 586.425 4567.98 592.5 4567.98 598.575 4567.98 603.499 4572.9 603.499 4578.98Z" stroke="#156082" stroke-width="3.4375" stroke-linejoin="round" stroke-miterlimit="10" fill="#156082"/><path d="M675.499 4483.98C675.499 4490.05 670.575 4494.98 664.5 4494.98 658.425 4494.98 653.5 4490.05 653.5 4483.98 653.5 4477.9 658.425 4472.98 664.5 4472.98 670.575 4472.98 675.499 4477.9 675.499 4483.98Z" stroke="#156082" stroke-width="3.4375" stroke-linejoin="round" stroke-miterlimit="10" fill="#156082"/><path d="M776.499 4421.98C776.499 4428.05 771.575 4432.98 765.5 4432.98 759.425 4432.98 754.5 4428.05 754.5 4421.98 754.5 4415.9 759.425 4410.98 765.5 4410.98 771.575 4410.98 776.499 4415.9 776.499 4421.98Z" stroke="#156082" stroke-width="3.4375" stroke-linejoin="round" stroke-miterlimit="10" fill="#156082"/></g><g><path d="M790.526 4487.65 881.529 4474.5 974.532 4482.65 1063.54 4523.65 1105.54 4611.65 1158.5 4697.65 1140.54 4796.66 1090.54 4880.66 1033.53 4967.66 929.531 4979.5 833.528 4979.5 742.525 4947.66 672.522 4880.66 615.52 4798.66 599.5 4696.65 636.521 4600.65 700.523 4523.65 790.526 4487.65" stroke="#E97132" stroke-width="6.875" stroke-linecap="round" stroke-linejoin="round" stroke-miterlimit="10" fill="none"/></g><g><path d="M892.499 4474.98C892.499 4481.05 887.574 4485.98 881.5 4485.98 875.425 4485.98 870.5 4481.05 870.5 4474.98 870.5 4468.9 875.425 4463.98 881.5 4463.98 887.574 4463.98 892.499 4468.9 892.499 4474.98Z" stroke="#E97132" stroke-width="3.4375" stroke-linejoin="round" stroke-miterlimit="10" fill="#E97132"/><path d="M985.499 4483.98C985.499 4490.05 980.575 4494.98 974.5 4494.98 968.425 4494.98 963.5 4490.05 963.5 4483.98 963.5 4477.9 968.425 4472.98 974.5 4472.98 980.575 4472.98 985.499 4477.9 985.499 4483.98Z" stroke="#E97132" stroke-width="3.4375" stroke-linejoin="round" stroke-miterlimit="10" fill="#E97132"/><path d="M1074.5 4523.98C1074.5 4530.05 1069.57 4534.98 1063.5 4534.98 1057.42 4534.98 1052.5 4530.05 1052.5 4523.98 1052.5 4517.9 1057.42 4512.98 1063.5 4512.98 1069.57 4512.98 1074.5 4517.9 1074.5 4523.98Z" stroke="#E97132" stroke-width="3.4375" stroke-linejoin="round" stroke-miterlimit="10" fill="#E97132"/><path d="M1116.5 4611.98C1116.5 4618.05 1111.57 4622.98 1105.5 4622.98 1099.42 4622.98 1094.5 4618.05 1094.5 4611.98 1094.5 4605.9 1099.42 4600.98 1105.5 4600.98 1111.57 4600.98 1116.5 4605.9 1116.5 4611.98Z" stroke="#E97132" stroke-width="3.4375" stroke-linejoin="round" stroke-miterlimit="10" fill="#E97132"/><path d="M1169.5 4697.98C1169.5 4704.05 1164.57 4708.98 1158.5 4708.98 1152.42 4708.98 1147.5 4704.05 1147.5 4697.98 1147.5 4691.9 1152.42 4686.98 1158.5 4686.98 1164.57 4686.98 1169.5 4691.9 1169.5 4697.98Z" stroke="#E97132" stroke-width="3.4375" stroke-linejoin="round" stroke-miterlimit="10" fill="#E97132"/><path d="M1151.5 4796.98C1151.5 4803.05 1146.57 4807.98 1140.5 4807.98 1134.42 4807.98 1129.5 4803.05 1129.5 4796.98 1129.5 4790.9 1134.42 4785.98 1140.5 4785.98 1146.57 4785.98 1151.5 4790.9 1151.5 4796.98Z" stroke="#E97132" stroke-width="3.4375" stroke-linejoin="round" stroke-miterlimit="10" fill="#E97132"/><path d="M1101.5 4880.98C1101.5 4887.05 1096.57 4891.98 1090.5 4891.98 1084.42 4891.98 1079.5 4887.05 1079.5 4880.98 1079.5 4874.9 1084.42 4869.98 1090.5 4869.98 1096.57 4869.98 1101.5 4874.9 1101.5 4880.98Z" stroke="#E97132" stroke-width="3.4375" stroke-linejoin="round" stroke-miterlimit="10" fill="#E97132"/><path d="M1044.5 4967.98C1044.5 4974.05 1039.57 4978.98 1033.5 4978.98 1027.42 4978.98 1022.5 4974.05 1022.5 4967.98 1022.5 4961.9 1027.42 4956.98 1033.5 4956.98 1039.57 4956.98 1044.5 4961.9 1044.5 4967.98Z" stroke="#E97132" stroke-width="3.4375" stroke-linejoin="round" stroke-miterlimit="10" fill="#E97132"/><path d="M940.499 4979.98C940.499 4986.05 935.575 4990.98 929.5 4990.98 923.425 4990.98 918.5 4986.05 918.5 4979.98 918.5 4973.9 923.425 4968.98 929.5 4968.98 935.575 4968.98 940.499 4973.9 940.499 4979.98Z" stroke="#E97132" stroke-width="3.4375" stroke-linejoin="round" stroke-miterlimit="10" fill="#E97132"/><path d="M845.499 4979.98C845.499 4986.05 840.575 4990.98 834.5 4990.98 828.425 4990.98 823.5 4986.05 823.5 4979.98 823.5 4973.9 828.425 4968.98 834.5 4968.98 840.575 4968.98 845.499 4973.9 845.499 4979.98Z" stroke="#E97132" stroke-width="3.4375" stroke-linejoin="round" stroke-miterlimit="10" fill="#E97132"/><path d="M753.499 4947.98C753.499 4954.05 748.575 4958.98 742.5 4958.98 736.425 4958.98 731.5 4954.05 731.5 4947.98 731.5 4941.9 736.425 4936.98 742.5 4936.98 748.575 4936.98 753.499 4941.9 753.499 4947.98Z" stroke="#E97132" stroke-width="3.4375" stroke-linejoin="round" stroke-miterlimit="10" fill="#E97132"/><path d="M683.499 4880.98C683.499 4887.05 678.574 4891.98 672.5 4891.98 666.425 4891.98 661.5 4887.05 661.5 4880.98 661.5 4874.9 666.425 4869.98 672.5 4869.98 678.574 4869.98 683.499 4874.9 683.499 4880.98Z" stroke="#E97132" stroke-width="3.4375" stroke-linejoin="round" stroke-miterlimit="10" fill="#E97132"/><path d="M626.499 4798.98C626.499 4805.05 621.575 4809.98 615.5 4809.98 609.425 4809.98 604.5 4805.05 604.5 4798.98 604.5 4792.9 609.425 4787.98 615.5 4787.98 621.575 4787.98 626.499 4792.9 626.499 4798.98Z" stroke="#E97132" stroke-width="3.4375" stroke-linejoin="round" stroke-miterlimit="10" fill="#E97132"/><path d="M610.499 4696.98C610.499 4703.05 605.575 4707.98 599.5 4707.98 593.425 4707.98 588.5 4703.05 588.5 4696.98 588.5 4690.9 593.425 4685.98 599.5 4685.98 605.575 4685.98 610.499 4690.9 610.499 4696.98Z" stroke="#E97132" stroke-width="3.4375" stroke-linejoin="round" stroke-miterlimit="10" fill="#E97132"/><path d="M647.499 4600.98C647.499 4607.05 642.575 4611.98 636.5 4611.98 630.425 4611.98 625.5 4607.05 625.5 4600.98 625.5 4594.9 630.425 4589.98 636.5 4589.98 642.575 4589.98 647.499 4594.9 647.499 4600.98Z" stroke="#E97132" stroke-width="3.4375" stroke-linejoin="round" stroke-miterlimit="10" fill="#E97132"/><path d="M711.499 4523.98C711.499 4530.05 706.575 4534.98 700.5 4534.98 694.425 4534.98 689.5 4530.05 689.5 4523.98 689.5 4517.9 694.425 4512.98 700.5 4512.98 706.575 4512.98 711.499 4517.9 711.499 4523.98Z" stroke="#E97132" stroke-width="3.4375" stroke-linejoin="round" stroke-miterlimit="10" fill="#E97132"/><path d="M801.499 4487.98C801.499 4494.05 796.575 4498.98 790.5 4498.98 784.425 4498.98 779.5 4494.05 779.5 4487.98 779.5 4481.9 784.425 4476.98 790.5 4476.98 796.575 4476.98 801.499 4481.9 801.499 4487.98Z" stroke="#E97132" stroke-width="3.4375" stroke-linejoin="round" stroke-miterlimit="10" fill="#E97132"/></g><g><text fill="#FFFFFF" font-family="Aptos Narrow,Aptos Narrow_MSFontService,sans-serif" font-weight="400" font-stretch="semi-condensed" font-size="41" transform="matrix(1 0 0 1 819.264 4737)">0</text></g><g><text fill="#FFFFFF" font-family="Aptos Narrow,Aptos Narrow_MSFontService,sans-serif" font-weight="400" font-stretch="semi-condensed" font-size="41" transform="matrix(1 0 0 1 819.264 4672)">1</text></g><g><text fill="#FFFFFF" font-family="Aptos Narrow,Aptos Narrow_MSFontService,sans-serif" font-weight="400" font-stretch="semi-condensed" font-size="41" transform="matrix(1 0 0 1 819.264 4607)">2</text></g><g><text fill="#FFFFFF" font-family="Aptos Narrow,Aptos Narrow_MSFontService,sans-serif" font-weight="400" font-stretch="semi-condensed" font-size="41" transform="matrix(1 0 0 1 819.264 4543)">3</text></g><g><text fill="#FFFFFF" font-family="Aptos Narrow,Aptos Narrow_MSFontService,sans-serif" font-weight="400" font-stretch="semi-condensed" font-size="41" transform="matrix(1 0 0 1 819.264 4478)">4</text></g><g><text fill="#FFFFFF" font-family="Aptos Narrow,Aptos Narrow_MSFontService,sans-serif" font-weight="400" font-stretch="semi-condensed" font-size="41" transform="matrix(1 0 0 1 819.264 4413)">5</text></g><g><text fill="#595959" font-family="Aptos Narrow,Aptos Narrow_MSFontService,sans-serif" font-weight="400" font-stretch="semi-condensed" font-size="41" transform="matrix(1 0 0 1 689.864 4371)">Foundational Concepts</text></g><g><text fill="#595959" font-family="Aptos Narrow,Aptos Narrow_MSFontService,sans-serif" font-weight="400" font-stretch="semi-condensed" font-size="41" transform="matrix(1 0 0 1 1003.38 4421)">Preparation and…</text></g><g><text fill="#595959" font-family="Aptos Narrow,Aptos Narrow_MSFontService,sans-serif" font-weight="400" font-stretch="semi-condensed" font-size="41" transform="matrix(1 0 0 1 1108.35 4486)">Backlog Management…</text></g><g><text fill="#595959" font-family="Aptos Narrow,Aptos Narrow_MSFontService,sans-serif" font-weight="400" font-stretch="semi-condensed" font-size="41" transform="matrix(1 0 0 1 1182.79 4585)">Estimation Methodology</text></g><g><text fill="#595959" font-family="Aptos Narrow,Aptos Narrow_MSFontService,sans-serif" font-weight="400" font-stretch="semi-condensed" font-size="41" transform="matrix(1 0 0 1 1216.59 4703)">Sprint Planning</text></g><g><text fill="#595959" font-family="Aptos Narrow,Aptos Narrow_MSFontService,sans-serif" font-weight="400" font-stretch="semi-condensed" font-size="41" transform="matrix(1 0 0 1 1205.2 4826)">Daily Scrum</text></g><g><text fill="#595959" font-family="Aptos Narrow,Aptos Narrow_MSFontService,sans-serif" font-weight="400" font-stretch="semi-condensed" font-size="41" transform="matrix(1 0 0 1 1150.14 4937)">Execution</text></g><g><text fill="#595959" font-family="Aptos Narrow,Aptos Narrow_MSFontService,sans-serif" font-weight="400" font-stretch="semi-condensed" font-size="41" transform="matrix(1 0 0 1 1058.85 5020)">Sprint Review</text></g><g><text fill="#595959" font-family="Aptos Narrow,Aptos Narrow_MSFontService,sans-serif" font-weight="400" font-stretch="semi-condensed" font-size="41" transform="matrix(1 0 0 1 943.725 5065)">Sprint Retrospection</text></g><g><text fill="#595959" font-family="Aptos Narrow,Aptos Narrow_MSFontService,sans-serif" font-weight="400" font-stretch="semi-condensed" font-size="41" transform="matrix(1 0 0 1 445.285 5065)">Metrics and Monitoring</text></g><g><text fill="#595959" font-family="Aptos Narrow,Aptos Narrow_MSFontService,sans-serif" font-weight="400" font-stretch="semi-condensed" font-size="41" transform="matrix(1 0 0 1 426.201 5020)">Quality Practices</text></g><g><text fill="#595959" font-family="Aptos Narrow,Aptos Narrow_MSFontService,sans-serif" font-weight="400" font-stretch="semi-condensed" font-size="41" transform="matrix(1 0 0 1 222.806 4937)">Release and PI Planning</text></g><g><text fill="#595959" font-family="Aptos Narrow,Aptos Narrow_MSFontService,sans-serif" font-weight="400" font-stretch="semi-condensed" font-size="41" transform="matrix(1 0 0 1 159.063 4826)">Engineering and DevOps</text></g><g><text fill="#595959" font-family="Aptos Narrow,Aptos Narrow_MSFontService,sans-serif" font-weight="400" font-stretch="semi-condensed" font-size="41" transform="matrix(1 0 0 1 285.56 4703)">Team Dynamics</text></g><g><text fill="#595959" font-family="Aptos Narrow,Aptos Narrow_MSFontService,sans-serif" font-weight="400" font-stretch="semi-condensed" font-size="41" transform="matrix(1 0 0 1 408.115 4585)">Innovation</text></g><g><text fill="#595959" font-family="Aptos Narrow,Aptos Narrow_MSFontService,sans-serif" font-weight="400" font-stretch="semi-condensed" font-size="41" transform="matrix(1 0 0 1 297.204 4486)"> Leadership and Team…</text></g><g><text fill="#595959" font-family="Aptos Narrow,Aptos Narrow_MSFontService,sans-serif" font-weight="400" font-stretch="semi-condensed" font-size="41" transform="matrix(1 0 0 1 496.981 4421)">Gen AI Adoption</text></g><g><text fill="#595959" font-family="Aptos Narrow,Aptos Narrow_MSFontService,sans-serif" font-weight="700" font-stretch="semi-condensed" font-size="64" transform="matrix(1 0 0 1 797.15 4285)">Riders</text></g><g><path d="M674.5 5174.5 762.5 5174.5" stroke="#156082" stroke-width="6.875" stroke-linecap="round" stroke-linejoin="round" stroke-miterlimit="10" fill="none" fill-rule="evenodd"/></g><g><path d="M729 5174C729 5180.07 724.075 5185 718 5185 711.925 5185 707 5180.07 707 5174 707 5167.92 711.925 5163 718 5163 724.075 5163 729 5167.92 729 5174Z" stroke="#156082" stroke-width="3.4375" stroke-linejoin="round" stroke-miterlimit="10" fill="#156082"/></g><g><text fill="#595959" font-family="Aptos Narrow,Aptos Narrow_MSFontService,sans-serif" font-weight="400" font-stretch="semi-condensed" font-size="41" transform="matrix(1 0 0 1 771.604 5186)">Target</text></g><g><path d="M913.5 5174.5 1001.5 5174.5" stroke="#E97132" stroke-width="6.875" stroke-linecap="round" stroke-linejoin="round" stroke-miterlimit="10" fill="none" fill-rule="evenodd"/></g><g><path d="M968.021 5174C968.021 5180.07 963.311 5185 957.5 5185 951.689 5185 946.978 5180.07 946.978 5174 946.978 5167.92 951.689 5163 957.5 5163 963.311 5163 968.021 5167.92 968.021 5174Z" stroke="#E97132" stroke-width="3.4375" stroke-linejoin="round" stroke-miterlimit="10" fill="#E97132"/></g><g><text fill="#595959" font-family="Aptos Narrow,Aptos Narrow_MSFontService,sans-serif" font-weight="400" font-stretch="semi-condensed" font-size="41" transform="matrix(1 0 0 1 1010.98 5186)">Score</text></g><rect x="0.499836" y="4190.5" width="1764" height="1050" stroke="#D9D9D9" stroke-width="3.4375" stroke-linejoin="round" stroke-miterlimit="10" fill="none"/></g></svg>