<svg width="1398" height="1082" xmlns="http://www.w3.org/2000/svg" xmlns:xlink="http://www.w3.org/1999/xlink" xml:space="preserve" overflow="hidden"><defs><clipPath id="clip0"><rect x="2786" y="1177" width="1398" height="1082"/></clipPath></defs><g clip-path="url(#clip0)" transform="translate(-2786 -1177)"><rect x="2787" y="1178" width="1395" height="1079" fill="#FFFFFF"/><g><path d="M3484.61 1605.55 3535.62 1635.55M3535.62 1635.55 3535.62 1694.56M3535.62 1694.56 3484.61 1724.56M3484.61 1724.56 3432.61 1694.56M3432.61 1694.56 3432.61 1635.55M3432.61 1635.55 3484.61 1605.55M3484.61 1546.55 3587.62 1605.55M3587.62 1605.55 3587.62 1724.56M3587.62 1724.56 3484.61 1783.56M3484.61 1783.56 3381.61 1724.56M3381.61 1724.56 3381.61 1605.55M3381.61 1605.55 3484.61 1546.55M3484.61 1486.55 3638.62 1576.55M3638.62 1576.55 3638.62 1754.56M3638.62 1754.56 3484.61 1843.56M3484.61 1843.56 3330.61 1754.56M3330.61 1754.56 3330.61 1576.55M3330.61 1576.55 3484.61 1486.55M3484.61 1427.55 3690.62 1546.55M3690.62 1546.55 3690.62 1783.56M3690.62 1783.56 3484.61 1902.56M3484.61 1902.56 3278.61 1783.56M3278.61 1783.56 3278.61 1546.55M3278.61 1546.55 3484.61 1427.55M3484.61 1368.5 3741.5 1516.55M3741.5 1516.55 3741.5 1813.56M3741.5 1813.56 3484.61 1962.5M3484.61 1962.5 3227.5 1813.56M3227.5 1813.56 3227.5 1516.55M3227.5 1516.55 3484.61 1368.5" stroke="#D9D9D9" stroke-width="3.4375" stroke-linejoin="round" stroke-miterlimit="10" fill="none"/></g><g><path d="M3484.61 1665.55 3484.61 1368.5M3484.61 1665.55 3741.5 1516.55M3484.61 1665.55 3741.5 1813.56M3484.61 1665.55 3484.61 1962.5M3484.61 1665.55 3227.5 1813.56M3484.61 1665.55 3227.5 1516.55M3484.61 1665.55 3484.61 1368.5" stroke="#D9D9D9" stroke-width="3.4375" stroke-linejoin="round" stroke-miterlimit="10" fill="none"/></g><g><path d="M3227.5 1516.55 3484.61 1368.5 3741.5 1516.55 3741.5 1813.56 3484.61 1962.5 3227.5 1813.56 3227.5 1516.55" stroke="#156082" stroke-width="6.875" stroke-linecap="round" stroke-linejoin="round" stroke-miterlimit="10" fill="none"/></g><g><path d="M3278.5 1546.55 3484.61 1487.5 3613.5 1590.55 3604.62 1734.56 3484.61 1819.5 3278.5 1783.56 3278.5 1546.55" stroke="#994010" stroke-width="6.875" stroke-linecap="round" stroke-linejoin="round" stroke-miterlimit="10" fill="none"/></g><g><text fill="#595959" font-family="Aptos Narrow,Aptos Narrow_MSFontService,sans-serif" font-weight="400" font-stretch="semi-condensed" font-size="41" transform="matrix(1 0 0 1 3421.78 1679)">0</text></g><g><text fill="#595959" font-family="Aptos Narrow,Aptos Narrow_MSFontService,sans-serif" font-weight="400" font-stretch="semi-condensed" font-size="41" transform="matrix(1 0 0 1 3421.78 1620)">1</text></g><g><text fill="#595959" font-family="Aptos Narrow,Aptos Narrow_MSFontService,sans-serif" font-weight="400" font-stretch="semi-condensed" font-size="41" transform="matrix(1 0 0 1 3421.78 1560)">2</text></g><g><text fill="#595959" font-family="Aptos Narrow,Aptos Narrow_MSFontService,sans-serif" font-weight="400" font-stretch="semi-condensed" font-size="41" transform="matrix(1 0 0 1 3421.78 1501)">3</text></g><g><text fill="#595959" font-family="Aptos Narrow,Aptos Narrow_MSFontService,sans-serif" font-weight="400" font-stretch="semi-condensed" font-size="41" transform="matrix(1 0 0 1 3421.78 1441)">4</text></g><g><text fill="#595959" font-family="Aptos Narrow,Aptos Narrow_MSFontService,sans-serif" font-weight="400" font-stretch="semi-condensed" font-size="41" transform="matrix(1 0 0 1 3421.78 1382)">5</text></g><g><text fill="#595959" font-family="Aptos Narrow,Aptos Narrow_MSFontService,sans-serif" font-weight="400" font-stretch="semi-condensed" font-size="41" transform="matrix(1 0 0 1 3387.04 1290)">Operational</text></g><g><text fill="#595959" font-family="Aptos Narrow,Aptos Narrow_MSFontService,sans-serif" font-weight="400" font-stretch="semi-condensed" font-size="41" transform="matrix(1 0 0 1 3330.42 1340)">partnership quality</text></g><g><text fill="#595959" font-family="Aptos Narrow,Aptos Narrow_MSFontService,sans-serif" font-weight="400" font-stretch="semi-condensed" font-size="41" transform="matrix(1 0 0 1 3774.59 1497)">Backlog &amp;</text></g><g><text fill="#595959" font-family="Aptos Narrow,Aptos Narrow_MSFontService,sans-serif" font-weight="400" font-stretch="semi-condensed" font-size="41" transform="matrix(1 0 0 1 3751.94 1547)">Prioritization</text></g><g><text fill="#595959" font-family="Aptos Narrow,Aptos Narrow_MSFontService,sans-serif" font-weight="400" font-stretch="semi-condensed" font-size="41" transform="matrix(1 0 0 1 3801.94 1806)">Execution &amp;</text></g><g><text fill="#595959" font-family="Aptos Narrow,Aptos Narrow_MSFontService,sans-serif" font-weight="400" font-stretch="semi-condensed" font-size="41" transform="matrix(1 0 0 1 3751.94 1856)">Delivery Practices</text></g><g><text fill="#595959" font-family="Aptos Narrow,Aptos Narrow_MSFontService,sans-serif" font-weight="400" font-stretch="semi-condensed" font-size="41" transform="matrix(1 0 0 1 3354.14 2013)">Value, Quality &amp;</text></g><g><text fill="#595959" font-family="Aptos Narrow,Aptos Narrow_MSFontService,sans-serif" font-weight="400" font-stretch="semi-condensed" font-size="41" transform="matrix(1 0 0 1 3404.18 2063)">Feedback</text></g><g><text fill="#595959" font-family="Aptos Narrow,Aptos Narrow_MSFontService,sans-serif" font-weight="400" font-stretch="semi-condensed" font-size="41" transform="matrix(1 0 0 1 2920.38 1781)">Team Capability &amp;</text></g><g><text fill="#595959" font-family="Aptos Narrow,Aptos Narrow_MSFontService,sans-serif" font-weight="400" font-stretch="semi-condensed" font-size="41" transform="matrix(1 0 0 1 2973.02 1831)">Continuous</text></g><g><text fill="#595959" font-family="Aptos Narrow,Aptos Narrow_MSFontService,sans-serif" font-weight="400" font-stretch="semi-condensed" font-size="41" transform="matrix(1 0 0 1 2958.82 1881)">Improvement</text></g><g><text fill="#595959" font-family="Aptos Narrow,Aptos Narrow_MSFontService,sans-serif" font-weight="400" font-stretch="semi-condensed" font-size="41" transform="matrix(1 0 0 1 2961.5 1472)">Innovation, AI &amp;</text></g><g><text fill="#595959" font-family="Aptos Narrow,Aptos Narrow_MSFontService,sans-serif" font-weight="400" font-stretch="semi-condensed" font-size="41" transform="matrix(1 0 0 1 3035.83 1522)">Future</text></g><g><text fill="#595959" font-family="Aptos Narrow,Aptos Narrow_MSFontService,sans-serif" font-weight="400" font-stretch="semi-condensed" font-size="41" transform="matrix(1 0 0 1 2975.95 1573)">Opportunities</text></g><g><path d="M2993.5 2191.5 3081.5 2191.5" stroke="#156082" stroke-width="6.875" stroke-linecap="round" stroke-linejoin="round" stroke-miterlimit="10" fill="none" fill-rule="evenodd"/></g><g><text fill="#595959" font-family="Aptos Narrow,Aptos Narrow_MSFontService,sans-serif" font-weight="400" font-stretch="semi-condensed" font-size="41" transform="matrix(1 0 0 1 3090.95 2203)">Product Org Team Target</text></g><g><path d="M3570.5 2191.5 3658.5 2191.5" stroke="#994010" stroke-width="6.875" stroke-linecap="round" stroke-linejoin="round" stroke-miterlimit="10" fill="none" fill-rule="evenodd"/></g><g><text fill="#595959" font-family="Aptos Narrow,Aptos Narrow_MSFontService,sans-serif" font-weight="400" font-stretch="semi-condensed" font-size="41" transform="matrix(1 0 0 1 3667.79 2203)">Diana_engels Score</text></g><rect x="2787.5" y="1178.5" width="1395" height="1079" stroke="#D9D9D9" stroke-width="3.4375" stroke-linejoin="round" stroke-miterlimit="10" fill="none"/></g></svg>