<svg width="2306" height="1525" xmlns="http://www.w3.org/2000/svg" xmlns:xlink="http://www.w3.org/1999/xlink" xml:space="preserve" overflow="hidden"><defs><clipPath id="clip0"><rect x="593" y="49" width="2306" height="1525"/></clipPath></defs><g clip-path="url(#clip0)" transform="translate(-593 -49)"><rect x="594" y="49.9998" width="2303" height="1522" fill="#FFFFFF"/><g><path d="M1745.56 707.523 1779.56 713.524M1779.56 713.524 1810.56 728.524M1810.56 728.524 1834.56 753.525M1834.56 753.525 1850.56 784.526M1850.56 784.526 1855.56 818.527M1855.56 818.527 1850.56 852.528M1850.56 852.528 1834.56 883.529M1834.56 883.529 1810.56 908.53M1810.56 908.53 1779.56 924.531M1779.56 924.531 1745.56 929.531M1745.56 929.531 1710.56 924.531M1710.56 924.531 1679.56 908.53M1679.56 908.53 1655.55 883.529M1655.55 883.529 1639.55 852.528M1639.55 852.528 1634.55 818.527M1634.55 818.527 1639.55 784.526M1639.55 784.526 1655.55 753.525M1655.55 753.525 1679.56 728.524M1679.56 728.524 1710.56 713.524M1710.56 713.524 1745.56 707.523M1745.56 596.52 1813.56 607.52M1813.56 607.52 1875.56 639.521M1875.56 639.521 1924.56 688.523M1924.56 688.523 1955.56 750.525M1955.56 750.525 1966.56 818.527M1966.56 818.527 1955.56 887.529M1955.56 887.529 1924.56 948.531M1924.56 948.531 1875.56 997.533M1875.56 997.533 1813.56 1029.53M1813.56 1029.53 1745.56 1040.53M1745.56 1040.53 1676.56 1029.53M1676.56 1029.53 1614.55 997.533M1614.55 997.533 1565.55 948.531M1565.55 948.531 1534.55 887.529M1534.55 887.529 1523.55 818.527M1523.55 818.527 1534.55 750.525M1534.55 750.525 1565.55 688.523M1565.55 688.523 1614.55 639.521M1614.55 639.521 1676.56 607.52M1676.56 607.52 1745.56 596.52M1745.56 485.516 1847.56 502.517M1847.56 502.517 1940.56 549.518M1940.56 549.518 2014.57 623.521M2014.57 623.521 2061.57 715.524M2061.57 715.524 2077.57 818.527M2077.57 818.527 2061.57 921.53M2061.57 921.53 2014.57 1014.53M2014.57 1014.53 1940.56 1087.54M1940.56 1087.54 1847.56 1134.54M1847.56 1134.54 1745.56 1151.54M1745.56 1151.54 1642.55 1134.54M1642.55 1134.54 1549.55 1087.54M1549.55 1087.54 1475.55 1014.53M1475.55 1014.53 1428.55 921.53M1428.55 921.53 1412.55 818.527M1412.55 818.527 1428.55 715.524M1428.55 715.524 1475.55 623.521M1475.55 623.521 1549.55 549.518M1549.55 549.518 1642.55 502.517M1642.55 502.517 1745.56 485.516M1745.56 375.513 1882.56 396.513M1882.56 396.513 2005.57 459.515M2005.57 459.515 2103.57 557.518M2103.57 557.518 2166.57 681.523M2166.57 681.523 2188.57 818.527M2188.57 818.527 2166.57 955.531M2166.57 955.531 2103.57 1079.54M2103.57 1079.54 2005.57 1177.54M2005.57 1177.54 1882.56 1240.54M1882.56 1240.54 1745.56 1262.54M1745.56 1262.54 1607.55 1240.54M1607.55 1240.54 1484.55 1177.54M1484.55 1177.54 1386.55 1079.54M1386.55 1079.54 1323.54 955.531M1323.54 955.531 1301.54 818.527M1301.54 818.527 1323.54 681.523M1323.54 681.523 1386.55 557.518M1386.55 557.518 1484.55 459.515M1484.55 459.515 1607.55 396.513M1607.55 396.513 1745.56 375.513M1745.56 264.5 1916.56 291.51M1916.56 291.51 2070.57 370.512M2070.57 370.512 2193.57 492.516M2193.57 492.516 2272.57 647.521M2272.57 647.521 2299.5 818.527M2299.5 818.527 2272.57 989.533M2272.57 989.533 2193.57 1144.54M2193.57 1144.54 2070.57 1267.54M2070.57 1267.54 1916.56 1345.54M1916.56 1345.54 1745.56 1373.5M1745.56 1373.5 1573.55 1345.54M1573.55 1345.54 1419.55 1267.54M1419.55 1267.54 1296.54 1144.54M1296.54 1144.54 1217.54 989.533M1217.54 989.533 1190.5 818.527M1190.5 818.527 1217.54 647.521M1217.54 647.521 1296.54 492.516M1296.54 492.516 1419.55 370.512M1419.55 370.512 1573.55 291.51M1573.55 291.51 1745.56 264.5" stroke="#D9D9D9" stroke-width="3.4375" stroke-linejoin="round" stroke-miterlimit="10" fill="none"/></g><g><path d="M1745.56 818.527 1745.56 264.5M1745.56 818.527 1916.56 291.51M1745.56 818.527 2070.57 370.512M1745.56 818.527 2193.57 492.516M1745.56 818.527 2272.57 647.521M1745.56 818.527 2299.5 818.527M1745.56 818.527 2272.57 989.533M1745.56 818.527 2193.57 1144.54M1745.56 818.527 2070.57 1267.54M1745.56 818.527 1916.56 1345.54M1745.56 818.527 1745.56 1373.5M1745.56 818.527 1573.55 1345.54M1745.56 818.527 1419.55 1267.54M1745.56 818.527 1296.54 1144.54M1745.56 818.527 1217.54 989.533M1745.56 818.527 1190.5 818.527M1745.56 818.527 1217.54 647.521M1745.56 818.527 1296.54 492.516M1745.56 818.527 1419.55 370.512M1745.56 818.527 1573.55 291.51M1745.56 818.527 1745.56 264.5" stroke="#D9D9D9" stroke-width="3.4375" stroke-linejoin="round" stroke-miterlimit="10" fill="none"/></g><g><rect x="1682" y="793" width="21" height="50.9999" fill="#FFFFFF"/></g><g><rect x="1682" y="683" width="21" height="49.9998" fill="#FFFFFF"/></g><g><rect x="1682" y="572" width="21" height="49.9998" fill="#FFFFFF"/></g><g><rect x="1682" y="461" width="21" height="50.0002" fill="#FFFFFF"/></g><g><rect x="1682" y="350" width="21" height="50.0002" fill="#FFFFFF"/></g><g><rect x="1682" y="239" width="21" height="50.0002" fill="#FFFFFF"/></g><g><path d="M1573.55 291.51 1745.56 264.5 1916.56 291.51 2070.57 370.512 2193.57 492.516 2272.57 647.521 2299.5 818.527 2272.57 989.533 2193.57 1144.54 2070.57 1267.54 1916.56 1345.54 1745.56 1373.5 1573.55 1345.54 1419.55 1267.54 1296.54 1144.54 1217.54 989.533 1190.5 818.527 1217.54 647.521 1296.54 492.516 1419.55 370.512 1573.55 291.51" stroke="#156082" stroke-width="6.875" stroke-linecap="round" stroke-linejoin="round" stroke-miterlimit="10" fill="none"/></g><g><path d="M1642.55 502.5 1745.56 596.52 1813.56 607.52 1875.56 639.521 2014.57 623.521 2061.57 715.524 2077.5 818.527 2061.57 921.53 2014.57 1014.53 1940.56 1087.54 1813.56 1029.53 1745.56 1151.5 1676.56 1029.53 1549.55 1087.54 1475.55 1014.53 1428.5 921.53 1523.55 818.527 1534.55 750.525 1475.55 623.521 1549.55 549.518 1642.55 502.5" stroke="#E97132" stroke-width="6.875" stroke-linecap="round" stroke-linejoin="round" stroke-miterlimit="10" fill="none"/></g><g><rect x="1682" y="793" width="21" height="50.9999" fill="#FFFFFF"/></g><g><text fill="#7F7F7F" font-family="Aptos Narrow,Aptos Narrow_MSFontService,sans-serif" font-weight="400" font-stretch="semi-condensed" font-size="41" transform="matrix(1 0 0 1 1682.4 832)">0</text></g><g><rect x="1682" y="683" width="21" height="49.9998" fill="#FFFFFF"/></g><g><text fill="#7F7F7F" font-family="Aptos Narrow,Aptos Narrow_MSFontService,sans-serif" font-weight="400" font-stretch="semi-condensed" font-size="41" transform="matrix(1 0 0 1 1682.4 722)">1</text></g><g><rect x="1682" y="572" width="21" height="49.9998" fill="#FFFFFF"/></g><g><text fill="#7F7F7F" font-family="Aptos Narrow,Aptos Narrow_MSFontService,sans-serif" font-weight="400" font-stretch="semi-condensed" font-size="41" transform="matrix(1 0 0 1 1682.4 611)">2</text></g><g><rect x="1682" y="461" width="21" height="50.0002" fill="#FFFFFF"/></g><g><text fill="#7F7F7F" font-family="Aptos Narrow,Aptos Narrow_MSFontService,sans-serif" font-weight="400" font-stretch="semi-condensed" font-size="41" transform="matrix(1 0 0 1 1682.4 500)">3</text></g><g><rect x="1682" y="350" width="21" height="50.0002" fill="#FFFFFF"/></g><g><text fill="#7F7F7F" font-family="Aptos Narrow,Aptos Narrow_MSFontService,sans-serif" font-weight="400" font-stretch="semi-condensed" font-size="41" transform="matrix(1 0 0 1 1682.4 389)">4</text></g><g><rect x="1682" y="239" width="21" height="50.0002" fill="#FFFFFF"/></g><g><text fill="#7F7F7F" font-family="Aptos Narrow,Aptos Narrow_MSFontService,sans-serif" font-weight="400" font-stretch="semi-condensed" font-size="41" transform="matrix(1 0 0 1 1682.4 278)">5</text></g><g><text fill="#595959" font-family="Aptos Narrow,Aptos Narrow_MSFontService,sans-serif" font-weight="400" font-stretch="semi-condensed" font-size="41" transform="matrix(1 0 0 1 1471.16 226)">Backlog Readiness &amp; Governance</text></g><g><text fill="#595959" font-family="Aptos Narrow,Aptos Narrow_MSFontService,sans-serif" font-weight="400" font-stretch="semi-condensed" font-size="41" transform="matrix(1 0 0 1 1923.28 282)">Delivery Planning &amp; Governance</text></g><g><text fill="#595959" font-family="Aptos Narrow,Aptos Narrow_MSFontService,sans-serif" font-weight="400" font-stretch="semi-condensed" font-size="41" transform="matrix(1 0 0 1 2084.02 364)">DoR &amp; DoD Governance</text></g><g><text fill="#595959" font-family="Aptos Narrow,Aptos Narrow_MSFontService,sans-serif" font-weight="400" font-stretch="semi-condensed" font-size="41" transform="matrix(1 0 0 1 2211.58 491)">Story Quality &amp; PO Alignment</text></g><g><text fill="#595959" font-family="Aptos Narrow,Aptos Narrow_MSFontService,sans-serif" font-weight="400" font-stretch="semi-condensed" font-size="41" transform="matrix(1 0 0 1 2293.47 627)">Automation Coverage &amp;</text></g><g><text fill="#595959" font-family="Aptos Narrow,Aptos Narrow_MSFontService,sans-serif" font-weight="400" font-stretch="semi-condensed" font-size="41" transform="matrix(1 0 0 1 2391.68 677)">Confidence</text></g><g><text fill="#595959" font-family="Aptos Narrow,Aptos Narrow_MSFontService,sans-serif" font-weight="400" font-stretch="semi-condensed" font-size="41" transform="matrix(1 0 0 1 2321.69 830)">AI Enablement &amp; Readiness</text></g><g><text fill="#595959" font-family="Aptos Narrow,Aptos Narrow_MSFontService,sans-serif" font-weight="400" font-stretch="semi-condensed" font-size="41" transform="matrix(1 0 0 1 2293.47 1008)">RCA Actionability</text></g><g><text fill="#595959" font-family="Aptos Narrow,Aptos Narrow_MSFontService,sans-serif" font-weight="400" font-stretch="semi-condensed" font-size="41" transform="matrix(1 0 0 1 2211.58 1169)">Ideation-to-Outcome Execution</text></g><g><text fill="#595959" font-family="Aptos Narrow,Aptos Narrow_MSFontService,sans-serif" font-weight="400" font-stretch="semi-condensed" font-size="41" transform="matrix(1 0 0 1 2084.02 1297)">Sprint Change Governance</text></g><g><text fill="#595959" font-family="Aptos Narrow,Aptos Narrow_MSFontService,sans-serif" font-weight="400" font-stretch="semi-condensed" font-size="41" transform="matrix(1 0 0 1 1923.28 1353)">Burndown Adoption &amp;</text></g><g><text fill="#595959" font-family="Aptos Narrow,Aptos Narrow_MSFontService,sans-serif" font-weight="400" font-stretch="semi-condensed" font-size="41" transform="matrix(1 0 0 1 1983.26 1404)">Accountability</text></g><g><text fill="#595959" font-family="Aptos Narrow,Aptos Narrow_MSFontService,sans-serif" font-weight="400" font-stretch="semi-condensed" font-size="41" transform="matrix(1 0 0 1 1521.73 1434)">Flow Metrics &amp; Impediment</text></g><g><text fill="#595959" font-family="Aptos Narrow,Aptos Narrow_MSFontService,sans-serif" font-weight="400" font-stretch="semi-condensed" font-size="41" transform="matrix(1 0 0 1 1676.23 1485)">Tracking</text></g><g><text fill="#595959" font-family="Aptos Narrow,Aptos Narrow_MSFontService,sans-serif" font-weight="400" font-stretch="semi-condensed" font-size="41" transform="matrix(1 0 0 1 1026.46 1353)">Sprint Ownership &amp; Delivery Flow</text></g><g><text fill="#595959" font-family="Aptos Narrow,Aptos Narrow_MSFontService,sans-serif" font-weight="400" font-stretch="semi-condensed" font-size="41" transform="matrix(1 0 0 1 1195.11 1404)">Stabilization</text></g><g><text fill="#595959" font-family="Aptos Narrow,Aptos Narrow_MSFontService,sans-serif" font-weight="400" font-stretch="semi-condensed" font-size="41" transform="matrix(1 0 0 1 957.895 1297)">KPI Governance &amp; Adoption</text></g><g><text fill="#595959" font-family="Aptos Narrow,Aptos Narrow_MSFontService,sans-serif" font-weight="400" font-stretch="semi-condensed" font-size="41" transform="matrix(1 0 0 1 876.603 1169)">Outcome-Driven Metrics</text></g><g><text fill="#595959" font-family="Aptos Narrow,Aptos Narrow_MSFontService,sans-serif" font-weight="400" font-stretch="semi-condensed" font-size="41" transform="matrix(1 0 0 1 732.211 1008)">Integrated PI Demo Planning</text></g><g><text fill="#595959" font-family="Aptos Narrow,Aptos Narrow_MSFontService,sans-serif" font-weight="400" font-stretch="semi-condensed" font-size="41" transform="matrix(1 0 0 1 812.386 830)">Risk Visibility &amp; ROAM</text></g><g><text fill="#595959" font-family="Aptos Narrow,Aptos Narrow_MSFontService,sans-serif" font-weight="400" font-stretch="semi-condensed" font-size="41" transform="matrix(1 0 0 1 875.05 652)">Data-Driven Quality</text></g><g><text fill="#595959" font-family="Aptos Narrow,Aptos Narrow_MSFontService,sans-serif" font-weight="400" font-stretch="semi-condensed" font-size="41" transform="matrix(1 0 0 1 836.934 491)">Vendor Pre-PI Participation</text></g><g><text fill="#595959" font-family="Aptos Narrow,Aptos Narrow_MSFontService,sans-serif" font-weight="400" font-stretch="semi-condensed" font-size="41" transform="matrix(1 0 0 1 1010.63 364)">PI &amp; Sprint Commitment</text></g><g><text fill="#595959" font-family="Aptos Narrow,Aptos Narrow_MSFontService,sans-serif" font-weight="400" font-stretch="semi-condensed" font-size="41" transform="matrix(1 0 0 1 1083.84 257)">Roadmap-Driven Alignment &amp;</text></g><g><text fill="#595959" font-family="Aptos Narrow,Aptos Narrow_MSFontService,sans-serif" font-weight="400" font-stretch="semi-condensed" font-size="41" transform="matrix(1 0 0 1 1244.5 307)">Execution</text></g><g><text fill="#595959" font-family="Aptos Narrow,Aptos Narrow_MSFontService,sans-serif" font-weight="700" font-stretch="semi-condensed" font-size="64" transform="matrix(1 0 0 1 1356.95 145)">Parameter Score: Andromeda </text></g><g><path d="M1425.5 1505.5 1513.5 1505.5" stroke="#156082" stroke-width="6.875" stroke-linecap="round" stroke-linejoin="round" stroke-miterlimit="10" fill="none" fill-rule="evenodd"/></g><g><text fill="#595959" font-family="Aptos Narrow,Aptos Narrow_MSFontService,sans-serif" font-weight="400" font-stretch="semi-condensed" font-size="41" transform="matrix(1 0 0 1 1522.86 1517)">North Star</text></g><g><path d="M1744.5 1505.5 1832.5 1505.5" stroke="#E97132" stroke-width="6.875" stroke-linecap="round" stroke-linejoin="round" stroke-miterlimit="10" fill="none" fill-rule="evenodd"/></g><g><text fill="#595959" font-family="Aptos Narrow,Aptos Narrow_MSFontService,sans-serif" font-weight="400" font-stretch="semi-condensed" font-size="41" transform="matrix(1 0 0 1 1842.06 1517)">Current Status</text></g><rect x="594.5" y="50.5" width="2303" height="1522" stroke="#D9D9D9" stroke-width="3.4375" stroke-linejoin="round" stroke-miterlimit="10" fill="none"/></g></svg>