<svg width="1646" height="1157" xmlns="http://www.w3.org/2000/svg" xmlns:xlink="http://www.w3.org/1999/xlink" xml:space="preserve" overflow="hidden"><defs><clipPath id="clip0"><rect x="15" y="-1" width="1646" height="1157"/></clipPath></defs><g clip-path="url(#clip0)" transform="translate(-15 1)"><rect x="16.0002" y="0" width="1643" height="1154" fill="#FFFFFF"/><g><path d="M837.528 457.515 889.529 483.516M889.529 483.516 902.53 539.518M902.53 539.518 866.529 585.519M866.529 585.519 808.527 585.519M808.527 585.519 771.526 539.518M771.526 539.518 784.526 483.516M784.526 483.516 837.528 457.515M837.528 390.513 941.531 441.515M941.531 441.515 967.532 554.518M967.532 554.518 895.53 645.521M895.53 645.521 779.526 645.521M779.526 645.521 706.523 554.518M706.523 554.518 732.524 441.515M732.524 441.515 837.528 390.513M837.528 324.511 994.533 399.513M994.533 399.513 1032.53 569.519M1032.53 569.519 924.531 705.523M924.531 705.523 750.525 705.523M750.525 705.523 641.521 569.519M641.521 569.519 680.523 399.513M680.523 399.513 837.528 324.511M837.528 257.509 1046.53 357.512M1046.53 357.512 1098.54 584.519M1098.54 584.519 953.531 765.525M953.531 765.525 721.524 765.525M721.524 765.525 576.519 584.519M576.519 584.519 627.521 357.512M627.521 357.512 837.528 257.509M837.528 190.5 1098.54 316.511M1098.54 316.511 1163.5 599.52M1163.5 599.52 982.532 826.5M982.532 826.5 692.523 826.5M692.523 826.5 511.5 599.52M511.5 599.52 575.519 316.511M575.519 316.511 837.528 190.5" stroke="#D9D9D9" stroke-width="3.4375" stroke-linejoin="round" stroke-miterlimit="10" fill="none"/></g><g><path d="M837.528 524.517 837.528 190.5M837.528 524.517 1098.54 316.511M837.528 524.517 1163.5 599.52M837.528 524.517 982.532 826.5M837.528 524.517 692.523 826.5M837.528 524.517 511.5 599.52M837.528 524.517 575.519 316.511M837.528 524.517 837.528 190.5" stroke="#D9D9D9" stroke-width="3.4375" stroke-linejoin="round" stroke-miterlimit="10" fill="none"/></g><g><path d="M575.519 316.511 837.528 190.5 1098.54 316.511 1163.5 599.52 982.532 826.5 692.523 826.5 511.5 599.52 575.519 316.511" stroke="#156082" stroke-width="6.875" stroke-linecap="round" stroke-linejoin="round" stroke-miterlimit="10" fill="none"/></g><g><path d="M654.522 378.513 837.528 257.5 1046.53 357.512 1087.5 581.519 953.531 765.525 711.523 785.5 554.5 589.52 654.522 378.513" stroke="#E97132" stroke-width="6.875" stroke-linecap="round" stroke-linejoin="round" stroke-miterlimit="10" fill="none"/></g><g><text fill="#595959" font-family="Aptos Narrow,Aptos Narrow_MSFontService,sans-serif" font-weight="400" font-stretch="semi-condensed" font-size="41" transform="matrix(1 0 0 1 774.474 539)">0</text></g><g><text fill="#595959" font-family="Aptos Narrow,Aptos Narrow_MSFontService,sans-serif" font-weight="400" font-stretch="semi-condensed" font-size="41" transform="matrix(1 0 0 1 774.474 472)">1</text></g><g><text fill="#595959" font-family="Aptos Narrow,Aptos Narrow_MSFontService,sans-serif" font-weight="400" font-stretch="semi-condensed" font-size="41" transform="matrix(1 0 0 1 774.474 405)">2</text></g><g><text fill="#595959" font-family="Aptos Narrow,Aptos Narrow_MSFontService,sans-serif" font-weight="400" font-stretch="semi-condensed" font-size="41" transform="matrix(1 0 0 1 774.474 338)">3</text></g><g><text fill="#595959" font-family="Aptos Narrow,Aptos Narrow_MSFontService,sans-serif" font-weight="400" font-stretch="semi-condensed" font-size="41" transform="matrix(1 0 0 1 774.474 271)">4</text></g><g><text fill="#595959" font-family="Aptos Narrow,Aptos Narrow_MSFontService,sans-serif" font-weight="400" font-stretch="semi-condensed" font-size="41" transform="matrix(1 0 0 1 774.474 204)">5</text></g><g><text fill="#595959" font-family="Aptos Narrow,Aptos Narrow_MSFontService,sans-serif" font-weight="400" font-stretch="semi-condensed" font-size="41" transform="matrix(1 0 0 1 677.066 111)">Strategic Alignment</text></g><g><text fill="#595959" font-family="Aptos Narrow,Aptos Narrow_MSFontService,sans-serif" font-weight="400" font-stretch="semi-condensed" font-size="41" transform="matrix(1 0 0 1 722.877 161)">and Roadmap</text></g><g><text fill="#595959" font-family="Aptos Narrow,Aptos Narrow_MSFontService,sans-serif" font-weight="400" font-stretch="semi-condensed" font-size="41" transform="matrix(1 0 0 1 1112.83 294)">Backlog and</text></g><g><text fill="#595959" font-family="Aptos Narrow,Aptos Narrow_MSFontService,sans-serif" font-weight="400" font-stretch="semi-condensed" font-size="41" transform="matrix(1 0 0 1 1109.15 345)">Prioritization</text></g><g><text fill="#595959" font-family="Aptos Narrow,Aptos Narrow_MSFontService,sans-serif" font-weight="400" font-stretch="semi-condensed" font-size="41" transform="matrix(1 0 0 1 1176.31 589)">Execution and Delivery</text></g><g><text fill="#595959" font-family="Aptos Narrow,Aptos Narrow_MSFontService,sans-serif" font-weight="400" font-stretch="semi-condensed" font-size="41" transform="matrix(1 0 0 1 1285.08 639)">Practices</text></g><g><text fill="#595959" font-family="Aptos Narrow,Aptos Narrow_MSFontService,sans-serif" font-weight="400" font-stretch="semi-condensed" font-size="41" transform="matrix(1 0 0 1 988.083 825)">Value, Quality and</text></g><g><text fill="#595959" font-family="Aptos Narrow,Aptos Narrow_MSFontService,sans-serif" font-weight="400" font-stretch="semi-condensed" font-size="41" transform="matrix(1 0 0 1 1057.1 875)">Feedback</text></g><g><text fill="#595959" font-family="Aptos Narrow,Aptos Narrow_MSFontService,sans-serif" font-weight="400" font-stretch="semi-condensed" font-size="41" transform="matrix(1 0 0 1 351.68 799)">Team Capability and</text></g><g><text fill="#595959" font-family="Aptos Narrow,Aptos Narrow_MSFontService,sans-serif" font-weight="400" font-stretch="semi-condensed" font-size="41" transform="matrix(1 0 0 1 423.295 850)">Continuous</text></g><g><text fill="#595959" font-family="Aptos Narrow,Aptos Narrow_MSFontService,sans-serif" font-weight="400" font-stretch="semi-condensed" font-size="41" transform="matrix(1 0 0 1 409.087 900)">Improvement</text></g><g><text fill="#595959" font-family="Aptos Narrow,Aptos Narrow_MSFontService,sans-serif" font-weight="400" font-stretch="semi-condensed" font-size="41" transform="matrix(1 0 0 1 168.287 589)">Engineering DevOps</text></g><g><text fill="#595959" font-family="Aptos Narrow,Aptos Narrow_MSFontService,sans-serif" font-weight="400" font-stretch="semi-condensed" font-size="41" transform="matrix(1 0 0 1 196.83 639)">and Architecture</text></g><g><text fill="#595959" font-family="Aptos Narrow,Aptos Narrow_MSFontService,sans-serif" font-weight="400" font-stretch="semi-condensed" font-size="41" transform="matrix(1 0 0 1 253.22 294)">Innovation AI and</text></g><g><text fill="#595959" font-family="Aptos Narrow,Aptos Narrow_MSFontService,sans-serif" font-weight="400" font-stretch="semi-condensed" font-size="41" transform="matrix(1 0 0 1 223.99 345)">Future Opportunities</text></g><g><path d="M313.5 1088.5 401.5 1088.5" stroke="#156082" stroke-width="6.875" stroke-linecap="round" stroke-linejoin="round" stroke-miterlimit="10" fill="none" fill-rule="evenodd"/></g><g><text fill="#595959" font-family="Aptos Narrow,Aptos Narrow_MSFontService,sans-serif" font-weight="400" font-stretch="semi-condensed" font-size="41" transform="matrix(1 0 0 1 410.55 1100)">Product Org Team Target</text></g><g><path d="M894.5 1088.5 982.5 1088.5" stroke="#E97132" stroke-width="6.875" stroke-linecap="round" stroke-linejoin="round" stroke-miterlimit="10" fill="none" fill-rule="evenodd"/></g><g><text fill="#595959" font-family="Aptos Narrow,Aptos Narrow_MSFontService,sans-serif" font-weight="400" font-stretch="semi-condensed" font-size="41" transform="matrix(1 0 0 1 991.523 1100)">shankar sukumar Score</text></g><rect x="16.5" y="0.499836" width="1643" height="1154" stroke="#D9D9D9" stroke-width="3.4375" stroke-linejoin="round" stroke-miterlimit="10" fill="none"/></g></svg>