<svg width="1861" height="1355" xmlns="http://www.w3.org/2000/svg" xmlns:xlink="http://www.w3.org/1999/xlink" xml:space="preserve" overflow="hidden"><defs><clipPath id="clip0"><rect x="14" y="2422" width="1861" height="1355"/></clipPath></defs><g clip-path="url(#clip0)" transform="translate(-14 -2422)"><rect x="15.0001" y="2423" width="1858" height="1352" fill="#FFFFFF"/><g><path d="M943.531 3017.6 975.532 3023.6M975.532 3023.6 1003.53 3040.6M1003.53 3040.6 1022.53 3066.6M1022.53 3066.6 1031.53 3097.6M1031.53 3097.6 1028.53 3130.6M1028.53 3130.6 1014.53 3159.6M1014.53 3159.6 990.533 3181.6M990.533 3181.6 959.532 3192.6M959.532 3192.6 927.531 3192.6M927.531 3192.6 897.53 3181.6M897.53 3181.6 873.529 3159.6M873.529 3159.6 858.528 3130.6M858.528 3130.6 855.528 3097.6M855.528 3097.6 864.529 3066.6M864.529 3066.6 884.529 3040.6M884.529 3040.6 911.53 3023.6M911.53 3023.6 943.531 3017.6M943.531 2929.6 1007.53 2941.6M1007.53 2941.6 1062.54 2975.6M1062.54 2975.6 1101.54 3027.6M1101.54 3027.6 1119.54 3089.6M1119.54 3089.6 1113.54 3154.6M1113.54 3154.6 1084.54 3212.61M1084.54 3212.61 1036.53 3256.61M1036.53 3256.61 976.532 3279.61M976.532 3279.61 911.53 3279.61M911.53 3279.61 850.528 3256.61M850.528 3256.61 802.526 3212.61M802.526 3212.61 773.526 3154.6M773.526 3154.6 767.525 3089.6M767.525 3089.6 785.526 3027.6M785.526 3027.6 824.527 2975.6M824.527 2975.6 879.529 2941.6M879.529 2941.6 943.531 2929.6M943.531 2840.59 1039.53 2858.59M1039.53 2858.59 1122.54 2910.6M1122.54 2910.6 1181.54 2987.6M1181.54 2987.6 1207.54 3081.6M1207.54 3081.6 1198.54 3178.6M1198.54 3178.6 1155.54 3265.61M1155.54 3265.61 1083.54 3331.61M1083.54 3331.61 992.533 3366.61M992.533 3366.61 894.53 3366.61M894.53 3366.61 804.527 3331.61M804.527 3331.61 732.524 3265.61M732.524 3265.61 688.523 3178.6M688.523 3178.6 679.522 3081.6M679.522 3081.6 706.523 2987.6M706.523 2987.6 764.525 2910.6M764.525 2910.6 847.528 2858.59M847.528 2858.59 943.531 2840.59M943.531 2752.59 1071.54 2776.59M1071.54 2776.59 1181.54 2844.59M1181.54 2844.59 1260.54 2948.6M1260.54 2948.6 1295.54 3073.6M1295.54 3073.6 1283.54 3202.61M1283.54 3202.61 1225.54 3319.61M1225.54 3319.61 1129.54 3406.61M1129.54 3406.61 1008.53 3453.61M1008.53 3453.61 878.529 3453.61M878.529 3453.61 757.525 3406.61M757.525 3406.61 661.522 3319.61M661.522 3319.61 603.52 3202.61M603.52 3202.61 591.52 3073.6M591.52 3073.6 627.521 2948.6M627.521 2948.6 705.523 2844.59M705.523 2844.59 815.527 2776.59M815.527 2776.59 943.531 2752.59M943.531 2664.5 1103.54 2693.59M1103.54 2693.59 1241.54 2779.59M1241.54 2779.59 1339.54 2909.6M1339.54 2909.6 1383.5 3065.6M1383.5 3065.6 1368.55 3227.61M1368.55 3227.61 1296.54 3372.61M1296.54 3372.61 1176.54 3481.61M1176.54 3481.61 1024.53 3540.5M1024.53 3540.5 862.528 3540.5M862.528 3540.5 710.523 3481.61M710.523 3481.61 590.52 3372.61M590.52 3372.61 518.517 3227.61M518.517 3227.61 503.5 3065.6M503.5 3065.6 547.518 2909.6M547.518 2909.6 645.521 2779.59M645.521 2779.59 783.526 2693.59M783.526 2693.59 943.531 2664.5" stroke="#D9D9D9" stroke-width="3.4375" stroke-linejoin="round" stroke-miterlimit="10" fill="none"/></g><g><path d="M943.531 3106.6 943.531 2664.5M943.531 3106.6 1103.54 2693.59M943.531 3106.6 1241.54 2779.59M943.531 3106.6 1339.54 2909.6M943.531 3106.6 1383.5 3065.6M943.531 3106.6 1368.55 3227.61M943.531 3106.6 1296.54 3372.61M943.531 3106.6 1176.54 3481.61M943.531 3106.6 1024.53 3540.5M943.531 3106.6 862.528 3540.5M943.531 3106.6 710.523 3481.61M943.531 3106.6 590.52 3372.61M943.531 3106.6 518.517 3227.61M943.531 3106.6 503.5 3065.6M943.531 3106.6 547.518 2909.6M943.531 3106.6 645.521 2779.59M943.531 3106.6 783.526 2693.59M943.531 3106.6 943.531 2664.5" stroke="#D9D9D9" stroke-width="3.4375" stroke-linejoin="round" stroke-miterlimit="10" fill="none"/></g><g><path d="M783.526 2693.59 943.531 2664.5 1103.54 2693.59 1241.54 2779.59 1339.54 2909.6 1383.5 3065.6 1368.55 3227.61 1296.54 3372.61 1176.54 3481.61 1024.53 3540.5 862.528 3540.5 710.523 3481.61 590.52 3372.61 518.517 3227.61 503.5 3065.6 547.518 2909.6 645.521 2779.59 783.526 2693.59" stroke="#156082" stroke-width="6.875" stroke-linecap="round" stroke-linejoin="round" stroke-miterlimit="10" fill="none"/></g><g><path d="M954.232 2664.45C954.232 2670.52 949.307 2675.45 943.232 2675.45 937.157 2675.45 932.232 2670.52 932.232 2664.45 932.232 2658.37 937.157 2653.45 943.232 2653.45 949.307 2653.45 954.232 2658.37 954.232 2664.45Z" stroke="#156082" stroke-width="3.4375" stroke-linejoin="round" stroke-miterlimit="10" fill="#156082"/><path d="M1114.23 2694.45C1114.23 2700.52 1109.31 2705.45 1103.23 2705.45 1097.16 2705.45 1092.23 2700.52 1092.23 2694.45 1092.23 2688.37 1097.16 2683.45 1103.23 2683.45 1109.31 2683.45 1114.23 2688.37 1114.23 2694.45Z" stroke="#156082" stroke-width="3.4375" stroke-linejoin="round" stroke-miterlimit="10" fill="#156082"/><path d="M1252.23 2779.45C1252.23 2785.52 1247.31 2790.45 1241.23 2790.45 1235.16 2790.45 1230.23 2785.52 1230.23 2779.45 1230.23 2773.37 1235.16 2768.45 1241.23 2768.45 1247.31 2768.45 1252.23 2773.37 1252.23 2779.45Z" stroke="#156082" stroke-width="3.4375" stroke-linejoin="round" stroke-miterlimit="10" fill="#156082"/><path d="M1350.23 2909.45C1350.23 2915.52 1345.31 2920.45 1339.23 2920.45 1333.16 2920.45 1328.23 2915.52 1328.23 2909.45 1328.23 2903.37 1333.16 2898.45 1339.23 2898.45 1345.31 2898.45 1350.23 2903.37 1350.23 2909.45Z" stroke="#156082" stroke-width="3.4375" stroke-linejoin="round" stroke-miterlimit="10" fill="#156082"/><path d="M1394.23 3065.45C1394.23 3071.52 1389.31 3076.45 1383.23 3076.45 1377.16 3076.45 1372.23 3071.52 1372.23 3065.45 1372.23 3059.37 1377.16 3054.45 1383.23 3054.45 1389.31 3054.45 1394.23 3059.37 1394.23 3065.45Z" stroke="#156082" stroke-width="3.4375" stroke-linejoin="round" stroke-miterlimit="10" fill="#156082"/><path d="M1379.23 3227.45C1379.23 3233.52 1374.31 3238.45 1368.23 3238.45 1362.16 3238.45 1357.23 3233.52 1357.23 3227.45 1357.23 3221.37 1362.16 3216.45 1368.23 3216.45 1374.31 3216.45 1379.23 3221.37 1379.23 3227.45Z" stroke="#156082" stroke-width="3.4375" stroke-linejoin="round" stroke-miterlimit="10" fill="#156082"/><path d="M1307.23 3372.45C1307.23 3378.52 1302.31 3383.45 1296.23 3383.45 1290.16 3383.45 1285.23 3378.52 1285.23 3372.45 1285.23 3366.37 1290.16 3361.45 1296.23 3361.45 1302.31 3361.45 1307.23 3366.37 1307.23 3372.45Z" stroke="#156082" stroke-width="3.4375" stroke-linejoin="round" stroke-miterlimit="10" fill="#156082"/><path d="M1187.23 3482.45C1187.23 3488.52 1182.31 3493.45 1176.23 3493.45 1170.16 3493.45 1165.23 3488.52 1165.23 3482.45 1165.23 3476.37 1170.16 3471.45 1176.23 3471.45 1182.31 3471.45 1187.23 3476.37 1187.23 3482.45Z" stroke="#156082" stroke-width="3.4375" stroke-linejoin="round" stroke-miterlimit="10" fill="#156082"/><path d="M1035.23 3540.45C1035.23 3546.52 1030.31 3551.45 1024.23 3551.45 1018.16 3551.45 1013.23 3546.52 1013.23 3540.45 1013.23 3534.37 1018.16 3529.45 1024.23 3529.45 1030.31 3529.45 1035.23 3534.37 1035.23 3540.45Z" stroke="#156082" stroke-width="3.4375" stroke-linejoin="round" stroke-miterlimit="10" fill="#156082"/><path d="M873.231 3540.45C873.231 3546.52 868.307 3551.45 862.232 3551.45 856.157 3551.45 851.232 3546.52 851.232 3540.45 851.232 3534.37 856.157 3529.45 862.232 3529.45 868.307 3529.45 873.231 3534.37 873.231 3540.45Z" stroke="#156082" stroke-width="3.4375" stroke-linejoin="round" stroke-miterlimit="10" fill="#156082"/><path d="M722.232 3482.45C722.232 3488.52 717.307 3493.45 711.232 3493.45 705.157 3493.45 700.232 3488.52 700.232 3482.45 700.232 3476.37 705.157 3471.45 711.232 3471.45 717.307 3471.45 722.232 3476.37 722.232 3482.45Z" stroke="#156082" stroke-width="3.4375" stroke-linejoin="round" stroke-miterlimit="10" fill="#156082"/><path d="M601.232 3372.45C601.232 3378.52 596.307 3383.45 590.232 3383.45 584.157 3383.45 579.232 3378.52 579.232 3372.45 579.232 3366.37 584.157 3361.45 590.232 3361.45 596.307 3361.45 601.232 3366.37 601.232 3372.45Z" stroke="#156082" stroke-width="3.4375" stroke-linejoin="round" stroke-miterlimit="10" fill="#156082"/><path d="M529.231 3227.45C529.231 3233.52 524.307 3238.45 518.232 3238.45 512.157 3238.45 507.232 3233.52 507.232 3227.45 507.232 3221.37 512.157 3216.45 518.232 3216.45 524.307 3216.45 529.231 3221.37 529.231 3227.45Z" stroke="#156082" stroke-width="3.4375" stroke-linejoin="round" stroke-miterlimit="10" fill="#156082"/><path d="M514.232 3065.45C514.232 3071.52 509.307 3076.45 503.232 3076.45 497.157 3076.45 492.232 3071.52 492.232 3065.45 492.232 3059.37 497.157 3054.45 503.232 3054.45 509.307 3054.45 514.232 3059.37 514.232 3065.45Z" stroke="#156082" stroke-width="3.4375" stroke-linejoin="round" stroke-miterlimit="10" fill="#156082"/><path d="M558.232 2909.45C558.232 2915.52 553.307 2920.45 547.232 2920.45 541.157 2920.45 536.232 2915.52 536.232 2909.45 536.232 2903.37 541.157 2898.45 547.232 2898.45 553.307 2898.45 558.232 2903.37 558.232 2909.45Z" stroke="#156082" stroke-width="3.4375" stroke-linejoin="round" stroke-miterlimit="10" fill="#156082"/><path d="M656.232 2779.45C656.232 2785.52 651.307 2790.45 645.232 2790.45 639.157 2790.45 634.232 2785.52 634.232 2779.45 634.232 2773.37 639.157 2768.45 645.232 2768.45 651.307 2768.45 656.232 2773.37 656.232 2779.45Z" stroke="#156082" stroke-width="3.4375" stroke-linejoin="round" stroke-miterlimit="10" fill="#156082"/><path d="M794.231 2694.45C794.231 2700.52 789.307 2705.45 783.232 2705.45 777.157 2705.45 772.232 2700.52 772.232 2694.45 772.232 2688.37 777.157 2683.45 783.232 2683.45 789.307 2683.45 794.231 2688.37 794.231 2694.45Z" stroke="#156082" stroke-width="3.4375" stroke-linejoin="round" stroke-miterlimit="10" fill="#156082"/></g><g><path d="M810.527 2762.59 943.531 2750.59 1088.54 2732.5 1206.54 2817.59 1240.54 2958.6 1341.5 3069.6 1324.54 3214.61 1257.54 3342.61 1164.54 3462.61 1018.53 3507.5 872.529 3484.61 757.525 3406.61 660.522 3320.61 560.519 3215.61 532.5 3068.6 628.521 2949.6 697.523 2836.59 810.527 2762.59" stroke="#E97132" stroke-width="6.875" stroke-linecap="round" stroke-linejoin="round" stroke-miterlimit="10" fill="none"/></g><g><path d="M954.232 2750.45C954.232 2756.52 949.307 2761.45 943.232 2761.45 937.157 2761.45 932.232 2756.52 932.232 2750.45 932.232 2744.37 937.157 2739.45 943.232 2739.45 949.307 2739.45 954.232 2744.37 954.232 2750.45Z" stroke="#E97132" stroke-width="3.4375" stroke-linejoin="round" stroke-miterlimit="10" fill="#E97132"/><path d="M1099.23 2732.45C1099.23 2738.52 1094.31 2743.45 1088.23 2743.45 1082.16 2743.45 1077.23 2738.52 1077.23 2732.45 1077.23 2726.37 1082.16 2721.45 1088.23 2721.45 1094.31 2721.45 1099.23 2726.37 1099.23 2732.45Z" stroke="#E97132" stroke-width="3.4375" stroke-linejoin="round" stroke-miterlimit="10" fill="#E97132"/><path d="M1217.23 2817.45C1217.23 2823.52 1212.31 2828.45 1206.23 2828.45 1200.16 2828.45 1195.23 2823.52 1195.23 2817.45 1195.23 2811.37 1200.16 2806.45 1206.23 2806.45 1212.31 2806.45 1217.23 2811.37 1217.23 2817.45Z" stroke="#E97132" stroke-width="3.4375" stroke-linejoin="round" stroke-miterlimit="10" fill="#E97132"/><path d="M1251.23 2958.45C1251.23 2964.52 1246.31 2969.45 1240.23 2969.45 1234.16 2969.45 1229.23 2964.52 1229.23 2958.45 1229.23 2952.37 1234.16 2947.45 1240.23 2947.45 1246.31 2947.45 1251.23 2952.37 1251.23 2958.45Z" stroke="#E97132" stroke-width="3.4375" stroke-linejoin="round" stroke-miterlimit="10" fill="#E97132"/><path d="M1352.23 3069.45C1352.23 3075.52 1347.31 3080.45 1341.23 3080.45 1335.16 3080.45 1330.23 3075.52 1330.23 3069.45 1330.23 3063.37 1335.16 3058.45 1341.23 3058.45 1347.31 3058.45 1352.23 3063.37 1352.23 3069.45Z" stroke="#E97132" stroke-width="3.4375" stroke-linejoin="round" stroke-miterlimit="10" fill="#E97132"/><path d="M1335.23 3214.45C1335.23 3220.52 1330.31 3225.45 1324.23 3225.45 1318.16 3225.45 1313.23 3220.52 1313.23 3214.45 1313.23 3208.37 1318.16 3203.45 1324.23 3203.45 1330.31 3203.45 1335.23 3208.37 1335.23 3214.45Z" stroke="#E97132" stroke-width="3.4375" stroke-linejoin="round" stroke-miterlimit="10" fill="#E97132"/><path d="M1268.23 3342.45C1268.23 3348.52 1263.31 3353.45 1257.23 3353.45 1251.16 3353.45 1246.23 3348.52 1246.23 3342.45 1246.23 3336.37 1251.16 3331.45 1257.23 3331.45 1263.31 3331.45 1268.23 3336.37 1268.23 3342.45Z" stroke="#E97132" stroke-width="3.4375" stroke-linejoin="round" stroke-miterlimit="10" fill="#E97132"/><path d="M1175.23 3462.45C1175.23 3468.52 1170.31 3473.45 1164.23 3473.45 1158.16 3473.45 1153.23 3468.52 1153.23 3462.45 1153.23 3456.37 1158.16 3451.45 1164.23 3451.45 1170.31 3451.45 1175.23 3456.37 1175.23 3462.45Z" stroke="#E97132" stroke-width="3.4375" stroke-linejoin="round" stroke-miterlimit="10" fill="#E97132"/><path d="M1029.23 3507.45C1029.23 3513.52 1024.31 3518.45 1018.23 3518.45 1012.16 3518.45 1007.23 3513.52 1007.23 3507.45 1007.23 3501.37 1012.16 3496.45 1018.23 3496.45 1024.31 3496.45 1029.23 3501.37 1029.23 3507.45Z" stroke="#E97132" stroke-width="3.4375" stroke-linejoin="round" stroke-miterlimit="10" fill="#E97132"/><path d="M883.231 3484.45C883.231 3490.52 878.307 3495.45 872.232 3495.45 866.157 3495.45 861.232 3490.52 861.232 3484.45 861.232 3478.37 866.157 3473.45 872.232 3473.45 878.307 3473.45 883.231 3478.37 883.231 3484.45Z" stroke="#E97132" stroke-width="3.4375" stroke-linejoin="round" stroke-miterlimit="10" fill="#E97132"/><path d="M768.232 3406.45C768.232 3412.52 763.307 3417.45 757.232 3417.45 751.157 3417.45 746.232 3412.52 746.232 3406.45 746.232 3400.37 751.157 3395.45 757.232 3395.45 763.307 3395.45 768.232 3400.37 768.232 3406.45Z" stroke="#E97132" stroke-width="3.4375" stroke-linejoin="round" stroke-miterlimit="10" fill="#E97132"/><path d="M671.232 3320.45C671.232 3326.52 666.307 3331.45 660.232 3331.45 654.157 3331.45 649.232 3326.52 649.232 3320.45 649.232 3314.37 654.157 3309.45 660.232 3309.45 666.307 3309.45 671.232 3314.37 671.232 3320.45Z" stroke="#E97132" stroke-width="3.4375" stroke-linejoin="round" stroke-miterlimit="10" fill="#E97132"/><path d="M571.232 3215.45C571.232 3221.52 566.307 3226.45 560.232 3226.45 554.157 3226.45 549.232 3221.52 549.232 3215.45 549.232 3209.37 554.157 3204.45 560.232 3204.45 566.307 3204.45 571.232 3209.37 571.232 3215.45Z" stroke="#E97132" stroke-width="3.4375" stroke-linejoin="round" stroke-miterlimit="10" fill="#E97132"/><path d="M543.231 3068.45C543.231 3074.52 538.307 3079.45 532.232 3079.45 526.157 3079.45 521.232 3074.52 521.232 3068.45 521.232 3062.37 526.157 3057.45 532.232 3057.45 538.307 3057.45 543.231 3062.37 543.231 3068.45Z" stroke="#E97132" stroke-width="3.4375" stroke-linejoin="round" stroke-miterlimit="10" fill="#E97132"/><path d="M639.231 2949.45C639.231 2955.52 634.307 2960.45 628.232 2960.45 622.157 2960.45 617.232 2955.52 617.232 2949.45 617.232 2943.37 622.157 2938.45 628.232 2938.45 634.307 2938.45 639.231 2943.37 639.231 2949.45Z" stroke="#E97132" stroke-width="3.4375" stroke-linejoin="round" stroke-miterlimit="10" fill="#E97132"/><path d="M708.231 2836.45C708.231 2842.52 703.307 2847.45 697.232 2847.45 691.157 2847.45 686.232 2842.52 686.232 2836.45 686.232 2830.37 691.157 2825.45 697.232 2825.45 703.307 2825.45 708.231 2830.37 708.231 2836.45Z" stroke="#E97132" stroke-width="3.4375" stroke-linejoin="round" stroke-miterlimit="10" fill="#E97132"/><path d="M821.232 2762.45C821.232 2768.52 816.307 2773.45 810.232 2773.45 804.157 2773.45 799.232 2768.52 799.232 2762.45 799.232 2756.37 804.157 2751.45 810.232 2751.45 816.307 2751.45 821.232 2756.37 821.232 2762.45Z" stroke="#E97132" stroke-width="3.4375" stroke-linejoin="round" stroke-miterlimit="10" fill="#E97132"/></g><g><text fill="#7F7F7F" font-family="Aptos Narrow,Aptos Narrow_MSFontService,sans-serif" font-weight="400" font-stretch="semi-condensed" font-size="41" transform="matrix(1 0 0 1 880.976 3120)">0</text></g><g><text fill="#7F7F7F" font-family="Aptos Narrow,Aptos Narrow_MSFontService,sans-serif" font-weight="400" font-stretch="semi-condensed" font-size="41" transform="matrix(1 0 0 1 880.976 3032)">1</text></g><g><text fill="#7F7F7F" font-family="Aptos Narrow,Aptos Narrow_MSFontService,sans-serif" font-weight="400" font-stretch="semi-condensed" font-size="41" transform="matrix(1 0 0 1 880.976 2943)">2</text></g><g><text fill="#7F7F7F" font-family="Aptos Narrow,Aptos Narrow_MSFontService,sans-serif" font-weight="400" font-stretch="semi-condensed" font-size="41" transform="matrix(1 0 0 1 880.976 2855)">3</text></g><g><text fill="#7F7F7F" font-family="Aptos Narrow,Aptos Narrow_MSFontService,sans-serif" font-weight="400" font-stretch="semi-condensed" font-size="41" transform="matrix(1 0 0 1 880.976 2766)">4</text></g><g><text fill="#7F7F7F" font-family="Aptos Narrow,Aptos Narrow_MSFontService,sans-serif" font-weight="400" font-stretch="semi-condensed" font-size="41" transform="matrix(1 0 0 1 880.976 2678)">5</text></g><g><text fill="#595959" font-family="Aptos Narrow,Aptos Narrow_MSFontService,sans-serif" font-weight="400" font-stretch="semi-condensed" font-size="41" transform="matrix(1 0 0 1 751.576 2631)">Foundational Concepts</text></g><g><text fill="#595959" font-family="Aptos Narrow,Aptos Narrow_MSFontService,sans-serif" font-weight="400" font-stretch="semi-condensed" font-size="41" transform="matrix(1 0 0 1 1109.77 2689)">Preparation and Standards</text></g><g><text fill="#595959" font-family="Aptos Narrow,Aptos Narrow_MSFontService,sans-serif" font-weight="400" font-stretch="semi-condensed" font-size="41" transform="matrix(1 0 0 1 1253.36 2753)">Backlog Management &amp;</text></g><g><text fill="#595959" font-family="Aptos Narrow,Aptos Narrow_MSFontService,sans-serif" font-weight="400" font-stretch="semi-condensed" font-size="41" transform="matrix(1 0 0 1 1350.92 2803)">Refinement</text></g><g><text fill="#595959" font-family="Aptos Narrow,Aptos Narrow_MSFontService,sans-serif" font-weight="400" font-stretch="semi-condensed" font-size="41" transform="matrix(1 0 0 1 1355.19 2913)">Estimation Methodology</text></g><g><text fill="#595959" font-family="Aptos Narrow,Aptos Narrow_MSFontService,sans-serif" font-weight="400" font-stretch="semi-condensed" font-size="41" transform="matrix(1 0 0 1 1401.42 3075)">Sprint Planning</text></g><g><text fill="#595959" font-family="Aptos Narrow,Aptos Narrow_MSFontService,sans-serif" font-weight="400" font-stretch="semi-condensed" font-size="41" transform="matrix(1 0 0 1 1385.84 3244)">Daily Scrum</text></g><g><text fill="#595959" font-family="Aptos Narrow,Aptos Narrow_MSFontService,sans-serif" font-weight="400" font-stretch="semi-condensed" font-size="41" transform="matrix(1 0 0 1 1310.52 3395)">Execution</text></g><g><text fill="#595959" font-family="Aptos Narrow,Aptos Narrow_MSFontService,sans-serif" font-weight="400" font-stretch="semi-condensed" font-size="41" transform="matrix(1 0 0 1 1185.65 3509)">Sprint Review</text></g><g><text fill="#595959" font-family="Aptos Narrow,Aptos Narrow_MSFontService,sans-serif" font-weight="400" font-stretch="semi-condensed" font-size="41" transform="matrix(1 0 0 1 1028.16 3570)">Sprint Retrospection</text></g><g><text fill="#595959" font-family="Aptos Narrow,Aptos Narrow_MSFontService,sans-serif" font-weight="400" font-stretch="semi-condensed" font-size="41" transform="matrix(1 0 0 1 484.272 3570)">Metrics and Monitoring</text></g><g><text fill="#595959" font-family="Aptos Narrow,Aptos Narrow_MSFontService,sans-serif" font-weight="400" font-stretch="semi-condensed" font-size="41" transform="matrix(1 0 0 1 422.829 3509)">Quality Practices</text></g><g><text fill="#595959" font-family="Aptos Narrow,Aptos Narrow_MSFontService,sans-serif" font-weight="400" font-stretch="semi-condensed" font-size="41" transform="matrix(1 0 0 1 185.845 3395)">Release and PI Planning</text></g><g><text fill="#595959" font-family="Aptos Narrow,Aptos Narrow_MSFontService,sans-serif" font-weight="400" font-stretch="semi-condensed" font-size="41" transform="matrix(1 0 0 1 101.845 3244)">Engineering and DevOps</text></g><g><text fill="#595959" font-family="Aptos Narrow,Aptos Narrow_MSFontService,sans-serif" font-weight="400" font-stretch="semi-condensed" font-size="41" transform="matrix(1 0 0 1 224.15 3075)">Team Dynamics</text></g><g><text fill="#595959" font-family="Aptos Narrow,Aptos Narrow_MSFontService,sans-serif" font-weight="400" font-stretch="semi-condensed" font-size="41" transform="matrix(1 0 0 1 359.14 2913)">Innovation</text></g><g><text fill="#595959" font-family="Aptos Narrow,Aptos Narrow_MSFontService,sans-serif" font-weight="400" font-stretch="semi-condensed" font-size="41" transform="matrix(1 0 0 1 275.619 2753)"> Leadership and Team</text></g><g><text fill="#595959" font-family="Aptos Narrow,Aptos Narrow_MSFontService,sans-serif" font-weight="400" font-stretch="semi-condensed" font-size="41" transform="matrix(1 0 0 1 378.206 2803)">Structure</text></g><g><text fill="#595959" font-family="Aptos Narrow,Aptos Narrow_MSFontService,sans-serif" font-weight="400" font-stretch="semi-condensed" font-size="41" transform="matrix(1 0 0 1 514.018 2689)">Gen AI Adoption</text></g><g><text fill="#595959" font-family="Aptos Narrow,Aptos Narrow_MSFontService,sans-serif" font-weight="700" font-stretch="semi-condensed" font-size="64" transform="matrix(1 0 0 1 789.985 2517)">Andromeda</text></g><g><path d="M736.5 3708.5 824.5 3708.5" stroke="#156082" stroke-width="6.875" stroke-linecap="round" stroke-linejoin="round" stroke-miterlimit="10" fill="none" fill-rule="evenodd"/></g><g><path d="M791 3708C791 3714.07 786.075 3719 780 3719 773.925 3719 769 3714.07 769 3708 769 3701.92 773.925 3697 780 3697 786.075 3697 791 3701.92 791 3708Z" stroke="#156082" stroke-width="3.4375" stroke-linejoin="round" stroke-miterlimit="10" fill="#156082"/></g><g><text fill="#595959" font-family="Aptos Narrow,Aptos Narrow_MSFontService,sans-serif" font-weight="400" font-stretch="semi-condensed" font-size="41" transform="matrix(1 0 0 1 833.316 3720)">Target</text></g><g><path d="M975.5 3708.5 1063.5 3708.5" stroke="#E97132" stroke-width="6.875" stroke-linecap="round" stroke-linejoin="round" stroke-miterlimit="10" fill="none" fill-rule="evenodd"/></g><g><path d="M1030 3708C1030 3714.07 1025.08 3719 1019 3719 1012.93 3719 1008 3714.07 1008 3708 1008 3701.92 1012.93 3697 1019 3697 1025.08 3697 1030 3701.92 1030 3708Z" stroke="#E97132" stroke-width="3.4375" stroke-linejoin="round" stroke-miterlimit="10" fill="#E97132"/></g><g><text fill="#595959" font-family="Aptos Narrow,Aptos Narrow_MSFontService,sans-serif" font-weight="400" font-stretch="semi-condensed" font-size="41" transform="matrix(1 0 0 1 1072.69 3720)">Score</text></g><rect x="15.5" y="2423.5" width="1858" height="1352" stroke="#D9D9D9" stroke-width="3.4375" stroke-linejoin="round" stroke-miterlimit="10" fill="none"/></g></svg>