<svg width="2864" height="1678" xmlns="http://www.w3.org/2000/svg" xmlns:xlink="http://www.w3.org/1999/xlink" xml:space="preserve" overflow="hidden"><defs><clipPath id="clip0"><rect x="124" y="1238" width="2864" height="1678"/></clipPath><clipPath id="clip1"><rect x="919" y="1448" width="1275" height="1275"/></clipPath></defs><g clip-path="url(#clip0)" transform="translate(-124 -1238)"><rect x="125" y="1239" width="2861" height="1675" fill="#FFFFFF"/><g><path d="M1555.55 1956.56 1665.55 2020.57M1665.55 2020.57 1665.55 2147.57M1665.55 2147.57 1555.55 2211.57M1555.55 2211.57 1445.55 2147.57M1445.55 2147.57 1445.55 2020.57M1445.55 2020.57 1555.55 1956.56M1555.55 1829.56 1775.56 1956.56M1775.56 1956.56 1775.56 2211.57M1775.56 2211.57 1555.55 2338.58M1555.55 2338.58 1335.54 2211.57M1335.54 2211.57 1335.54 1956.56M1335.54 1956.56 1555.55 1829.56M1555.55 1702.56 1885.56 1893.56M1885.56 1893.56 1885.56 2274.57M1885.56 2274.57 1555.55 2465.58M1555.55 2465.58 1225.54 2274.57M1225.54 2274.57 1225.54 1893.56M1225.54 1893.56 1555.55 1702.56M1555.55 1575.55 1995.57 1829.56M1995.57 1829.56 1995.57 2338.58M1995.57 2338.58 1555.55 2592.59M1555.55 2592.59 1114.54 2338.58M1114.54 2338.58 1114.54 1829.56M1114.54 1829.56 1555.55 1575.55M1555.55 1448.5 2105.5 1766.56M2105.5 1766.56 2105.5 2401.58M2105.5 2401.58 1555.55 2719.5M1555.55 2719.5 1004.5 2401.58M1004.5 2401.58 1004.5 1766.56M1004.5 1766.56 1555.55 1448.5" stroke="#D9D9D9" stroke-width="3.4375" stroke-linejoin="round" stroke-miterlimit="10" fill="none"/></g><g><path d="M1555.55 2083.57 1555.55 1448.5M1555.55 2083.57 2105.5 1766.56M1555.55 2083.57 2105.5 2401.58M1555.55 2083.57 1555.55 2719.5M1555.55 2083.57 1004.5 2401.58M1555.55 2083.57 1004.5 1766.56M1555.55 2083.57 1555.55 1448.5" stroke="#BFBFBF" stroke-width="3.4375" stroke-linejoin="round" stroke-miterlimit="10" fill="none"/></g><g clip-path="url(#clip1)"><path d="M1005 1766.06 1555.05 1448 2106 1766.06 2106 2402.08 1555.05 2720 1005 2402.08 1005 1766.06" stroke="#156082" stroke-width="10.3125" stroke-linecap="round" stroke-linejoin="round" stroke-miterlimit="10" fill="none"/></g><g><path d="M1225.54 1893.56 1555.55 1750.5 1951.56 1855.56 1971.5 2324.58 1555.55 2490.5 1114.5 2338.58 1225.54 1893.56" stroke="#E97132" stroke-width="9.16667" stroke-linecap="round" stroke-linejoin="round" stroke-miterlimit="10" fill="none"/></g><g><path d="M1114.5 1829.56 1555.55 1639.5 1863.56 1905.56 1922.5 2295.58 1555.55 2605.5 1225.54 2274.57 1114.5 1829.56" stroke="#196B24" stroke-width="9.16667" stroke-linecap="round" stroke-linejoin="round" stroke-miterlimit="10" fill="none"/></g><g><path d="M1114.54 1829.56 1555.55 1543.5 1951.56 1855.56 1971.5 2324.58 1555.55 2605.5 1059.5 2370.58 1114.54 1829.56" stroke="#0F9ED5" stroke-width="9.16667" stroke-linecap="round" stroke-linejoin="round" stroke-miterlimit="10" fill="none"/></g><g><path d="M1225.54 1893.56 1555.55 1591.5 1973.5 1842.56 1946.56 2310.58 1555.55 2579.5 1114.5 2338.58 1225.54 1893.56" stroke="#A02B93" stroke-width="9.16667" stroke-linecap="round" stroke-linejoin="round" stroke-miterlimit="10" fill="none"/></g><g><text fill="#7F7F7F" font-family="Aptos Narrow,Aptos Narrow_MSFontService,sans-serif" font-weight="400" font-stretch="semi-condensed" font-size="41" transform="matrix(1 0 0 1 1492.71 2098)">0</text></g><g><text fill="#7F7F7F" font-family="Aptos Narrow,Aptos Narrow_MSFontService,sans-serif" font-weight="400" font-stretch="semi-condensed" font-size="41" transform="matrix(1 0 0 1 1492.71 1971)">1</text></g><g><text fill="#7F7F7F" font-family="Aptos Narrow,Aptos Narrow_MSFontService,sans-serif" font-weight="400" font-stretch="semi-condensed" font-size="41" transform="matrix(1 0 0 1 1492.71 1844)">2</text></g><g><text fill="#7F7F7F" font-family="Aptos Narrow,Aptos Narrow_MSFontService,sans-serif" font-weight="400" font-stretch="semi-condensed" font-size="41" transform="matrix(1 0 0 1 1492.71 1716)">3</text></g><g><text fill="#7F7F7F" font-family="Aptos Narrow,Aptos Narrow_MSFontService,sans-serif" font-weight="400" font-stretch="semi-condensed" font-size="41" transform="matrix(1 0 0 1 1492.71 1589)">4</text></g><g><text fill="#7F7F7F" font-family="Aptos Narrow,Aptos Narrow_MSFontService,sans-serif" font-weight="400" font-stretch="semi-condensed" font-size="41" transform="matrix(1 0 0 1 1492.71 1462)">5</text></g><g><text fill="#595959" font-family="Aptos Narrow,Aptos Narrow_MSFontService,sans-serif" font-weight="700" font-stretch="semi-condensed" font-size="41" transform="matrix(1 0 0 1 1288.62 1407)">Operational partnership quality</text></g><g><text fill="#595959" font-family="Aptos Narrow,Aptos Narrow_MSFontService,sans-serif" font-weight="700" font-stretch="semi-condensed" font-size="41" transform="matrix(1 0 0 1 2127.99 1765)">Backlog &amp; Prioritization</text></g><g><text fill="#595959" font-family="Aptos Narrow,Aptos Narrow_MSFontService,sans-serif" font-weight="700" font-stretch="semi-condensed" font-size="41" transform="matrix(1 0 0 1 2127.99 2426)">Execution &amp; Delivery Practices</text></g><g><text fill="#595959" font-family="Aptos Narrow,Aptos Narrow_MSFontService,sans-serif" font-weight="700" font-stretch="semi-condensed" font-size="41" transform="matrix(1 0 0 1 1333.28 2784)">Value, Quality &amp; Feedback</text></g><g><text fill="#595959" font-family="Aptos Narrow,Aptos Narrow_MSFontService,sans-serif" font-weight="700" font-stretch="semi-condensed" font-size="41" transform="matrix(1 0 0 1 469.523 2401)">Team Capability &amp; Continuous</text></g><g><text fill="#595959" font-family="Aptos Narrow,Aptos Narrow_MSFontService,sans-serif" font-weight="700" font-stretch="semi-condensed" font-size="41" transform="matrix(1 0 0 1 611.309 2451)">Improvement</text></g><g><text fill="#595959" font-family="Aptos Narrow,Aptos Narrow_MSFontService,sans-serif" font-weight="700" font-stretch="semi-condensed" font-size="41" transform="matrix(1 0 0 1 353.976 1765)">Innovation, AI &amp; Future Opportunities</text></g><g><text fill="#595959" font-family="Aptos Narrow,Aptos Narrow_MSFontService,sans-serif" font-weight="700" font-stretch="semi-condensed" font-size="64" transform="matrix(1 0 0 1 1277.51 1334)">Product Organization</text></g><g><path d="M338 2848 426 2848" stroke="#156082" stroke-width="10.3125" stroke-linecap="round" stroke-linejoin="round" stroke-miterlimit="10" fill="none" fill-rule="evenodd"/></g><g><text fill="#595959" font-family="Aptos Narrow,Aptos Narrow_MSFontService,sans-serif" font-weight="400" font-stretch="semi-condensed" font-size="41" transform="matrix(1 0 0 1 434.793 2860)">Product Org Team Target</text></g><g><path d="M906.5 2848.5 994.5 2848.5" stroke="#E97132" stroke-width="9.16667" stroke-linecap="round" stroke-linejoin="round" stroke-miterlimit="10" fill="none" fill-rule="evenodd"/></g><g><text fill="#595959" font-family="Aptos Narrow,Aptos Narrow_MSFontService,sans-serif" font-weight="400" font-stretch="semi-condensed" font-size="41" transform="matrix(1 0 0 1 1003.86 2860)">Leslie Lam Score</text></g><g><path d="M1349.5 2848.5 1437.5 2848.5" stroke="#196B24" stroke-width="9.16667" stroke-linecap="round" stroke-linejoin="round" stroke-miterlimit="10" fill="none" fill-rule="evenodd"/></g><g><text fill="#595959" font-family="Aptos Narrow,Aptos Narrow_MSFontService,sans-serif" font-weight="400" font-stretch="semi-condensed" font-size="41" transform="matrix(1 0 0 1 1447.18 2860)">Kim Mikalowsky Score</text></g><g><path d="M1877.5 2848.5 1965.5 2848.5" stroke="#0F9ED5" stroke-width="9.16667" stroke-linecap="round" stroke-linejoin="round" stroke-miterlimit="10" fill="none" fill-rule="evenodd"/></g><g><text fill="#595959" font-family="Aptos Narrow,Aptos Narrow_MSFontService,sans-serif" font-weight="400" font-stretch="semi-condensed" font-size="41" transform="matrix(1 0 0 1 1975.24 2860)">Steve Trimmell Score</text></g><g><path d="M2389.5 2848.5 2477.5 2848.5" stroke="#A02B93" stroke-width="9.16667" stroke-linecap="round" stroke-linejoin="round" stroke-miterlimit="10" fill="none" fill-rule="evenodd"/></g><g><text fill="#595959" font-family="Aptos Narrow,Aptos Narrow_MSFontService,sans-serif" font-weight="400" font-stretch="semi-condensed" font-size="41" transform="matrix(1 0 0 1 2486.35 2860)">Jamie Burier Score</text></g><rect x="125.5" y="1239.5" width="2861" height="1675" stroke="#D9D9D9" stroke-width="3.4375" stroke-linejoin="round" stroke-miterlimit="10" fill="none"/></g></svg>