<svg width="2306" height="1524" xmlns="http://www.w3.org/2000/svg" xmlns:xlink="http://www.w3.org/1999/xlink" xml:space="preserve" overflow="hidden"><defs><clipPath id="clip0"><rect x="446" y="59" width="2306" height="1524"/></clipPath></defs><g clip-path="url(#clip0)" transform="translate(-446 -59)"><rect x="447" y="60.0002" width="2303" height="1521" fill="#FFFFFF"/><g><path d="M1598.55 715.524 1632.55 721.524M1632.55 721.524 1664.55 737.524M1664.55 737.524 1688.56 762.525M1688.56 762.525 1704.56 793.526M1704.56 793.526 1710.56 827.527M1710.56 827.527 1704.56 862.528M1704.56 862.528 1688.56 893.53M1688.56 893.53 1664.55 918.53M1664.55 918.53 1632.55 934.531M1632.55 934.531 1598.55 939.531M1598.55 939.531 1563.55 934.531M1563.55 934.531 1532.55 918.53M1532.55 918.53 1507.55 893.53M1507.55 893.53 1492.55 862.528M1492.55 862.528 1486.55 827.527M1486.55 827.527 1492.55 793.526M1492.55 793.526 1507.55 762.525M1507.55 762.525 1532.55 737.524M1532.55 737.524 1563.55 721.524M1563.55 721.524 1598.55 715.524M1598.55 604.52 1667.55 615.52M1667.55 615.52 1729.56 646.521M1729.56 646.521 1779.56 696.523M1779.56 696.523 1810.56 758.525M1810.56 758.525 1821.56 827.527M1821.56 827.527 1810.56 896.53M1810.56 896.53 1779.56 959.532M1779.56 959.532 1729.56 1008.53M1729.56 1008.53 1667.55 1040.53M1667.55 1040.53 1598.55 1051.53M1598.55 1051.53 1529.55 1040.53M1529.55 1040.53 1467.55 1008.53M1467.55 1008.53 1417.55 959.532M1417.55 959.532 1385.55 896.53M1385.55 896.53 1374.55 827.527M1374.55 827.527 1385.55 758.525M1385.55 758.525 1417.55 696.523M1417.55 696.523 1467.55 646.521M1467.55 646.521 1529.55 615.52M1529.55 615.52 1598.55 604.52M1598.55 492.516 1701.56 508.517M1701.56 508.517 1795.56 556.518M1795.56 556.518 1869.56 630.521M1869.56 630.521 1917.56 724.524M1917.56 724.524 1933.56 827.527M1933.56 827.527 1917.56 931.531M1917.56 931.531 1869.56 1024.53M1869.56 1024.53 1795.56 1099.54M1795.56 1099.54 1701.56 1146.54M1701.56 1146.54 1598.55 1163.54M1598.55 1163.54 1494.55 1146.54M1494.55 1146.54 1401.55 1099.54M1401.55 1099.54 1327.54 1024.53M1327.54 1024.53 1279.54 931.531M1279.54 931.531 1263.54 827.527M1263.54 827.527 1279.54 724.524M1279.54 724.524 1327.54 630.521M1327.54 630.521 1401.55 556.518M1401.55 556.518 1494.55 508.517M1494.55 508.517 1598.55 492.516M1598.55 380.513 1736.56 402.513M1736.56 402.513 1861.56 466.516M1861.56 466.516 1960.56 564.519M1960.56 564.519 2023.57 689.523M2023.57 689.523 2045.57 827.527M2045.57 827.527 2023.57 965.532M2023.57 965.532 1960.56 1090.54M1960.56 1090.54 1861.56 1189.54M1861.56 1189.54 1736.56 1252.54M1736.56 1252.54 1598.55 1274.54M1598.55 1274.54 1460.55 1252.54M1460.55 1252.54 1335.54 1189.54M1335.54 1189.54 1236.54 1090.54M1236.54 1090.54 1173.54 965.532M1173.54 965.532 1151.54 827.527M1151.54 827.527 1173.54 689.523M1173.54 689.523 1236.54 564.519M1236.54 564.519 1335.54 466.516M1335.54 466.516 1460.55 402.513M1460.55 402.513 1598.55 380.513M1598.55 268.5 1771.56 296.51M1771.56 296.51 1926.56 375.513M1926.56 375.513 2050.57 499.517M2050.57 499.517 2129.57 655.522M2129.57 655.522 2157.5 827.527M2157.5 827.527 2129.57 1000.53M2129.57 1000.53 2050.57 1156.54M2050.57 1156.54 1926.56 1279.54M1926.56 1279.54 1771.56 1359.54M1771.56 1359.54 1598.55 1386.5M1598.55 1386.5 1425.55 1359.54M1425.55 1359.54 1269.54 1279.54M1269.54 1279.54 1146.54 1156.54M1146.54 1156.54 1066.54 1000.53M1066.54 1000.53 1039.5 827.527M1039.5 827.527 1066.54 655.522M1066.54 655.522 1146.54 499.517M1146.54 499.517 1269.54 375.513M1269.54 375.513 1425.55 296.51M1425.55 296.51 1598.55 268.5" stroke="#D9D9D9" stroke-width="3.4375" stroke-linejoin="round" stroke-miterlimit="10" fill="none"/></g><g><path d="M1598.55 827.527 1598.55 268.5M1598.55 827.527 1771.56 296.51M1598.55 827.527 1926.56 375.513M1598.55 827.527 2050.57 499.517M1598.55 827.527 2129.57 655.522M1598.55 827.527 2157.5 827.527M1598.55 827.527 2129.57 1000.53M1598.55 827.527 2050.57 1156.54M1598.55 827.527 1926.56 1279.54M1598.55 827.527 1771.56 1359.54M1598.55 827.527 1598.55 1386.5M1598.55 827.527 1425.55 1359.54M1598.55 827.527 1269.54 1279.54M1598.55 827.527 1146.54 1156.54M1598.55 827.527 1066.54 1000.53M1598.55 827.527 1039.5 827.527M1598.55 827.527 1066.54 655.522M1598.55 827.527 1146.54 499.517M1598.55 827.527 1269.54 375.513M1598.55 827.527 1425.55 296.51M1598.55 827.527 1598.55 268.5" stroke="#D9D9D9" stroke-width="3.4375" stroke-linejoin="round" stroke-miterlimit="10" fill="none"/></g><g><rect x="1536" y="803" width="21" height="49.9998" fill="#FFFFFF"/></g><g><rect x="1536" y="691" width="21" height="50.0002" fill="#FFFFFF"/></g><g><rect x="1536" y="579" width="21" height="50.0002" fill="#FFFFFF"/></g><g><rect x="1536" y="467" width="21" height="50.9998" fill="#FFFFFF"/></g><g><rect x="1536" y="356" width="21" height="49.9998" fill="#FFFFFF"/></g><g><rect x="1536" y="244" width="21" height="49.9998" fill="#FFFFFF"/></g><g><path d="M1425.55 296.51 1598.55 268.5 1771.56 296.51 1926.56 375.513 2050.57 499.517 2129.57 655.522 2157.5 827.527 2129.57 1000.53 2050.57 1156.54 1926.56 1279.54 1771.56 1359.54 1598.55 1386.5 1425.55 1359.54 1269.54 1279.54 1146.54 1156.54 1066.54 1000.53 1039.5 827.527 1066.54 655.522 1146.54 499.517 1269.54 375.513 1425.55 296.51" stroke="#4F81BD" stroke-width="6.875" stroke-linecap="round" stroke-linejoin="round" stroke-miterlimit="10" fill="none"/></g><g><path d="M1529.55 615.52 1598.55 604.52 1701.56 508.5 1795.56 556.518 1869.56 630.521 1917.56 724.524 1821.56 827.527 1917.56 931.531 1960.5 1090.54 1795.56 1099.54 1701.56 1146.54 1598.55 1163.5 1494.55 1146.54 1401.55 1099.54 1417.55 959.532 1279.54 931.531 1263.5 827.527 1385.55 758.525 1417.55 696.523 1467.55 646.521 1529.55 615.52" stroke="#F79646" stroke-width="6.875" stroke-linecap="round" stroke-linejoin="round" stroke-miterlimit="10" fill="none"/></g><g><rect x="1536" y="803" width="21" height="49.9998" fill="#FFFFFF"/></g><g><text fill="#7F7F7F" font-family="Calibri,Calibri_MSFontService,sans-serif" font-weight="400" font-size="41" transform="matrix(1 0 0 1 1535.74 842)">0</text></g><g><rect x="1536" y="691" width="21" height="50.0002" fill="#FFFFFF"/></g><g><text fill="#7F7F7F" font-family="Calibri,Calibri_MSFontService,sans-serif" font-weight="400" font-size="41" transform="matrix(1 0 0 1 1535.74 730)">1</text></g><g><rect x="1536" y="579" width="21" height="50.0002" fill="#FFFFFF"/></g><g><text fill="#7F7F7F" font-family="Calibri,Calibri_MSFontService,sans-serif" font-weight="400" font-size="41" transform="matrix(1 0 0 1 1535.74 618)">2</text></g><g><rect x="1536" y="467" width="21" height="50.9998" fill="#FFFFFF"/></g><g><text fill="#7F7F7F" font-family="Calibri,Calibri_MSFontService,sans-serif" font-weight="400" font-size="41" transform="matrix(1 0 0 1 1535.74 506)">3</text></g><g><rect x="1536" y="356" width="21" height="49.9998" fill="#FFFFFF"/></g><g><text fill="#7F7F7F" font-family="Calibri,Calibri_MSFontService,sans-serif" font-weight="400" font-size="41" transform="matrix(1 0 0 1 1535.74 395)">4</text></g><g><rect x="1536" y="244" width="21" height="49.9998" fill="#FFFFFF"/></g><g><text fill="#7F7F7F" font-family="Calibri,Calibri_MSFontService,sans-serif" font-weight="400" font-size="41" transform="matrix(1 0 0 1 1535.74 283)">5</text></g><g><text fill="#595959" font-family="Calibri,Calibri_MSFontService,sans-serif" font-weight="400" font-size="41" transform="matrix(1 0 0 1 1367.96 231)">AI Enablement &amp; Readiness</text></g><g><text fill="#595959" font-family="Calibri,Calibri_MSFontService,sans-serif" font-weight="400" font-size="41" transform="matrix(1 0 0 1 1778.03 287)">Automation-First Quality</text></g><g><text fill="#595959" font-family="Calibri,Calibri_MSFontService,sans-serif" font-weight="400" font-size="41" transform="matrix(1 0 0 1 1940.05 369)">Backlog Prioritization Discipline</text></g><g><text fill="#595959" font-family="Calibri,Calibri_MSFontService,sans-serif" font-weight="400" font-size="41" transform="matrix(1 0 0 1 2068.62 473)">Backlog Readiness &amp;</text></g><g><text fill="#595959" font-family="Calibri,Calibri_MSFontService,sans-serif" font-weight="400" font-size="41" transform="matrix(1 0 0 1 2139.46 523)">Governance</text></g><g><text fill="#595959" font-family="Calibri,Calibri_MSFontService,sans-serif" font-weight="400" font-size="41" transform="matrix(1 0 0 1 2151.17 660)">Backlog Refinement Strategy</text></g><g><text fill="#595959" font-family="Calibri,Calibri_MSFontService,sans-serif" font-weight="400" font-size="41" transform="matrix(1 0 0 1 2179.62 839)">Burndown-Driven Predictability</text></g><g><text fill="#595959" font-family="Calibri,Calibri_MSFontService,sans-serif" font-weight="400" font-size="41" transform="matrix(1 0 0 1 2151.17 1019)">Change Adoption Capability</text></g><g><text fill="#595959" font-family="Calibri,Calibri_MSFontService,sans-serif" font-weight="400" font-size="41" transform="matrix(1 0 0 1 2068.62 1181)">Continuous Improvement</text></g><g><text fill="#595959" font-family="Calibri,Calibri_MSFontService,sans-serif" font-weight="400" font-size="41" transform="matrix(1 0 0 1 1940.05 1284)">Definition of Ready &amp; Done</text></g><g><text fill="#595959" font-family="Calibri,Calibri_MSFontService,sans-serif" font-weight="400" font-size="41" transform="matrix(1 0 0 1 2067.81 1335)">Governance</text></g><g><text fill="#595959" font-family="Calibri,Calibri_MSFontService,sans-serif" font-weight="400" font-size="41" transform="matrix(1 0 0 1 1778.03 1392)">Demo Governance &amp; Outcomes</text></g><g><text fill="#595959" font-family="Calibri,Calibri_MSFontService,sans-serif" font-weight="400" font-size="41" transform="matrix(1 0 0 1 1364.17 1448)">Flow Metrics &amp; Impediment</text></g><g><text fill="#595959" font-family="Calibri,Calibri_MSFontService,sans-serif" font-weight="400" font-size="41" transform="matrix(1 0 0 1 1485.74 1498)">Management</text></g><g><text fill="#595959" font-family="Calibri,Calibri_MSFontService,sans-serif" font-weight="400" font-size="41" transform="matrix(1 0 0 1 950.309 1367)">Flow Metrics &amp; Impediment</text></g><g><text fill="#595959" font-family="Calibri,Calibri_MSFontService,sans-serif" font-weight="400" font-size="41" transform="matrix(1 0 0 1 1114.08 1417)">Tracking</text></g><g><text fill="#595959" font-family="Calibri,Calibri_MSFontService,sans-serif" font-weight="400" font-size="41" transform="matrix(1 0 0 1 789.441 1310)">KPI Governance &amp; Adoption</text></g><g><text fill="#595959" font-family="Calibri,Calibri_MSFontService,sans-serif" font-weight="400" font-size="41" transform="matrix(1 0 0 1 718.501 1181)">PI &amp; Sprint Commitment</text></g><g><text fill="#595959" font-family="Calibri,Calibri_MSFontService,sans-serif" font-weight="400" font-size="41" transform="matrix(1 0 0 1 682.587 1019)">PI Planning Readiness</text></g><g><text fill="#595959" font-family="Calibri,Calibri_MSFontService,sans-serif" font-weight="400" font-size="41" transform="matrix(1 0 0 1 572.604 839)">Risk Management (ROAM)</text></g><g><text fill="#595959" font-family="Calibri,Calibri_MSFontService,sans-serif" font-weight="400" font-size="41" transform="matrix(1 0 0 1 543.367 635)">Roadmap-Driven Alignment &amp;</text></g><g><text fill="#595959" font-family="Calibri,Calibri_MSFontService,sans-serif" font-weight="400" font-size="41" transform="matrix(1 0 0 1 712.344 685)">Execution</text></g><g><text fill="#595959" font-family="Calibri,Calibri_MSFontService,sans-serif" font-weight="400" font-size="41" transform="matrix(1 0 0 1 691.987 498)">Root Cause Analysis (RCA)</text></g><g><text fill="#595959" font-family="Calibri,Calibri_MSFontService,sans-serif" font-weight="400" font-size="41" transform="matrix(1 0 0 1 897.836 344)">Story Quality (INVEST</text></g><g><text fill="#595959" font-family="Calibri,Calibri_MSFontService,sans-serif" font-weight="400" font-size="41" transform="matrix(1 0 0 1 972.718 394)">Compliance)</text></g><g><text fill="#595959" font-family="Calibri,Calibri_MSFontService,sans-serif" font-weight="400" font-size="41" transform="matrix(1 0 0 1 962.387 287)">Vendor Pre-PI Participation</text></g><g><text fill="#595959" font-family="Calibri,Calibri_MSFontService,sans-serif" font-weight="700" font-size="64" transform="matrix(1 0 0 1 1154.53 141)">Parameter Score: Planamation </text></g><g><path d="M1273.5 1515.5 1361.5 1515.5" stroke="#4F81BD" stroke-width="6.875" stroke-linecap="round" stroke-linejoin="round" stroke-miterlimit="10" fill="none" fill-rule="evenodd"/></g><g><text fill="#595959" font-family="Calibri,Calibri_MSFontService,sans-serif" font-weight="400" font-size="41" transform="matrix(1 0 0 1 1370.69 1527)">North Star</text></g><g><path d="M1600.5 1515.5 1688.5 1515.5" stroke="#F79646" stroke-width="6.875" stroke-linecap="round" stroke-linejoin="round" stroke-miterlimit="10" fill="none" fill-rule="evenodd"/></g><g><text fill="#595959" font-family="Calibri,Calibri_MSFontService,sans-serif" font-weight="400" font-size="41" transform="matrix(1 0 0 1 1697.64 1527)">Current Status</text></g><rect x="447.5" y="60.5" width="2303" height="1521" stroke="#D9D9D9" stroke-width="3.4375" stroke-linejoin="round" stroke-miterlimit="10" fill="none"/></g></svg>