<svg width="1653" height="1323" xmlns="http://www.w3.org/2000/svg" xmlns:xlink="http://www.w3.org/1999/xlink" xml:space="preserve" overflow="hidden"><defs><clipPath id="clip0"><rect x="2243" y="3740" width="1653" height="1323"/></clipPath></defs><g clip-path="url(#clip0)" transform="translate(-2243 -3740)"><rect x="2244" y="3741" width="1650" height="1320" fill="#FFFFFF"/><g><path d="M3069.6 4329.64 3097.6 4335.64M3097.6 4335.64 3121.6 4350.64M3121.6 4350.64 3139.6 4373.64M3139.6 4373.64 3146.6 4400.64M3146.6 4400.64 3144.6 4429.65M3144.6 4429.65 3131.6 4454.65M3131.6 4454.65 3110.6 4474.65M3110.6 4474.65 3083.6 4484.65M3083.6 4484.65 3054.6 4484.65M3054.6 4484.65 3027.6 4474.65M3027.6 4474.65 3006.6 4454.65M3006.6 4454.65 2993.6 4429.65M2993.6 4429.65 2991.6 4400.64M2991.6 4400.64 2999.6 4373.64M2999.6 4373.64 3016.6 4350.64M3016.6 4350.64 3040.6 4335.64M3040.6 4335.64 3069.6 4329.64M3069.6 4251.64 3125.6 4262.64M3125.6 4262.64 3174.6 4292.64M3174.6 4292.64 3208.61 4338.64M3208.61 4338.64 3224.61 4393.64M3224.61 4393.64 3219.61 4450.65M3219.61 4450.65 3193.6 4502.65M3193.6 4502.65 3151.6 4540.65M3151.6 4540.65 3097.6 4561.65M3097.6 4561.65 3040.6 4561.65M3040.6 4561.65 2986.6 4540.65M2986.6 4540.65 2944.6 4502.65M2944.6 4502.65 2918.6 4450.65M2918.6 4450.65 2913.6 4393.64M2913.6 4393.64 2929.6 4338.64M2929.6 4338.64 2963.6 4292.64M2963.6 4292.64 3012.6 4262.64M3012.6 4262.64 3069.6 4251.64M3069.6 4173.64 3153.6 4189.64M3153.6 4189.64 3226.61 4234.64M3226.61 4234.64 3278.61 4303.64M3278.61 4303.64 3302.61 4386.64M3302.61 4386.64 3294.61 4472.65M3294.61 4472.65 3256.61 4549.65M3256.61 4549.65 3192.6 4607.65M3192.6 4607.65 3112.6 4638.65M3112.6 4638.65 3026.6 4638.65M3026.6 4638.65 2945.6 4607.65M2945.6 4607.65 2882.59 4549.65M2882.59 4549.65 2843.59 4472.65M2843.59 4472.65 2835.59 4386.64M2835.59 4386.64 2859.59 4303.64M2859.59 4303.64 2911.6 4234.64M2911.6 4234.64 2984.6 4189.64M2984.6 4189.64 3069.6 4173.64M3069.6 4095.63 3181.6 4116.64M3181.6 4116.64 3279.61 4176.64M3279.61 4176.64 3348.61 4268.64M3348.61 4268.64 3380.61 4379.64M3380.61 4379.64 3369.61 4493.65M3369.61 4493.65 3318.61 4596.65M3318.61 4596.65 3233.61 4673.65M3233.61 4673.65 3126.6 4714.65M3126.6 4714.65 3011.6 4714.65M3011.6 4714.65 2904.6 4673.65M2904.6 4673.65 2819.59 4596.65M2819.59 4596.65 2768.59 4493.65M2768.59 4493.65 2757.59 4379.64M2757.59 4379.64 2789.59 4268.64M2789.59 4268.64 2858.59 4176.64M2858.59 4176.64 2956.6 4116.64M2956.6 4116.64 3069.6 4095.63M3069.6 4017.5 3210.61 4043.63M3210.61 4043.63 3332.61 4119.64M3332.61 4119.64 3418.61 4233.64M3418.61 4233.64 3458.5 4371.64M3458.5 4371.64 3444.61 4514.65M3444.61 4514.65 3380.61 4643.65M3380.61 4643.65 3274.61 4739.66M3274.61 4739.66 3140.6 4791.5M3140.6 4791.5 2997.6 4791.5M2997.6 4791.5 2863.59 4739.66M2863.59 4739.66 2757.59 4643.65M2757.59 4643.65 2693.59 4514.65M2693.59 4514.65 2680.5 4371.64M2680.5 4371.64 2719.59 4233.64M2719.59 4233.64 2805.59 4119.64M2805.59 4119.64 2928.6 4043.63M2928.6 4043.63 3069.6 4017.5" stroke="#D9D9D9" stroke-width="3.4375" stroke-linejoin="round" stroke-miterlimit="10" fill="none"/></g><g><path d="M3069.6 4407.65 3069.6 4017.5M3069.6 4407.65 3210.61 4043.63M3069.6 4407.65 3332.61 4119.64M3069.6 4407.65 3418.61 4233.64M3069.6 4407.65 3458.5 4371.64M3069.6 4407.65 3444.61 4514.65M3069.6 4407.65 3380.61 4643.65M3069.6 4407.65 3274.61 4739.66M3069.6 4407.65 3140.6 4791.5M3069.6 4407.65 2997.6 4791.5M3069.6 4407.65 2863.59 4739.66M3069.6 4407.65 2757.59 4643.65M3069.6 4407.65 2693.59 4514.65M3069.6 4407.65 2680.5 4371.64M3069.6 4407.65 2719.59 4233.64M3069.6 4407.65 2806.59 4119.64M3069.6 4407.65 2927.6 4043.63M3069.6 4407.65 3069.6 4017.5" stroke="#BFBFBF" stroke-width="3.4375" stroke-linejoin="round" stroke-miterlimit="10" fill="none"/></g><g><path d="M2927.6 4043.63 3069.6 4017.5 3210.61 4043.63 3332.61 4119.64 3418.61 4233.64 3458.5 4371.64 3444.61 4514.65 3380.61 4643.65 3274.61 4739.66 3140.6 4791.5 2997.6 4791.5 2863.59 4739.66 2757.59 4643.65 2693.59 4514.65 2680.5 4371.64 2719.59 4233.64 2806.59 4119.64 2927.6 4043.63" stroke="#156082" stroke-width="6.875" stroke-linecap="round" stroke-linejoin="round" stroke-miterlimit="10" fill="none"/></g><g><path d="M3080.7 4017.15C3080.7 4023.23 3075.77 4028.15 3069.7 4028.15 3063.62 4028.15 3058.7 4023.23 3058.7 4017.15 3058.7 4011.08 3063.62 4006.16 3069.7 4006.16 3075.77 4006.16 3080.7 4011.08 3080.7 4017.15Z" stroke="#156082" stroke-width="3.4375" stroke-linejoin="round" stroke-miterlimit="10" fill="#156082"/><path d="M3221.7 4043.15C3221.7 4049.23 3216.77 4054.15 3210.7 4054.15 3204.62 4054.15 3199.7 4049.23 3199.7 4043.15 3199.7 4037.08 3204.62 4032.16 3210.7 4032.16 3216.77 4032.16 3221.7 4037.08 3221.7 4043.15Z" stroke="#156082" stroke-width="3.4375" stroke-linejoin="round" stroke-miterlimit="10" fill="#156082"/><path d="M3343.7 4119.15C3343.7 4125.23 3338.77 4130.15 3332.7 4130.15 3326.62 4130.15 3321.7 4125.23 3321.7 4119.15 3321.7 4113.08 3326.62 4108.15 3332.7 4108.15 3338.77 4108.15 3343.7 4113.08 3343.7 4119.15Z" stroke="#156082" stroke-width="3.4375" stroke-linejoin="round" stroke-miterlimit="10" fill="#156082"/><path d="M3429.7 4233.15C3429.7 4239.23 3424.77 4244.15 3418.7 4244.15 3412.62 4244.15 3407.7 4239.23 3407.7 4233.15 3407.7 4227.08 3412.62 4222.15 3418.7 4222.15 3424.77 4222.15 3429.7 4227.08 3429.7 4233.15Z" stroke="#156082" stroke-width="3.4375" stroke-linejoin="round" stroke-miterlimit="10" fill="#156082"/><path d="M3469.7 4372.15C3469.7 4378.23 3464.77 4383.15 3458.7 4383.15 3452.62 4383.15 3447.7 4378.23 3447.7 4372.15 3447.7 4366.08 3452.62 4361.15 3458.7 4361.15 3464.77 4361.15 3469.7 4366.08 3469.7 4372.15Z" stroke="#156082" stroke-width="3.4375" stroke-linejoin="round" stroke-miterlimit="10" fill="#156082"/><path d="M3455.7 4514.15C3455.7 4520.23 3450.77 4525.15 3444.7 4525.15 3438.62 4525.15 3433.7 4520.23 3433.7 4514.15 3433.7 4508.08 3438.62 4503.15 3444.7 4503.15 3450.77 4503.15 3455.7 4508.08 3455.7 4514.15Z" stroke="#156082" stroke-width="3.4375" stroke-linejoin="round" stroke-miterlimit="10" fill="#156082"/><path d="M3391.7 4643.15C3391.7 4649.23 3386.77 4654.15 3380.7 4654.15 3374.62 4654.15 3369.7 4649.23 3369.7 4643.15 3369.7 4637.08 3374.62 4632.15 3380.7 4632.15 3386.77 4632.15 3391.7 4637.08 3391.7 4643.15Z" stroke="#156082" stroke-width="3.4375" stroke-linejoin="round" stroke-miterlimit="10" fill="#156082"/><path d="M3285.7 4740.15C3285.7 4746.23 3280.77 4751.15 3274.7 4751.15 3268.62 4751.15 3263.7 4746.23 3263.7 4740.15 3263.7 4734.08 3268.62 4729.15 3274.7 4729.15 3280.77 4729.15 3285.7 4734.08 3285.7 4740.15Z" stroke="#156082" stroke-width="3.4375" stroke-linejoin="round" stroke-miterlimit="10" fill="#156082"/><path d="M3151.7 4791.15C3151.7 4797.23 3146.77 4802.15 3140.7 4802.15 3134.62 4802.15 3129.7 4797.23 3129.7 4791.15 3129.7 4785.08 3134.62 4780.15 3140.7 4780.15 3146.77 4780.15 3151.7 4785.08 3151.7 4791.15Z" stroke="#156082" stroke-width="3.4375" stroke-linejoin="round" stroke-miterlimit="10" fill="#156082"/><path d="M3008.7 4791.15C3008.7 4797.23 3003.77 4802.15 2997.7 4802.15 2991.62 4802.15 2986.7 4797.23 2986.7 4791.15 2986.7 4785.08 2991.62 4780.15 2997.7 4780.15 3003.77 4780.15 3008.7 4785.08 3008.7 4791.15Z" stroke="#156082" stroke-width="3.4375" stroke-linejoin="round" stroke-miterlimit="10" fill="#156082"/><path d="M2874.7 4740.15C2874.7 4746.23 2869.77 4751.15 2863.7 4751.15 2857.62 4751.15 2852.7 4746.23 2852.7 4740.15 2852.7 4734.08 2857.62 4729.15 2863.7 4729.15 2869.77 4729.15 2874.7 4734.08 2874.7 4740.15Z" stroke="#156082" stroke-width="3.4375" stroke-linejoin="round" stroke-miterlimit="10" fill="#156082"/><path d="M2768.7 4643.15C2768.7 4649.23 2763.77 4654.15 2757.7 4654.15 2751.62 4654.15 2746.7 4649.23 2746.7 4643.15 2746.7 4637.08 2751.62 4632.15 2757.7 4632.15 2763.77 4632.15 2768.7 4637.08 2768.7 4643.15Z" stroke="#156082" stroke-width="3.4375" stroke-linejoin="round" stroke-miterlimit="10" fill="#156082"/><path d="M2704.7 4514.15C2704.7 4520.23 2699.77 4525.15 2693.7 4525.15 2687.62 4525.15 2682.7 4520.23 2682.7 4514.15 2682.7 4508.08 2687.62 4503.15 2693.7 4503.15 2699.77 4503.15 2704.7 4508.08 2704.7 4514.15Z" stroke="#156082" stroke-width="3.4375" stroke-linejoin="round" stroke-miterlimit="10" fill="#156082"/><path d="M2691.7 4372.15C2691.7 4378.23 2686.77 4383.15 2680.7 4383.15 2674.62 4383.15 2669.7 4378.23 2669.7 4372.15 2669.7 4366.08 2674.62 4361.15 2680.7 4361.15 2686.77 4361.15 2691.7 4366.08 2691.7 4372.15Z" stroke="#156082" stroke-width="3.4375" stroke-linejoin="round" stroke-miterlimit="10" fill="#156082"/><path d="M2730.7 4233.15C2730.7 4239.23 2725.77 4244.15 2719.7 4244.15 2713.62 4244.15 2708.7 4239.23 2708.7 4233.15 2708.7 4227.08 2713.62 4222.15 2719.7 4222.15 2725.77 4222.15 2730.7 4227.08 2730.7 4233.15Z" stroke="#156082" stroke-width="3.4375" stroke-linejoin="round" stroke-miterlimit="10" fill="#156082"/><path d="M2817.7 4119.15C2817.7 4125.23 2812.77 4130.15 2806.7 4130.15 2800.62 4130.15 2795.7 4125.23 2795.7 4119.15 2795.7 4113.08 2800.62 4108.15 2806.7 4108.15 2812.77 4108.15 2817.7 4113.08 2817.7 4119.15Z" stroke="#156082" stroke-width="3.4375" stroke-linejoin="round" stroke-miterlimit="10" fill="#156082"/><path d="M2939.7 4043.15C2939.7 4049.23 2934.77 4054.15 2928.7 4054.15 2922.62 4054.15 2917.7 4049.23 2917.7 4043.15 2917.7 4037.08 2922.62 4032.16 2928.7 4032.16 2934.77 4032.16 2939.7 4037.08 2939.7 4043.15Z" stroke="#156082" stroke-width="3.4375" stroke-linejoin="round" stroke-miterlimit="10" fill="#156082"/></g><g><path d="M2986.6 4194.64 3069.6 4138.64 3181.6 4116.5 3276.61 4180.64 3236.61 4324.64 3370.5 4379.64 3332.61 4482.65 3231.61 4530.65 3228.61 4665.65 3123.6 4696.5 3028.6 4622.65 2917.6 4652.65 2842.59 4578.65 2766.59 4493.65 2755.5 4378.64 2820.59 4283.64 2841.59 4157.64 2986.6 4194.64" stroke="#E97132" stroke-width="6.875" stroke-linecap="round" stroke-linejoin="round" stroke-miterlimit="10" fill="none"/></g><g><path d="M3080.7 4138.15C3080.7 4144.23 3075.77 4149.15 3069.7 4149.15 3063.62 4149.15 3058.7 4144.23 3058.7 4138.15 3058.7 4132.08 3063.62 4127.15 3069.7 4127.15 3075.77 4127.15 3080.7 4132.08 3080.7 4138.15Z" stroke="#E97132" stroke-width="3.4375" stroke-linejoin="round" stroke-miterlimit="10" fill="#E97132"/><path d="M3193.7 4116.15C3193.7 4122.23 3188.77 4127.15 3182.7 4127.15 3176.62 4127.15 3171.7 4122.23 3171.7 4116.15 3171.7 4110.08 3176.62 4105.15 3182.7 4105.15 3188.77 4105.15 3193.7 4110.08 3193.7 4116.15Z" stroke="#E97132" stroke-width="3.4375" stroke-linejoin="round" stroke-miterlimit="10" fill="#E97132"/><path d="M3287.7 4180.15C3287.7 4186.23 3282.77 4191.15 3276.7 4191.15 3270.62 4191.15 3265.7 4186.23 3265.7 4180.15 3265.7 4174.08 3270.62 4169.15 3276.7 4169.15 3282.77 4169.15 3287.7 4174.08 3287.7 4180.15Z" stroke="#E97132" stroke-width="3.4375" stroke-linejoin="round" stroke-miterlimit="10" fill="#E97132"/><path d="M3248.7 4324.15C3248.7 4330.23 3243.77 4335.15 3237.7 4335.15 3231.62 4335.15 3226.7 4330.23 3226.7 4324.15 3226.7 4318.08 3231.62 4313.15 3237.7 4313.15 3243.77 4313.15 3248.7 4318.08 3248.7 4324.15Z" stroke="#E97132" stroke-width="3.4375" stroke-linejoin="round" stroke-miterlimit="10" fill="#E97132"/><path d="M3381.7 4380.15C3381.7 4386.23 3376.77 4391.15 3370.7 4391.15 3364.62 4391.15 3359.7 4386.23 3359.7 4380.15 3359.7 4374.08 3364.62 4369.15 3370.7 4369.15 3376.77 4369.15 3381.7 4374.08 3381.7 4380.15Z" stroke="#E97132" stroke-width="3.4375" stroke-linejoin="round" stroke-miterlimit="10" fill="#E97132"/><path d="M3343.7 4483.15C3343.7 4489.23 3338.77 4494.15 3332.7 4494.15 3326.62 4494.15 3321.7 4489.23 3321.7 4483.15 3321.7 4477.08 3326.62 4472.15 3332.7 4472.15 3338.77 4472.15 3343.7 4477.08 3343.7 4483.15Z" stroke="#E97132" stroke-width="3.4375" stroke-linejoin="round" stroke-miterlimit="10" fill="#E97132"/><path d="M3242.7 4530.15C3242.7 4536.23 3237.77 4541.15 3231.7 4541.15 3225.62 4541.15 3220.7 4536.23 3220.7 4530.15 3220.7 4524.08 3225.62 4519.15 3231.7 4519.15 3237.77 4519.15 3242.7 4524.08 3242.7 4530.15Z" stroke="#E97132" stroke-width="3.4375" stroke-linejoin="round" stroke-miterlimit="10" fill="#E97132"/><path d="M3239.7 4665.15C3239.7 4671.23 3234.77 4676.15 3228.7 4676.15 3222.62 4676.15 3217.7 4671.23 3217.7 4665.15 3217.7 4659.08 3222.62 4654.15 3228.7 4654.15 3234.77 4654.15 3239.7 4659.08 3239.7 4665.15Z" stroke="#E97132" stroke-width="3.4375" stroke-linejoin="round" stroke-miterlimit="10" fill="#E97132"/><path d="M3134.7 4696.15C3134.7 4702.23 3129.77 4707.15 3123.7 4707.15 3117.62 4707.15 3112.7 4702.23 3112.7 4696.15 3112.7 4690.08 3117.62 4685.15 3123.7 4685.15 3129.77 4685.15 3134.7 4690.08 3134.7 4696.15Z" stroke="#E97132" stroke-width="3.4375" stroke-linejoin="round" stroke-miterlimit="10" fill="#E97132"/><path d="M3040.7 4623.15C3040.7 4629.23 3035.77 4634.15 3029.7 4634.15 3023.62 4634.15 3018.7 4629.23 3018.7 4623.15 3018.7 4617.08 3023.62 4612.15 3029.7 4612.15 3035.77 4612.15 3040.7 4617.08 3040.7 4623.15Z" stroke="#E97132" stroke-width="3.4375" stroke-linejoin="round" stroke-miterlimit="10" fill="#E97132"/><path d="M2928.7 4652.15C2928.7 4658.23 2923.77 4663.15 2917.7 4663.15 2911.62 4663.15 2906.7 4658.23 2906.7 4652.15 2906.7 4646.08 2911.62 4641.15 2917.7 4641.15 2923.77 4641.15 2928.7 4646.08 2928.7 4652.15Z" stroke="#E97132" stroke-width="3.4375" stroke-linejoin="round" stroke-miterlimit="10" fill="#E97132"/><path d="M2854.7 4578.15C2854.7 4584.23 2849.77 4589.15 2843.7 4589.15 2837.62 4589.15 2832.7 4584.23 2832.7 4578.15 2832.7 4572.08 2837.62 4567.15 2843.7 4567.15 2849.77 4567.15 2854.7 4572.08 2854.7 4578.15Z" stroke="#E97132" stroke-width="3.4375" stroke-linejoin="round" stroke-miterlimit="10" fill="#E97132"/><path d="M2778.7 4493.15C2778.7 4499.23 2773.77 4504.15 2767.7 4504.15 2761.62 4504.15 2756.7 4499.23 2756.7 4493.15 2756.7 4487.08 2761.62 4482.15 2767.7 4482.15 2773.77 4482.15 2778.7 4487.08 2778.7 4493.15Z" stroke="#E97132" stroke-width="3.4375" stroke-linejoin="round" stroke-miterlimit="10" fill="#E97132"/><path d="M2766.7 4378.15C2766.7 4384.23 2761.77 4389.15 2755.7 4389.15 2749.62 4389.15 2744.7 4384.23 2744.7 4378.15 2744.7 4372.08 2749.62 4367.15 2755.7 4367.15 2761.77 4367.15 2766.7 4372.08 2766.7 4378.15Z" stroke="#E97132" stroke-width="3.4375" stroke-linejoin="round" stroke-miterlimit="10" fill="#E97132"/><path d="M2831.7 4284.15C2831.7 4290.23 2826.77 4295.15 2820.7 4295.15 2814.62 4295.15 2809.7 4290.23 2809.7 4284.15 2809.7 4278.08 2814.62 4273.15 2820.7 4273.15 2826.77 4273.15 2831.7 4278.08 2831.7 4284.15Z" stroke="#E97132" stroke-width="3.4375" stroke-linejoin="round" stroke-miterlimit="10" fill="#E97132"/><path d="M2852.7 4157.15C2852.7 4163.23 2847.77 4168.15 2841.7 4168.15 2835.62 4168.15 2830.7 4163.23 2830.7 4157.15 2830.7 4151.08 2835.62 4146.15 2841.7 4146.15 2847.77 4146.15 2852.7 4151.08 2852.7 4157.15Z" stroke="#E97132" stroke-width="3.4375" stroke-linejoin="round" stroke-miterlimit="10" fill="#E97132"/><path d="M2997.7 4194.15C2997.7 4200.23 2992.77 4205.15 2986.7 4205.15 2980.62 4205.15 2975.7 4200.23 2975.7 4194.15 2975.7 4188.08 2980.62 4183.15 2986.7 4183.15 2992.77 4183.15 2997.7 4188.08 2997.7 4194.15Z" stroke="#E97132" stroke-width="3.4375" stroke-linejoin="round" stroke-miterlimit="10" fill="#E97132"/></g><g><text fill="#FFFFFF" font-family="Aptos Narrow,Aptos Narrow_MSFontService,sans-serif" font-weight="400" font-stretch="semi-condensed" font-size="41" transform="matrix(1 0 0 1 3006.5 4422)">0</text></g><g><text fill="#FFFFFF" font-family="Aptos Narrow,Aptos Narrow_MSFontService,sans-serif" font-weight="400" font-stretch="semi-condensed" font-size="41" transform="matrix(1 0 0 1 3006.5 4344)">1</text></g><g><text fill="#FFFFFF" font-family="Aptos Narrow,Aptos Narrow_MSFontService,sans-serif" font-weight="400" font-stretch="semi-condensed" font-size="41" transform="matrix(1 0 0 1 3006.5 4266)">2</text></g><g><text fill="#FFFFFF" font-family="Aptos Narrow,Aptos Narrow_MSFontService,sans-serif" font-weight="400" font-stretch="semi-condensed" font-size="41" transform="matrix(1 0 0 1 3006.5 4188)">3</text></g><g><text fill="#FFFFFF" font-family="Aptos Narrow,Aptos Narrow_MSFontService,sans-serif" font-weight="400" font-stretch="semi-condensed" font-size="41" transform="matrix(1 0 0 1 3006.5 4109)">4</text></g><g><text fill="#FFFFFF" font-family="Aptos Narrow,Aptos Narrow_MSFontService,sans-serif" font-weight="400" font-stretch="semi-condensed" font-size="41" transform="matrix(1 0 0 1 3006.5 4031)">5</text></g><g><text fill="#595959" font-family="Aptos Narrow,Aptos Narrow_MSFontService,sans-serif" font-weight="400" font-stretch="semi-condensed" font-size="41" transform="matrix(1 0 0 1 2877.1 3986)">Foundational Concepts</text></g><g><text fill="#595959" font-family="Aptos Narrow,Aptos Narrow_MSFontService,sans-serif" font-weight="400" font-stretch="semi-condensed" font-size="41" transform="matrix(1 0 0 1 3215.95 4016)">Preparation and</text></g><g><text fill="#595959" font-family="Aptos Narrow,Aptos Narrow_MSFontService,sans-serif" font-weight="400" font-stretch="semi-condensed" font-size="41" transform="matrix(1 0 0 1 3262.8 4066)">Standards</text></g><g><text fill="#595959" font-family="Aptos Narrow,Aptos Narrow_MSFontService,sans-serif" font-weight="400" font-stretch="semi-condensed" font-size="41" transform="matrix(1 0 0 1 3342.83 4094)">Backlog Management &amp;</text></g><g><text fill="#595959" font-family="Aptos Narrow,Aptos Narrow_MSFontService,sans-serif" font-weight="400" font-stretch="semi-condensed" font-size="41" transform="matrix(1 0 0 1 3440.38 4145)">Refinement</text></g><g><text fill="#595959" font-family="Aptos Narrow,Aptos Narrow_MSFontService,sans-serif" font-weight="400" font-stretch="semi-condensed" font-size="41" transform="matrix(1 0 0 1 3450.74 4213)">Estimation</text></g><g><text fill="#595959" font-family="Aptos Narrow,Aptos Narrow_MSFontService,sans-serif" font-weight="400" font-stretch="semi-condensed" font-size="41" transform="matrix(1 0 0 1 3432.8 4264)">Methodology</text></g><g><text fill="#595959" font-family="Aptos Narrow,Aptos Narrow_MSFontService,sans-serif" font-weight="400" font-stretch="semi-condensed" font-size="41" transform="matrix(1 0 0 1 3473.65 4382)">Sprint Planning</text></g><g><text fill="#595959" font-family="Aptos Narrow,Aptos Narrow_MSFontService,sans-serif" font-weight="400" font-stretch="semi-condensed" font-size="41" transform="matrix(1 0 0 1 3459.88 4531)">Daily Scrum</text></g><g><text fill="#595959" font-family="Aptos Narrow,Aptos Narrow_MSFontService,sans-serif" font-weight="400" font-stretch="semi-condensed" font-size="41" transform="matrix(1 0 0 1 3393.33 4664)">Execution</text></g><g><text fill="#595959" font-family="Aptos Narrow,Aptos Narrow_MSFontService,sans-serif" font-weight="400" font-stretch="semi-condensed" font-size="41" transform="matrix(1 0 0 1 3283 4765)">Sprint Review</text></g><g><text fill="#595959" font-family="Aptos Narrow,Aptos Narrow_MSFontService,sans-serif" font-weight="400" font-stretch="semi-condensed" font-size="41" transform="matrix(1 0 0 1 3143.85 4819)">Sprint Retrospection</text></g><g><text fill="#595959" font-family="Aptos Narrow,Aptos Narrow_MSFontService,sans-serif" font-weight="400" font-stretch="semi-condensed" font-size="41" transform="matrix(1 0 0 1 2619.63 4819)">Metrics and Monitoring</text></g><g><text fill="#595959" font-family="Aptos Narrow,Aptos Narrow_MSFontService,sans-serif" font-weight="400" font-stretch="semi-condensed" font-size="41" transform="matrix(1 0 0 1 2576.52 4765)">Quality Practices</text></g><g><text fill="#595959" font-family="Aptos Narrow,Aptos Narrow_MSFontService,sans-serif" font-weight="400" font-stretch="semi-condensed" font-size="41" transform="matrix(1 0 0 1 2504.2 4639)">Release and PI</text></g><g><text fill="#595959" font-family="Aptos Narrow,Aptos Narrow_MSFontService,sans-serif" font-weight="400" font-stretch="semi-condensed" font-size="41" transform="matrix(1 0 0 1 2553.43 4690)">Planning</text></g><g><text fill="#595959" font-family="Aptos Narrow,Aptos Narrow_MSFontService,sans-serif" font-weight="400" font-stretch="semi-condensed" font-size="41" transform="matrix(1 0 0 1 2416.53 4506)">Engineering and</text></g><g><text fill="#595959" font-family="Aptos Narrow,Aptos Narrow_MSFontService,sans-serif" font-weight="400" font-stretch="semi-condensed" font-size="41" transform="matrix(1 0 0 1 2482.54 4556)">DevOps</text></g><g><text fill="#595959" font-family="Aptos Narrow,Aptos Narrow_MSFontService,sans-serif" font-weight="400" font-stretch="semi-condensed" font-size="41" transform="matrix(1 0 0 1 2402.96 4382)">Team Dynamics</text></g><g><text fill="#595959" font-family="Aptos Narrow,Aptos Narrow_MSFontService,sans-serif" font-weight="400" font-stretch="semi-condensed" font-size="41" transform="matrix(1 0 0 1 2532.57 4239)">Innovation</text></g><g><text fill="#595959" font-family="Aptos Narrow,Aptos Narrow_MSFontService,sans-serif" font-weight="400" font-stretch="semi-condensed" font-size="41" transform="matrix(1 0 0 1 2437.19 4094)"> Leadership and Team</text></g><g><text fill="#595959" font-family="Aptos Narrow,Aptos Narrow_MSFontService,sans-serif" font-weight="400" font-stretch="semi-condensed" font-size="41" transform="matrix(1 0 0 1 2539.78 4145)">Structure</text></g><g><text fill="#595959" font-family="Aptos Narrow,Aptos Narrow_MSFontService,sans-serif" font-weight="400" font-stretch="semi-condensed" font-size="41" transform="matrix(1 0 0 1 2658.88 4041)">Gen AI Adoption</text></g><g><text fill="#595959" font-family="Aptos Narrow,Aptos Narrow_MSFontService,sans-serif" font-weight="700" font-stretch="semi-condensed" font-size="64" transform="matrix(1 0 0 1 2900.7 3835)">Planamation </text></g><g><path d="M2861.5 4994.5 2949.5 4994.5" stroke="#156082" stroke-width="6.875" stroke-linecap="round" stroke-linejoin="round" stroke-miterlimit="10" fill="none" fill-rule="evenodd"/></g><g><path d="M2916 4994.5C2916 5000.31 2911.07 5005.02 2905 5005.02 2898.92 5005.02 2894 5000.31 2894 4994.5 2894 4988.69 2898.92 4983.98 2905 4983.98 2911.07 4983.98 2916 4988.69 2916 4994.5Z" stroke="#156082" stroke-width="3.4375" stroke-linejoin="round" stroke-miterlimit="10" fill="#156082"/></g><g><text fill="#595959" font-family="Aptos Narrow,Aptos Narrow_MSFontService,sans-serif" font-weight="400" font-stretch="semi-condensed" font-size="41" transform="matrix(1 0 0 1 2958.84 5006)">Target</text></g><g><path d="M3100.5 4994.5 3188.5 4994.5" stroke="#E97132" stroke-width="6.875" stroke-linecap="round" stroke-linejoin="round" stroke-miterlimit="10" fill="none" fill-rule="evenodd"/></g><g><path d="M3155 4994.5C3155 5000.31 3150.07 5005.02 3144 5005.02 3137.93 5005.02 3133 5000.31 3133 4994.5 3133 4988.69 3137.93 4983.98 3144 4983.98 3150.07 4983.98 3155 4988.69 3155 4994.5Z" stroke="#E97132" stroke-width="3.4375" stroke-linejoin="round" stroke-miterlimit="10" fill="#E97132"/></g><g><text fill="#595959" font-family="Aptos Narrow,Aptos Narrow_MSFontService,sans-serif" font-weight="400" font-stretch="semi-condensed" font-size="41" transform="matrix(1 0 0 1 3198.21 5006)">Score</text></g><rect x="2244.5" y="3741.5" width="1650" height="1320" stroke="#D9D9D9" stroke-width="3.4375" stroke-linejoin="round" stroke-miterlimit="10" fill="none"/></g></svg>