<svg width="1412" height="1168" xmlns="http://www.w3.org/2000/svg" xmlns:xlink="http://www.w3.org/1999/xlink" xml:space="preserve" overflow="hidden"><defs><clipPath id="clip0"><rect x="1367" y="0" width="1412" height="1168"/></clipPath></defs><g clip-path="url(#clip0)" transform="translate(-1367 0)"><rect x="1368" y="1.00003" width="1409" height="1165" fill="#FFFFFF"/><g><path d="M2072.57 463.515 2131.57 497.517M2131.57 497.517 2131.57 565.519M2131.57 565.519 2072.57 599.52M2072.57 599.52 2013.57 565.519M2013.57 565.519 2013.57 497.517M2013.57 497.517 2072.57 463.515M2072.57 395.513 2190.57 463.515M2190.57 463.515 2190.57 599.52M2190.57 599.52 2072.57 667.522M2072.57 667.522 1954.56 599.52M1954.56 599.52 1954.56 463.515M1954.56 463.515 2072.57 395.513M2072.57 327.511 2249.57 429.514M2249.57 429.514 2249.57 633.521M2249.57 633.521 2072.57 735.524M2072.57 735.524 1895.56 633.521M1895.56 633.521 1895.56 429.514M1895.56 429.514 2072.57 327.511M2072.57 259.509 2308.58 395.513M2308.58 395.513 2308.58 667.522M2308.58 667.522 2072.57 803.526M2072.57 803.526 1836.56 667.522M1836.56 667.522 1836.56 395.513M1836.56 395.513 2072.57 259.509M2072.57 191.5 2367.5 361.512M2367.5 361.512 2367.5 701.523M2367.5 701.523 2072.57 871.5M2072.57 871.5 1778.5 701.523M1778.5 701.523 1778.5 361.512M1778.5 361.512 2072.57 191.5" stroke="#D9D9D9" stroke-width="3.4375" stroke-linejoin="round" stroke-miterlimit="10" fill="none"/></g><g><path d="M2072.57 531.518 2072.57 191.5M2072.57 531.518 2367.5 361.512M2072.57 531.518 2367.5 701.523M2072.57 531.518 2072.57 871.5M2072.57 531.518 1778.5 701.523M2072.57 531.518 1778.5 361.512M2072.57 531.518 2072.57 191.5" stroke="#D9D9D9" stroke-width="3.4375" stroke-linejoin="round" stroke-miterlimit="10" fill="none"/></g><g><path d="M1778.5 361.512 2072.57 191.5 2367.5 361.512 2367.5 701.523 2072.57 871.5 1778.5 701.523 1778.5 361.512" stroke="#156082" stroke-width="6.875" stroke-linecap="round" stroke-linejoin="round" stroke-miterlimit="10" fill="none"/></g><g><path d="M1954.56 463.515 2072.57 301.5 2249.57 429.514 2295.5 659.522 2072.57 776.5 1836.5 667.522 1954.56 463.515" stroke="#E97132" stroke-width="6.875" stroke-linecap="round" stroke-linejoin="round" stroke-miterlimit="10" fill="none"/></g><g><text fill="#595959" font-family="Aptos Narrow,Aptos Narrow_MSFontService,sans-serif" font-weight="400" font-stretch="semi-condensed" font-size="41" transform="matrix(1 0 0 1 2009.83 545)">0</text></g><g><text fill="#595959" font-family="Aptos Narrow,Aptos Narrow_MSFontService,sans-serif" font-weight="400" font-stretch="semi-condensed" font-size="41" transform="matrix(1 0 0 1 2009.83 477)">1</text></g><g><text fill="#595959" font-family="Aptos Narrow,Aptos Narrow_MSFontService,sans-serif" font-weight="400" font-stretch="semi-condensed" font-size="41" transform="matrix(1 0 0 1 2009.83 409)">2</text></g><g><text fill="#595959" font-family="Aptos Narrow,Aptos Narrow_MSFontService,sans-serif" font-weight="400" font-stretch="semi-condensed" font-size="41" transform="matrix(1 0 0 1 2009.83 341)">3</text></g><g><text fill="#595959" font-family="Aptos Narrow,Aptos Narrow_MSFontService,sans-serif" font-weight="400" font-stretch="semi-condensed" font-size="41" transform="matrix(1 0 0 1 2009.83 273)">4</text></g><g><text fill="#595959" font-family="Aptos Narrow,Aptos Narrow_MSFontService,sans-serif" font-weight="400" font-stretch="semi-condensed" font-size="41" transform="matrix(1 0 0 1 2009.83 205)">5</text></g><g><text fill="#595959" font-family="Aptos Narrow,Aptos Narrow_MSFontService,sans-serif" font-weight="400" font-stretch="semi-condensed" font-size="41" transform="matrix(1 0 0 1 1975.08 111)">Operational</text></g><g><text fill="#595959" font-family="Aptos Narrow,Aptos Narrow_MSFontService,sans-serif" font-weight="400" font-stretch="semi-condensed" font-size="41" transform="matrix(1 0 0 1 1918.47 162)">partnership quality</text></g><g><text fill="#595959" font-family="Aptos Narrow,Aptos Narrow_MSFontService,sans-serif" font-weight="400" font-stretch="semi-condensed" font-size="41" transform="matrix(1 0 0 1 2401.47 341)">Backlog &amp;</text></g><g><text fill="#595959" font-family="Aptos Narrow,Aptos Narrow_MSFontService,sans-serif" font-weight="400" font-stretch="semi-condensed" font-size="41" transform="matrix(1 0 0 1 2378.82 391)">Prioritization</text></g><g><text fill="#595959" font-family="Aptos Narrow,Aptos Narrow_MSFontService,sans-serif" font-weight="400" font-stretch="semi-condensed" font-size="41" transform="matrix(1 0 0 1 2428.82 694)">Execution &amp;</text></g><g><text fill="#595959" font-family="Aptos Narrow,Aptos Narrow_MSFontService,sans-serif" font-weight="400" font-stretch="semi-condensed" font-size="41" transform="matrix(1 0 0 1 2378.82 745)">Delivery Practices</text></g><g><text fill="#595959" font-family="Aptos Narrow,Aptos Narrow_MSFontService,sans-serif" font-weight="400" font-stretch="semi-condensed" font-size="41" transform="matrix(1 0 0 1 1942.19 924)">Value, Quality &amp;</text></g><g><text fill="#595959" font-family="Aptos Narrow,Aptos Narrow_MSFontService,sans-serif" font-weight="400" font-stretch="semi-condensed" font-size="41" transform="matrix(1 0 0 1 1992.23 974)">Feedback</text></g><g><text fill="#595959" font-family="Aptos Narrow,Aptos Narrow_MSFontService,sans-serif" font-weight="400" font-stretch="semi-condensed" font-size="41" transform="matrix(1 0 0 1 1469.6 669)">Team Capability &amp;</text></g><g><text fill="#595959" font-family="Aptos Narrow,Aptos Narrow_MSFontService,sans-serif" font-weight="400" font-stretch="semi-condensed" font-size="41" transform="matrix(1 0 0 1 1522.24 720)">Continuous</text></g><g><text fill="#595959" font-family="Aptos Narrow,Aptos Narrow_MSFontService,sans-serif" font-weight="400" font-stretch="semi-condensed" font-size="41" transform="matrix(1 0 0 1 1508.03 770)">Improvement</text></g><g><text fill="#595959" font-family="Aptos Narrow,Aptos Narrow_MSFontService,sans-serif" font-weight="400" font-stretch="semi-condensed" font-size="41" transform="matrix(1 0 0 1 1510.71 316)">Innovation, AI &amp;</text></g><g><text fill="#595959" font-family="Aptos Narrow,Aptos Narrow_MSFontService,sans-serif" font-weight="400" font-stretch="semi-condensed" font-size="41" transform="matrix(1 0 0 1 1585.05 366)">Future</text></g><g><text fill="#595959" font-family="Aptos Narrow,Aptos Narrow_MSFontService,sans-serif" font-weight="400" font-stretch="semi-condensed" font-size="41" transform="matrix(1 0 0 1 1525.16 416)">Opportunities</text></g><g><path d="M1536.5 1100.5 1624.5 1100.5" stroke="#156082" stroke-width="6.875" stroke-linecap="round" stroke-linejoin="round" stroke-miterlimit="10" fill="none" fill-rule="evenodd"/></g><g><text fill="#595959" font-family="Aptos Narrow,Aptos Narrow_MSFontService,sans-serif" font-weight="400" font-stretch="semi-condensed" font-size="41" transform="matrix(1 0 0 1 1634.18 1112)">Product Org Team Target</text></g><g><path d="M2119.5 1100.5 2207.5 1100.5" stroke="#E97132" stroke-width="6.875" stroke-linecap="round" stroke-linejoin="round" stroke-miterlimit="10" fill="none" fill-rule="evenodd"/></g><g><text fill="#595959" font-family="Aptos Narrow,Aptos Narrow_MSFontService,sans-serif" font-weight="400" font-stretch="semi-condensed" font-size="41" transform="matrix(1 0 0 1 2216.62 1112)">Indranil Mukharjee Score</text></g><rect x="1368.5" y="1.49987" width="1409" height="1165" stroke="#D9D9D9" stroke-width="3.4375" stroke-linejoin="round" stroke-miterlimit="10" fill="none"/></g></svg>