<svg width="2306" height="1524" xmlns="http://www.w3.org/2000/svg" xmlns:xlink="http://www.w3.org/1999/xlink" xml:space="preserve" overflow="hidden"><defs><clipPath id="clip0"><rect x="448" y="52" width="2306" height="1524"/></clipPath></defs><g clip-path="url(#clip0)" transform="translate(-448 -52)"><rect x="449" y="52.9999" width="2303" height="1521" fill="#FFFFFF"/><g><path d="M1600.55 709.523 1632.55 713.524M1632.55 713.524 1661.55 726.524M1661.55 726.524 1685.56 747.525M1685.56 747.525 1702.56 774.526M1702.56 774.526 1711.56 804.527M1711.56 804.527 1711.56 836.528M1711.56 836.528 1702.56 867.529M1702.56 867.529 1685.56 894.53M1685.56 894.53 1661.55 914.53M1661.55 914.53 1632.55 928.531M1632.55 928.531 1600.55 932.531M1600.55 932.531 1569.55 928.531M1569.55 928.531 1540.55 914.53M1540.55 914.53 1516.55 894.53M1516.55 894.53 1498.55 867.529M1498.55 867.529 1490.55 836.528M1490.55 836.528 1490.55 804.527M1490.55 804.527 1498.55 774.526M1498.55 774.526 1516.55 747.525M1516.55 747.525 1540.55 726.524M1540.55 726.524 1569.55 713.524M1569.55 713.524 1600.55 709.523M1600.55 597.52 1663.55 606.52M1663.55 606.52 1721.56 632.521M1721.56 632.521 1769.56 674.522M1769.56 674.522 1804.56 727.524M1804.56 727.524 1821.56 789.526M1821.56 789.526 1821.56 852.528M1821.56 852.528 1804.56 913.53M1804.56 913.53 1769.56 967.532M1769.56 967.532 1721.56 1008.53M1721.56 1008.53 1663.55 1035.53M1663.55 1035.53 1600.55 1044.53M1600.55 1044.53 1537.55 1035.53M1537.55 1035.53 1479.55 1008.53M1479.55 1008.53 1431.55 967.532M1431.55 967.532 1397.55 913.53M1397.55 913.53 1379.55 852.528M1379.55 852.528 1379.55 789.526M1379.55 789.526 1397.55 727.524M1397.55 727.524 1431.55 674.522M1431.55 674.522 1479.55 632.521M1479.55 632.521 1537.55 606.52M1537.55 606.52 1600.55 597.52M1600.55 485.516 1695.56 499.517M1695.56 499.517 1782.56 538.518M1782.56 538.518 1854.56 601.52M1854.56 601.52 1905.56 681.523M1905.56 681.523 1932.56 773.526M1932.56 773.526 1932.56 868.529M1932.56 868.529 1905.56 960.532M1905.56 960.532 1854.56 1040.53M1854.56 1040.53 1782.56 1103.54M1782.56 1103.54 1695.56 1142.54M1695.56 1142.54 1600.55 1156.54M1600.55 1156.54 1506.55 1142.54M1506.55 1142.54 1419.55 1103.54M1419.55 1103.54 1347.54 1040.53M1347.54 1040.53 1295.54 960.532M1295.54 960.532 1268.54 868.529M1268.54 868.529 1268.54 773.526M1268.54 773.526 1295.54 681.523M1295.54 681.523 1347.54 601.52M1347.54 601.52 1419.55 538.518M1419.55 538.518 1506.55 499.517M1506.55 499.517 1600.55 485.516M1600.55 373.512 1726.56 391.513M1726.56 391.513 1842.56 444.515M1842.56 444.515 1938.56 528.518M1938.56 528.518 2007.57 635.521M2007.57 635.521 2043.57 757.525M2043.57 757.525 2043.57 884.529M2043.57 884.529 2007.57 1006.53M2007.57 1006.53 1938.56 1113.54M1938.56 1113.54 1842.56 1197.54M1842.56 1197.54 1726.56 1249.54M1726.56 1249.54 1600.55 1268.54M1600.55 1268.54 1474.55 1249.54M1474.55 1249.54 1358.54 1197.54M1358.54 1197.54 1262.54 1113.54M1262.54 1113.54 1193.54 1006.53M1193.54 1006.53 1158.54 884.529M1158.54 884.529 1158.54 757.525M1158.54 757.525 1193.54 635.521M1193.54 635.521 1262.54 528.518M1262.54 528.518 1358.54 444.515M1358.54 444.515 1474.55 391.513M1474.55 391.513 1600.55 373.512M1600.55 261.5 1758.56 284.51M1758.56 284.51 1902.56 350.512M1902.56 350.512 2023.57 454.515M2023.57 454.515 2109.57 588.519M2109.57 588.519 2154.5 741.525M2154.5 741.525 2154.5 900.53M2154.5 900.53 2109.57 1053.53M2109.57 1053.53 2023.57 1186.54M2023.57 1186.54 1902.56 1291.54M1902.56 1291.54 1758.56 1357.54M1758.56 1357.54 1600.55 1379.5M1600.55 1379.5 1443.55 1357.54M1443.55 1357.54 1298.54 1291.54M1298.54 1291.54 1178.54 1186.54M1178.54 1186.54 1092.54 1053.53M1092.54 1053.53 1047.5 900.53M1047.5 900.53 1047.5 741.525M1047.5 741.525 1092.54 588.519M1092.54 588.519 1178.54 454.515M1178.54 454.515 1298.54 350.512M1298.54 350.512 1443.55 284.51M1443.55 284.51 1600.55 261.5" stroke="#D9D9D9" stroke-width="3.4375" stroke-linejoin="round" stroke-miterlimit="10" fill="none"/></g><g><path d="M1600.55 820.527 1600.55 261.5M1600.55 820.527 1758.56 284.51M1600.55 820.527 1902.56 350.512M1600.55 820.527 2023.57 454.515M1600.55 820.527 2109.57 588.519M1600.55 820.527 2154.5 741.525M1600.55 820.527 2154.5 900.53M1600.55 820.527 2109.57 1053.53M1600.55 820.527 2023.57 1186.54M1600.55 820.527 1902.56 1291.54M1600.55 820.527 1758.56 1357.54M1600.55 820.527 1600.55 1379.5M1600.55 820.527 1443.55 1357.54M1600.55 820.527 1298.54 1291.54M1600.55 820.527 1178.54 1186.54M1600.55 820.527 1092.54 1053.53M1600.55 820.527 1047.5 900.53M1600.55 820.527 1047.5 741.525M1600.55 820.527 1092.54 588.519M1600.55 820.527 1178.54 454.515M1600.55 820.527 1298.54 350.512M1600.55 820.527 1443.55 284.51M1600.55 820.527 1600.55 261.5" stroke="#D9D9D9" stroke-width="3.4375" stroke-linejoin="round" stroke-miterlimit="10" fill="none"/></g><g><rect x="1538" y="796" width="21" height="49.9998" fill="#FFFFFF"/></g><g><rect x="1538" y="684" width="21" height="49.9998" fill="#FFFFFF"/></g><g><rect x="1538" y="572" width="21" height="49.9998" fill="#FFFFFF"/></g><g><rect x="1538" y="460" width="21" height="51.0002" fill="#FFFFFF"/></g><g><rect x="1538" y="349" width="21" height="50.0002" fill="#FFFFFF"/></g><g><rect x="1538" y="237" width="21" height="50.0002" fill="#FFFFFF"/></g><g><path d="M1443.55 284.51 1600.55 261.5 1758.56 284.51 1902.56 350.512 2023.57 454.515 2109.57 588.519 2154.5 741.525 2154.5 900.53 2109.57 1053.53 2023.57 1186.54 1902.56 1291.54 1758.56 1357.54 1600.55 1379.5 1443.55 1357.54 1298.54 1291.54 1178.54 1186.54 1092.54 1053.53 1047.5 900.53 1047.5 741.525 1092.54 588.519 1178.54 454.515 1298.54 350.512 1443.55 284.51" stroke="#156082" stroke-width="6.875" stroke-linecap="round" stroke-linejoin="round" stroke-miterlimit="10" fill="none"/></g><g><path d="M1506.55 499.5 1600.55 597.52 1695.56 499.5 1782.56 538.518 1854.56 601.52 1905.56 681.523 1932.5 773.526 1932.5 868.529 1905.56 960.532 1854.56 1040.53 1782.56 1103.54 1695.56 1142.5 1600.55 1044.53 1537.55 1035.53 1479.55 1008.53 1347.54 1040.53 1295.5 960.532 1379.55 852.528 1379.55 789.526 1295.5 681.523 1347.54 601.52 1419.55 538.518 1506.55 499.5" stroke="#E97132" stroke-width="6.875" stroke-linecap="round" stroke-linejoin="round" stroke-miterlimit="10" fill="none"/></g><g><rect x="1538" y="796" width="21" height="49.9998" fill="#FFFFFF"/></g><g><text fill="#F2F2F2" font-family="Aptos Narrow,Aptos Narrow_MSFontService,sans-serif" font-weight="400" font-stretch="semi-condensed" font-size="41" transform="matrix(1 0 0 1 1538.03 835)">0</text></g><g><rect x="1538" y="684" width="21" height="49.9998" fill="#FFFFFF"/></g><g><text fill="#F2F2F2" font-family="Aptos Narrow,Aptos Narrow_MSFontService,sans-serif" font-weight="400" font-stretch="semi-condensed" font-size="41" transform="matrix(1 0 0 1 1538.03 723)">1</text></g><g><rect x="1538" y="572" width="21" height="49.9998" fill="#FFFFFF"/></g><g><text fill="#F2F2F2" font-family="Aptos Narrow,Aptos Narrow_MSFontService,sans-serif" font-weight="400" font-stretch="semi-condensed" font-size="41" transform="matrix(1 0 0 1 1538.03 611)">2</text></g><g><rect x="1538" y="460" width="21" height="51.0002" fill="#FFFFFF"/></g><g><text fill="#F2F2F2" font-family="Aptos Narrow,Aptos Narrow_MSFontService,sans-serif" font-weight="400" font-stretch="semi-condensed" font-size="41" transform="matrix(1 0 0 1 1538.03 499)">3</text></g><g><rect x="1538" y="349" width="21" height="50.0002" fill="#FFFFFF"/></g><g><text fill="#F2F2F2" font-family="Aptos Narrow,Aptos Narrow_MSFontService,sans-serif" font-weight="400" font-stretch="semi-condensed" font-size="41" transform="matrix(1 0 0 1 1538.03 388)">4</text></g><g><rect x="1538" y="237" width="21" height="50.0002" fill="#FFFFFF"/></g><g><text fill="#F2F2F2" font-family="Aptos Narrow,Aptos Narrow_MSFontService,sans-serif" font-weight="400" font-stretch="semi-condensed" font-size="41" transform="matrix(1 0 0 1 1538.03 276)">5</text></g><g><text fill="#595959" font-family="Aptos Narrow,Aptos Narrow_MSFontService,sans-serif" font-weight="400" font-stretch="semi-condensed" font-size="41" transform="matrix(1 0 0 1 1341.95 224)">Backlog Prioritization Discipline</text></g><g><text fill="#595959" font-family="Aptos Narrow,Aptos Narrow_MSFontService,sans-serif" font-weight="400" font-stretch="semi-condensed" font-size="41" transform="matrix(1 0 0 1 1764.49 275)">Continuous Improvement</text></g><g><text fill="#595959" font-family="Aptos Narrow,Aptos Narrow_MSFontService,sans-serif" font-weight="400" font-stretch="semi-condensed" font-size="41" transform="matrix(1 0 0 1 1915.07 318)">Definition of Ready &amp; Done</text></g><g><text fill="#595959" font-family="Aptos Narrow,Aptos Narrow_MSFontService,sans-serif" font-weight="400" font-stretch="semi-condensed" font-size="41" transform="matrix(1 0 0 1 2033.71 369)">Governance</text></g><g><text fill="#595959" font-family="Aptos Narrow,Aptos Narrow_MSFontService,sans-serif" font-weight="400" font-stretch="semi-condensed" font-size="41" transform="matrix(1 0 0 1 2040.09 452)">Early Engagement &amp; Readiness</text></g><g><text fill="#595959" font-family="Aptos Narrow,Aptos Narrow_MSFontService,sans-serif" font-weight="400" font-stretch="semi-condensed" font-size="41" transform="matrix(1 0 0 1 2129.54 566)">Early Feedback &amp; Learning</text></g><g><text fill="#595959" font-family="Aptos Narrow,Aptos Narrow_MSFontService,sans-serif" font-weight="400" font-stretch="semi-condensed" font-size="41" transform="matrix(1 0 0 1 2262.78 616)">Discipline</text></g><g><text fill="#595959" font-family="Aptos Narrow,Aptos Narrow_MSFontService,sans-serif" font-weight="400" font-stretch="semi-condensed" font-size="41" transform="matrix(1 0 0 1 2176.19 750)">Evidence-Based PI Objectives</text></g><g><text fill="#595959" font-family="Aptos Narrow,Aptos Narrow_MSFontService,sans-serif" font-weight="400" font-stretch="semi-condensed" font-size="41" transform="matrix(1 0 0 1 2176.19 915)">Flow Metrics</text></g><g><text fill="#595959" font-family="Aptos Narrow,Aptos Narrow_MSFontService,sans-serif" font-weight="400" font-stretch="semi-condensed" font-size="41" transform="matrix(1 0 0 1 2129.54 1074)">GenAI Adoption Roadmap</text></g><g><text fill="#595959" font-family="Aptos Narrow,Aptos Narrow_MSFontService,sans-serif" font-weight="400" font-stretch="semi-condensed" font-size="41" transform="matrix(1 0 0 1 2040.09 1213)">KPI Governance &amp; Adoption</text></g><g><text fill="#595959" font-family="Aptos Narrow,Aptos Narrow_MSFontService,sans-serif" font-weight="400" font-stretch="semi-condensed" font-size="41" transform="matrix(1 0 0 1 1915.07 1296)">Metric-Driven Execution</text></g><g><text fill="#595959" font-family="Aptos Narrow,Aptos Narrow_MSFontService,sans-serif" font-weight="400" font-stretch="semi-condensed" font-size="41" transform="matrix(1 0 0 1 2029.06 1347)">Discipline</text></g><g><text fill="#595959" font-family="Aptos Narrow,Aptos Narrow_MSFontService,sans-serif" font-weight="400" font-stretch="semi-condensed" font-size="41" transform="matrix(1 0 0 1 1764.49 1365)">Metrics Governance &amp;</text></g><g><text fill="#595959" font-family="Aptos Narrow,Aptos Narrow_MSFontService,sans-serif" font-weight="400" font-stretch="semi-condensed" font-size="41" transform="matrix(1 0 0 1 1845.5 1415)">Enablement</text></g><g><text fill="#595959" font-family="Aptos Narrow,Aptos Narrow_MSFontService,sans-serif" font-weight="400" font-stretch="semi-condensed" font-size="41" transform="matrix(1 0 0 1 1395.47 1441)">Outcome-Driven Backlog</text></g><g><text fill="#595959" font-family="Aptos Narrow,Aptos Narrow_MSFontService,sans-serif" font-weight="400" font-stretch="semi-condensed" font-size="41" transform="matrix(1 0 0 1 1515.27 1492)">Readiness</text></g><g><text fill="#595959" font-family="Aptos Narrow,Aptos Narrow_MSFontService,sans-serif" font-weight="400" font-stretch="semi-condensed" font-size="41" transform="matrix(1 0 0 1 1075.16 1390)">PI-to-Sprint Alignment</text></g><g><text fill="#595959" font-family="Aptos Narrow,Aptos Narrow_MSFontService,sans-serif" font-weight="400" font-stretch="semi-condensed" font-size="41" transform="matrix(1 0 0 1 859.752 1322)">Risk Management (ROAM)</text></g><g><text fill="#595959" font-family="Aptos Narrow,Aptos Narrow_MSFontService,sans-serif" font-weight="400" font-stretch="semi-condensed" font-size="41" transform="matrix(1 0 0 1 659.234 1213)">Roadmap Execution Alignment</text></g><g><text fill="#595959" font-family="Aptos Narrow,Aptos Narrow_MSFontService,sans-serif" font-weight="400" font-stretch="semi-condensed" font-size="41" transform="matrix(1 0 0 1 634.387 1074)">Root Cause Analysis (RCA)</text></g><g><text fill="#595959" font-family="Aptos Narrow,Aptos Narrow_MSFontService,sans-serif" font-weight="400" font-stretch="semi-condensed" font-size="41" transform="matrix(1 0 0 1 583.711 915)">Sprint Discipline &amp; Stability</text></g><g><text fill="#595959" font-family="Aptos Narrow,Aptos Narrow_MSFontService,sans-serif" font-weight="400" font-stretch="semi-condensed" font-size="41" transform="matrix(1 0 0 1 572.507 750)">Sprint Execution Ownership</text></g><g><text fill="#595959" font-family="Aptos Narrow,Aptos Narrow_MSFontService,sans-serif" font-weight="400" font-stretch="semi-condensed" font-size="41" transform="matrix(1 0 0 1 723.534 566)">Story Quality (INVEST</text></g><g><text fill="#595959" font-family="Aptos Narrow,Aptos Narrow_MSFontService,sans-serif" font-weight="400" font-stretch="semi-condensed" font-size="41" transform="matrix(1 0 0 1 791.173 616)">Compliance)</text></g><g><text fill="#595959" font-family="Aptos Narrow,Aptos Narrow_MSFontService,sans-serif" font-weight="400" font-stretch="semi-condensed" font-size="41" transform="matrix(1 0 0 1 726.45 452)">System Demo Governance</text></g><g><text fill="#595959" font-family="Aptos Narrow,Aptos Narrow_MSFontService,sans-serif" font-weight="400" font-stretch="semi-condensed" font-size="41" transform="matrix(1 0 0 1 869.146 343)">Technical Debt Discipline</text></g><g><text fill="#595959" font-family="Aptos Narrow,Aptos Narrow_MSFontService,sans-serif" font-weight="400" font-stretch="semi-condensed" font-size="41" transform="matrix(1 0 0 1 1012.1 249)">Test Automation &amp; Quality</text></g><g><text fill="#595959" font-family="Aptos Narrow,Aptos Narrow_MSFontService,sans-serif" font-weight="400" font-stretch="semi-condensed" font-size="41" transform="matrix(1 0 0 1 1128.5 300)">Engineering</text></g><g><text fill="#595959" font-family="Aptos Narrow,Aptos Narrow_MSFontService,sans-serif" font-weight="700" font-stretch="semi-condensed" font-size="64" transform="matrix(1 0 0 1 1306.2 147)">Parameter Score: AIris </text></g><g><path d="M1281.5 1508.5 1369.5 1508.5" stroke="#156082" stroke-width="6.875" stroke-linecap="round" stroke-linejoin="round" stroke-miterlimit="10" fill="none" fill-rule="evenodd"/></g><g><text fill="#595959" font-family="Aptos Narrow,Aptos Narrow_MSFontService,sans-serif" font-weight="400" font-stretch="semi-condensed" font-size="41" transform="matrix(1 0 0 1 1378.49 1520)">North Star</text></g><g><path d="M1600.5 1508.5 1688.5 1508.5" stroke="#E97132" stroke-width="6.875" stroke-linecap="round" stroke-linejoin="round" stroke-miterlimit="10" fill="none" fill-rule="evenodd"/></g><g><text fill="#595959" font-family="Aptos Narrow,Aptos Narrow_MSFontService,sans-serif" font-weight="400" font-stretch="semi-condensed" font-size="41" transform="matrix(1 0 0 1 1697.68 1520)">Current Status</text></g><rect x="449.5" y="53.5001" width="2303" height="1521" stroke="#D9D9D9" stroke-width="3.4375" stroke-linejoin="round" stroke-miterlimit="10" fill="none"/></g></svg>