<svg width="1401" height="1160" xmlns="http://www.w3.org/2000/svg" xmlns:xlink="http://www.w3.org/1999/xlink" xml:space="preserve" overflow="hidden"><defs><clipPath id="clip0"><rect x="3102" y="-1" width="1401" height="1160"/></clipPath></defs><g clip-path="url(#clip0)" transform="translate(-3102 1)"><rect x="3103" y="0" width="1398" height="1157" fill="#FFFFFF"/><g><path d="M3802.62 460.515 3853.63 484.516M3853.63 484.516 3866.63 540.518M3866.63 540.518 3830.63 585.519M3830.63 585.519 3773.62 585.519M3773.62 585.519 3737.62 540.518M3737.62 540.518 3750.62 484.516M3750.62 484.516 3802.62 460.515M3802.62 394.513 3904.63 443.515M3904.63 443.515 3930.63 555.518M3930.63 555.518 3859.63 644.521M3859.63 644.521 3744.62 644.521M3744.62 644.521 3673.62 555.518M3673.62 555.518 3699.62 443.515M3699.62 443.515 3802.62 394.513M3802.62 328.511 3956.63 402.513M3956.63 402.513 3994.63 569.519M3994.63 569.519 3887.63 703.523M3887.63 703.523 3716.62 703.523M3716.62 703.523 3609.62 569.519M3609.62 569.519 3647.62 402.513M3647.62 402.513 3802.62 328.511M3802.62 262.509 4007.63 361.512M4007.63 361.512 4058.63 584.519M4058.63 584.519 3916.63 763.525M3916.63 763.525 3687.62 763.525M3687.62 763.525 3545.62 584.519M3545.62 584.519 3596.62 361.512M3596.62 361.512 3802.62 262.509M3802.62 196.5 4059.63 320.511M4059.63 320.511 4123.5 599.52M4123.5 599.52 3944.63 822.5M3944.63 822.5 3659.62 822.527M3659.62 822.527 3481.5 599.52M3481.5 599.52 3544.62 320.511M3544.62 320.511 3802.62 196.5" stroke="#D9D9D9" stroke-width="3.4375" stroke-linejoin="round" stroke-miterlimit="10" fill="none"/></g><g><path d="M3802.62 525.517 3802.62 196.5M3802.62 525.517 4059.63 320.511M3802.62 525.517 4123.5 599.52M3802.62 525.517 3944.63 822.5M3802.62 525.517 3659.62 822.5M3802.62 525.517 3481.5 599.52M3802.62 525.517 3544.62 320.511M3802.62 525.517 3802.62 196.5" stroke="#BFBFBF" stroke-width="1.14583" stroke-linejoin="round" stroke-miterlimit="10" fill="none"/></g><g><path d="M3544.62 320.511 3802.62 196.5 4059.63 320.511 4123.5 599.52 3944.63 822.5 3659.62 822.5 3481.5 599.52 3544.62 320.511" stroke="#156082" stroke-width="6.875" stroke-linecap="round" stroke-linejoin="round" stroke-miterlimit="10" fill="none"/></g><g><path d="M3673.62 423.514 3802.62 288.5 3973.63 389.513 4026.5 577.519 3897.63 723.5 3725.62 684.523 3609.5 569.519 3673.62 423.514" stroke="#E97132" stroke-width="6.875" stroke-linecap="round" stroke-linejoin="round" stroke-miterlimit="10" fill="none"/></g><g><text fill="#595959" font-family="Aptos Narrow,Aptos Narrow_MSFontService,sans-serif" font-weight="400" font-stretch="semi-condensed" font-size="41" transform="matrix(1 0 0 1 3739.46 540)">0</text></g><g><text fill="#595959" font-family="Aptos Narrow,Aptos Narrow_MSFontService,sans-serif" font-weight="400" font-stretch="semi-condensed" font-size="41" transform="matrix(1 0 0 1 3739.46 474)">1</text></g><g><text fill="#595959" font-family="Aptos Narrow,Aptos Narrow_MSFontService,sans-serif" font-weight="400" font-stretch="semi-condensed" font-size="41" transform="matrix(1 0 0 1 3739.46 408)">2</text></g><g><text fill="#595959" font-family="Aptos Narrow,Aptos Narrow_MSFontService,sans-serif" font-weight="400" font-stretch="semi-condensed" font-size="41" transform="matrix(1 0 0 1 3739.46 342)">3</text></g><g><text fill="#595959" font-family="Aptos Narrow,Aptos Narrow_MSFontService,sans-serif" font-weight="400" font-stretch="semi-condensed" font-size="41" transform="matrix(1 0 0 1 3739.46 276)">4</text></g><g><text fill="#595959" font-family="Aptos Narrow,Aptos Narrow_MSFontService,sans-serif" font-weight="400" font-stretch="semi-condensed" font-size="41" transform="matrix(1 0 0 1 3739.46 211)">5</text></g><g><text fill="#595959" font-family="Aptos Narrow,Aptos Narrow_MSFontService,sans-serif" font-weight="400" font-stretch="semi-condensed" font-size="41" transform="matrix(1 0 0 1 3642.05 117)">Strategic Alignment</text></g><g><text fill="#595959" font-family="Aptos Narrow,Aptos Narrow_MSFontService,sans-serif" font-weight="400" font-stretch="semi-condensed" font-size="41" transform="matrix(1 0 0 1 3687.86 168)">and Roadmap</text></g><g><text fill="#595959" font-family="Aptos Narrow,Aptos Narrow_MSFontService,sans-serif" font-weight="400" font-stretch="semi-condensed" font-size="41" transform="matrix(1 0 0 1 4073.52 299)">Backlog and</text></g><g><text fill="#595959" font-family="Aptos Narrow,Aptos Narrow_MSFontService,sans-serif" font-weight="400" font-stretch="semi-condensed" font-size="41" transform="matrix(1 0 0 1 4069.84 349)">Prioritization</text></g><g><text fill="#595959" font-family="Aptos Narrow,Aptos Narrow_MSFontService,sans-serif" font-weight="400" font-stretch="semi-condensed" font-size="41" transform="matrix(1 0 0 1 4166.97 589)">Execution and</text></g><g><text fill="#595959" font-family="Aptos Narrow,Aptos Narrow_MSFontService,sans-serif" font-weight="400" font-stretch="semi-condensed" font-size="41" transform="matrix(1 0 0 1 4135.94 639)">Delivery Practices</text></g><g><text fill="#595959" font-family="Aptos Narrow,Aptos Narrow_MSFontService,sans-serif" font-weight="400" font-stretch="semi-condensed" font-size="41" transform="matrix(1 0 0 1 3950.69 821)">Value, Quality and</text></g><g><text fill="#595959" font-family="Aptos Narrow,Aptos Narrow_MSFontService,sans-serif" font-weight="400" font-stretch="semi-condensed" font-size="41" transform="matrix(1 0 0 1 4019.7 871)">Feedback</text></g><g><text fill="#595959" font-family="Aptos Narrow,Aptos Narrow_MSFontService,sans-serif" font-weight="400" font-stretch="semi-condensed" font-size="41" transform="matrix(1 0 0 1 3388.97 796)">Team Capability</text></g><g><text fill="#595959" font-family="Aptos Narrow,Aptos Narrow_MSFontService,sans-serif" font-weight="400" font-stretch="semi-condensed" font-size="41" transform="matrix(1 0 0 1 3390.67 846)">and Continuous</text></g><g><text fill="#595959" font-family="Aptos Narrow,Aptos Narrow_MSFontService,sans-serif" font-weight="400" font-stretch="semi-condensed" font-size="41" transform="matrix(1 0 0 1 3411.42 896)">Improvement</text></g><g><text fill="#595959" font-family="Aptos Narrow,Aptos Narrow_MSFontService,sans-serif" font-weight="400" font-stretch="semi-condensed" font-size="41" transform="matrix(1 0 0 1 3270.97 563)">Engineering</text></g><g><text fill="#595959" font-family="Aptos Narrow,Aptos Narrow_MSFontService,sans-serif" font-weight="400" font-stretch="semi-condensed" font-size="41" transform="matrix(1 0 0 1 3267.07 614)">DevOps and</text></g><g><text fill="#595959" font-family="Aptos Narrow,Aptos Narrow_MSFontService,sans-serif" font-weight="400" font-stretch="semi-condensed" font-size="41" transform="matrix(1 0 0 1 3265.63 664)">Architecture</text></g><g><text fill="#595959" font-family="Aptos Narrow,Aptos Narrow_MSFontService,sans-serif" font-weight="400" font-stretch="semi-condensed" font-size="41" transform="matrix(1 0 0 1 3251.73 274)">Innovation AI and</text></g><g><text fill="#595959" font-family="Aptos Narrow,Aptos Narrow_MSFontService,sans-serif" font-weight="400" font-stretch="semi-condensed" font-size="41" transform="matrix(1 0 0 1 3339.68 324)">Future</text></g><g><text fill="#595959" font-family="Aptos Narrow,Aptos Narrow_MSFontService,sans-serif" font-weight="400" font-stretch="semi-condensed" font-size="41" transform="matrix(1 0 0 1 3279.79 374)">Opportunities</text></g><g><path d="M3272.5 1090.5 3360.5 1090.5" stroke="#156082" stroke-width="6.875" stroke-linecap="round" stroke-linejoin="round" stroke-miterlimit="10" fill="none" fill-rule="evenodd"/></g><g><text fill="#595959" font-family="Aptos Narrow,Aptos Narrow_MSFontService,sans-serif" font-weight="400" font-stretch="semi-condensed" font-size="41" transform="matrix(1 0 0 1 3370.07 1102)">Product Org Team Target</text></g><g><path d="M3854.5 1090.5 3942.5 1090.5" stroke="#E97132" stroke-width="6.875" stroke-linecap="round" stroke-linejoin="round" stroke-miterlimit="10" fill="none" fill-rule="evenodd"/></g><g><text fill="#595959" font-family="Aptos Narrow,Aptos Narrow_MSFontService,sans-serif" font-weight="400" font-stretch="semi-condensed" font-size="41" transform="matrix(1 0 0 1 3951.73 1102)">Prashanth Prabhu Score</text></g><rect x="3103.5" y="0.499836" width="1398" height="1157" stroke="#D9D9D9" stroke-width="3.4375" stroke-linejoin="round" stroke-miterlimit="10" fill="none"/></g></svg>