<svg width="1653" height="1323" xmlns="http://www.w3.org/2000/svg" xmlns:xlink="http://www.w3.org/1999/xlink" xml:space="preserve" overflow="hidden"><defs><clipPath id="clip0"><rect x="15" y="1063" width="1653" height="1323"/></clipPath></defs><g clip-path="url(#clip0)" transform="translate(-15 -1063)"><rect x="16.0002" y="1064" width="1650" height="1320" fill="#FFFFFF"/><g><path d="M840.528 1652.55 868.529 1658.55M868.529 1658.55 893.53 1673.56M893.53 1673.56 910.53 1696.56M910.53 1696.56 918.53 1723.56M918.53 1723.56 915.53 1752.56M915.53 1752.56 903.53 1778.56M903.53 1778.56 881.529 1797.56M881.529 1797.56 855.528 1807.56M855.528 1807.56 826.527 1807.56M826.527 1807.56 799.526 1797.56M799.526 1797.56 778.526 1778.56M778.526 1778.56 765.525 1752.56M765.525 1752.56 762.525 1723.56M762.525 1723.56 770.526 1696.56M770.526 1696.56 788.526 1673.56M788.526 1673.56 812.527 1658.55M812.527 1658.55 840.528 1652.55M840.528 1574.55 897.53 1585.55M897.53 1585.55 945.531 1615.55M945.531 1615.55 980.532 1661.55M980.532 1661.55 996.533 1716.56M996.533 1716.56 990.533 1773.56M990.533 1773.56 965.532 1825.56M965.532 1825.56 922.53 1863.56M922.53 1863.56 869.529 1884.56M869.529 1884.56 811.527 1884.56M811.527 1884.56 758.525 1863.56M758.525 1863.56 716.524 1825.56M716.524 1825.56 690.523 1773.56M690.523 1773.56 685.523 1716.56M685.523 1716.56 700.523 1661.55M700.523 1661.55 735.524 1615.55M735.524 1615.55 784.526 1585.55M784.526 1585.55 840.528 1574.55M840.528 1496.55 925.531 1512.55M925.531 1512.55 998.533 1557.55M998.533 1557.55 1050.53 1626.55M1050.53 1626.55 1074.54 1709.56M1074.54 1709.56 1066.54 1795.56M1066.54 1795.56 1027.53 1872.56M1027.53 1872.56 964.532 1930.56M964.532 1930.56 883.529 1961.56M883.529 1961.56 797.526 1961.56M797.526 1961.56 717.524 1930.56M717.524 1930.56 653.522 1872.56M653.522 1872.56 615.52 1795.56M615.52 1795.56 607.52 1709.56M607.52 1709.56 630.521 1626.55M630.521 1626.55 682.523 1557.55M682.523 1557.55 756.525 1512.55M756.525 1512.55 840.528 1496.55M840.528 1418.55 953.531 1439.55M953.531 1439.55 1051.53 1500.55M1051.53 1500.55 1120.54 1591.55M1120.54 1591.55 1151.54 1702.56M1151.54 1702.56 1141.54 1816.56M1141.54 1816.56 1090.54 1919.56M1090.54 1919.56 1005.53 1996.57M1005.53 1996.57 898.53 2038.57M898.53 2038.57 783.526 2038.57M783.526 2038.57 676.522 1996.57M676.522 1996.57 591.52 1919.56M591.52 1919.56 540.518 1816.56M540.518 1816.56 529.518 1702.56M529.518 1702.56 561.519 1591.55M561.519 1591.55 630.521 1500.55M630.521 1500.55 727.524 1439.55M727.524 1439.55 840.528 1418.55M840.528 1340.5 981.532 1366.55M981.532 1366.55 1103.54 1442.55M1103.54 1442.55 1190.54 1556.55M1190.54 1556.55 1229.5 1694.56M1229.5 1694.56 1216.54 1837.56M1216.54 1837.56 1152.54 1966.56M1152.54 1966.56 1046.53 2063.57M1046.53 2063.57 912.53 2114.5M912.53 2114.5 768.525 2114.5M768.525 2114.5 635.521 2063.57M635.521 2063.57 529.518 1966.56M529.518 1966.56 465.515 1837.56M465.515 1837.56 451.5 1694.56M451.5 1694.56 491.516 1556.55M491.516 1556.55 577.519 1442.55M577.519 1442.55 699.523 1366.55M699.523 1366.55 840.528 1340.5" stroke="#D9D9D9" stroke-width="3.4375" stroke-linejoin="round" stroke-miterlimit="10" fill="none"/></g><g><path d="M840.528 1730.56 840.528 1340.5M840.528 1730.56 981.532 1366.55M840.528 1730.56 1103.54 1442.55M840.528 1730.56 1190.54 1556.55M840.528 1730.56 1229.5 1694.56M840.528 1730.56 1216.54 1837.56M840.528 1730.56 1152.54 1966.56M840.528 1730.56 1046.53 2063.57M840.528 1730.56 912.53 2114.5M840.528 1730.56 768.525 2114.5M840.528 1730.56 635.521 2063.57M840.528 1730.56 529.518 1966.56M840.528 1730.56 465.515 1837.56M840.528 1730.56 451.5 1694.56M840.528 1730.56 491.516 1556.55M840.528 1730.56 577.519 1442.55M840.528 1730.56 699.523 1366.55M840.528 1730.56 840.528 1340.5" stroke="#BFBFBF" stroke-width="3.4375" stroke-linejoin="round" stroke-miterlimit="10" fill="none"/></g><g><path d="M699.523 1366.55 840.528 1340.5 981.532 1366.55 1103.54 1442.55 1190.54 1556.55 1229.5 1694.56 1216.54 1837.56 1152.54 1966.56 1046.53 2063.57 912.53 2114.5 768.525 2114.5 635.521 2063.57 529.518 1966.56 465.515 1837.56 451.5 1694.56 491.516 1556.55 577.519 1442.55 699.523 1366.55" stroke="#156082" stroke-width="6.875" stroke-linecap="round" stroke-linejoin="round" stroke-miterlimit="10" fill="none"/></g><g><path d="M851.213 1340.16C851.213 1346.24 846.288 1351.16 840.213 1351.16 834.138 1351.16 829.214 1346.24 829.214 1340.16 829.214 1334.09 834.138 1329.16 840.213 1329.16 846.288 1329.16 851.213 1334.09 851.213 1340.16Z" stroke="#156082" stroke-width="3.4375" stroke-linejoin="round" stroke-miterlimit="10" fill="#156082"/><path d="M992.213 1366.16C992.213 1372.24 987.288 1377.16 981.213 1377.16 975.138 1377.16 970.214 1372.24 970.214 1366.16 970.214 1360.09 975.138 1355.16 981.213 1355.16 987.288 1355.16 992.213 1360.09 992.213 1366.16Z" stroke="#156082" stroke-width="3.4375" stroke-linejoin="round" stroke-miterlimit="10" fill="#156082"/><path d="M1114.21 1442.16C1114.21 1448.24 1109.29 1453.16 1103.21 1453.16 1097.14 1453.16 1092.21 1448.24 1092.21 1442.16 1092.21 1436.09 1097.14 1431.16 1103.21 1431.16 1109.29 1431.16 1114.21 1436.09 1114.21 1442.16Z" stroke="#156082" stroke-width="3.4375" stroke-linejoin="round" stroke-miterlimit="10" fill="#156082"/><path d="M1201.21 1556.16C1201.21 1562.24 1196.29 1567.16 1190.21 1567.16 1184.14 1567.16 1179.21 1562.24 1179.21 1556.16 1179.21 1550.09 1184.14 1545.16 1190.21 1545.16 1196.29 1545.16 1201.21 1550.09 1201.21 1556.16Z" stroke="#156082" stroke-width="3.4375" stroke-linejoin="round" stroke-miterlimit="10" fill="#156082"/><path d="M1240.21 1695.16C1240.21 1701.24 1235.29 1706.16 1229.21 1706.16 1223.14 1706.16 1218.21 1701.24 1218.21 1695.16 1218.21 1689.09 1223.14 1684.16 1229.21 1684.16 1235.29 1684.16 1240.21 1689.09 1240.21 1695.16Z" stroke="#156082" stroke-width="3.4375" stroke-linejoin="round" stroke-miterlimit="10" fill="#156082"/><path d="M1227.21 1837.16C1227.21 1843.24 1222.29 1848.16 1216.21 1848.16 1210.14 1848.16 1205.21 1843.24 1205.21 1837.16 1205.21 1831.09 1210.14 1826.16 1216.21 1826.16 1222.29 1826.16 1227.21 1831.09 1227.21 1837.16Z" stroke="#156082" stroke-width="3.4375" stroke-linejoin="round" stroke-miterlimit="10" fill="#156082"/><path d="M1163.21 1966.16C1163.21 1972.24 1158.29 1977.16 1152.21 1977.16 1146.14 1977.16 1141.21 1972.24 1141.21 1966.16 1141.21 1960.09 1146.14 1955.16 1152.21 1955.16 1158.29 1955.16 1163.21 1960.09 1163.21 1966.16Z" stroke="#156082" stroke-width="3.4375" stroke-linejoin="round" stroke-miterlimit="10" fill="#156082"/><path d="M1057.21 2063.16C1057.21 2069.24 1052.29 2074.16 1046.21 2074.16 1040.14 2074.16 1035.21 2069.24 1035.21 2063.16 1035.21 2057.09 1040.14 2052.16 1046.21 2052.16 1052.29 2052.16 1057.21 2057.09 1057.21 2063.16Z" stroke="#156082" stroke-width="3.4375" stroke-linejoin="round" stroke-miterlimit="10" fill="#156082"/><path d="M923.213 2114.16C923.213 2120.24 918.289 2125.16 912.214 2125.16 906.139 2125.16 901.214 2120.24 901.214 2114.16 901.214 2108.09 906.139 2103.16 912.214 2103.16 918.289 2103.16 923.213 2108.09 923.213 2114.16Z" stroke="#156082" stroke-width="3.4375" stroke-linejoin="round" stroke-miterlimit="10" fill="#156082"/><path d="M779.213 2114.16C779.213 2120.24 774.289 2125.16 768.214 2125.16 762.139 2125.16 757.214 2120.24 757.214 2114.16 757.214 2108.09 762.139 2103.16 768.214 2103.16 774.289 2103.16 779.213 2108.09 779.213 2114.16Z" stroke="#156082" stroke-width="3.4375" stroke-linejoin="round" stroke-miterlimit="10" fill="#156082"/><path d="M646.213 2063.16C646.213 2069.24 641.288 2074.16 635.214 2074.16 629.139 2074.16 624.214 2069.24 624.214 2063.16 624.214 2057.09 629.139 2052.16 635.214 2052.16 641.288 2052.16 646.213 2057.09 646.213 2063.16Z" stroke="#156082" stroke-width="3.4375" stroke-linejoin="round" stroke-miterlimit="10" fill="#156082"/><path d="M540.213 1966.16C540.213 1972.24 535.288 1977.16 529.213 1977.16 523.138 1977.16 518.214 1972.24 518.214 1966.16 518.214 1960.09 523.138 1955.16 529.213 1955.16 535.288 1955.16 540.213 1960.09 540.213 1966.16Z" stroke="#156082" stroke-width="3.4375" stroke-linejoin="round" stroke-miterlimit="10" fill="#156082"/><path d="M476.213 1837.16C476.213 1843.24 471.288 1848.16 465.213 1848.16 459.138 1848.16 454.214 1843.24 454.214 1837.16 454.214 1831.09 459.138 1826.16 465.213 1826.16 471.288 1826.16 476.213 1831.09 476.213 1837.16Z" stroke="#156082" stroke-width="3.4375" stroke-linejoin="round" stroke-miterlimit="10" fill="#156082"/><path d="M462.213 1695.16C462.213 1701.24 457.289 1706.16 451.214 1706.16 445.139 1706.16 440.214 1701.24 440.214 1695.16 440.214 1689.09 445.139 1684.16 451.214 1684.16 457.289 1684.16 462.213 1689.09 462.213 1695.16Z" stroke="#156082" stroke-width="3.4375" stroke-linejoin="round" stroke-miterlimit="10" fill="#156082"/><path d="M502.213 1556.16C502.213 1562.24 497.288 1567.16 491.214 1567.16 485.139 1567.16 480.214 1562.24 480.214 1556.16 480.214 1550.09 485.139 1545.16 491.214 1545.16 497.288 1545.16 502.213 1550.09 502.213 1556.16Z" stroke="#156082" stroke-width="3.4375" stroke-linejoin="round" stroke-miterlimit="10" fill="#156082"/><path d="M588.213 1442.16C588.213 1448.24 583.288 1453.16 577.213 1453.16 571.139 1453.16 566.214 1448.24 566.214 1442.16 566.214 1436.09 571.139 1431.16 577.213 1431.16 583.288 1431.16 588.213 1436.09 588.213 1442.16Z" stroke="#156082" stroke-width="3.4375" stroke-linejoin="round" stroke-miterlimit="10" fill="#156082"/><path d="M710.213 1366.16C710.213 1372.24 705.288 1377.16 699.213 1377.16 693.139 1377.16 688.214 1372.24 688.214 1366.16 688.214 1360.09 693.139 1355.16 699.213 1355.16 705.288 1355.16 710.213 1360.09 710.213 1366.16Z" stroke="#156082" stroke-width="3.4375" stroke-linejoin="round" stroke-miterlimit="10" fill="#156082"/></g><g><path d="M751.525 1500.55 840.528 1496.55 935.531 1487.5 1024.53 1528.55 1022.53 1640.55 1120.5 1705.56 1094.54 1803.56 999.533 1851.56 1014.53 2011.5 892.529 2010.57 802.526 1936.56 718.524 1928.56 655.522 1870.56 555.5 1812.56 558.518 1704.56 580.519 1601.55 665.522 1538.55 751.525 1500.55" stroke="#E97132" stroke-width="6.875" stroke-linecap="round" stroke-linejoin="round" stroke-miterlimit="10" fill="none"/></g><g><path d="M851.213 1496.16C851.213 1502.24 846.288 1507.16 840.213 1507.16 834.138 1507.16 829.214 1502.24 829.214 1496.16 829.214 1490.09 834.138 1485.16 840.213 1485.16 846.288 1485.16 851.213 1490.09 851.213 1496.16Z" stroke="#E97132" stroke-width="3.4375" stroke-linejoin="round" stroke-miterlimit="10" fill="#E97132"/><path d="M946.213 1487.16C946.213 1493.24 941.289 1498.16 935.214 1498.16 929.139 1498.16 924.214 1493.24 924.214 1487.16 924.214 1481.09 929.139 1476.16 935.214 1476.16 941.289 1476.16 946.213 1481.09 946.213 1487.16Z" stroke="#E97132" stroke-width="3.4375" stroke-linejoin="round" stroke-miterlimit="10" fill="#E97132"/><path d="M1035.21 1528.16C1035.21 1534.24 1030.29 1539.16 1024.21 1539.16 1018.14 1539.16 1013.21 1534.24 1013.21 1528.16 1013.21 1522.09 1018.14 1517.16 1024.21 1517.16 1030.29 1517.16 1035.21 1522.09 1035.21 1528.16Z" stroke="#E97132" stroke-width="3.4375" stroke-linejoin="round" stroke-miterlimit="10" fill="#E97132"/><path d="M1033.21 1640.16C1033.21 1646.24 1028.29 1651.16 1022.21 1651.16 1016.14 1651.16 1011.21 1646.24 1011.21 1640.16 1011.21 1634.09 1016.14 1629.16 1022.21 1629.16 1028.29 1629.16 1033.21 1634.09 1033.21 1640.16Z" stroke="#E97132" stroke-width="3.4375" stroke-linejoin="round" stroke-miterlimit="10" fill="#E97132"/><path d="M1131.21 1705.16C1131.21 1711.24 1126.29 1716.16 1120.21 1716.16 1114.14 1716.16 1109.21 1711.24 1109.21 1705.16 1109.21 1699.09 1114.14 1694.16 1120.21 1694.16 1126.29 1694.16 1131.21 1699.09 1131.21 1705.16Z" stroke="#E97132" stroke-width="3.4375" stroke-linejoin="round" stroke-miterlimit="10" fill="#E97132"/><path d="M1105.21 1803.16C1105.21 1809.24 1100.29 1814.16 1094.21 1814.16 1088.14 1814.16 1083.21 1809.24 1083.21 1803.16 1083.21 1797.09 1088.14 1792.16 1094.21 1792.16 1100.29 1792.16 1105.21 1797.09 1105.21 1803.16Z" stroke="#E97132" stroke-width="3.4375" stroke-linejoin="round" stroke-miterlimit="10" fill="#E97132"/><path d="M1010.21 1851.16C1010.21 1857.24 1005.29 1862.16 999.214 1862.16 993.139 1862.16 988.214 1857.24 988.214 1851.16 988.214 1845.09 993.139 1840.16 999.214 1840.16 1005.29 1840.16 1010.21 1845.09 1010.21 1851.16Z" stroke="#E97132" stroke-width="3.4375" stroke-linejoin="round" stroke-miterlimit="10" fill="#E97132"/><path d="M1025.21 2011.16C1025.21 2017.24 1020.29 2022.16 1014.21 2022.16 1008.14 2022.16 1003.21 2017.24 1003.21 2011.16 1003.21 2005.09 1008.14 2000.16 1014.21 2000.16 1020.29 2000.16 1025.21 2005.09 1025.21 2011.16Z" stroke="#E97132" stroke-width="3.4375" stroke-linejoin="round" stroke-miterlimit="10" fill="#E97132"/><path d="M903.213 2010.16C903.213 2016.24 898.288 2021.16 892.213 2021.16 886.138 2021.16 881.214 2016.24 881.214 2010.16 881.214 2004.09 886.138 1999.16 892.213 1999.16 898.288 1999.16 903.213 2004.09 903.213 2010.16Z" stroke="#E97132" stroke-width="3.4375" stroke-linejoin="round" stroke-miterlimit="10" fill="#E97132"/><path d="M813.213 1936.16C813.213 1942.24 808.289 1947.16 802.214 1947.16 796.139 1947.16 791.214 1942.24 791.214 1936.16 791.214 1930.09 796.139 1925.16 802.214 1925.16 808.289 1925.16 813.213 1930.09 813.213 1936.16Z" stroke="#E97132" stroke-width="3.4375" stroke-linejoin="round" stroke-miterlimit="10" fill="#E97132"/><path d="M729.213 1928.16C729.213 1934.24 724.288 1939.16 718.213 1939.16 712.138 1939.16 707.214 1934.24 707.214 1928.16 707.214 1922.09 712.138 1917.16 718.213 1917.16 724.288 1917.16 729.213 1922.09 729.213 1928.16Z" stroke="#E97132" stroke-width="3.4375" stroke-linejoin="round" stroke-miterlimit="10" fill="#E97132"/><path d="M666.213 1870.16C666.213 1876.24 661.288 1881.16 655.213 1881.16 649.139 1881.16 644.214 1876.24 644.214 1870.16 644.214 1864.09 649.139 1859.16 655.213 1859.16 661.288 1859.16 666.213 1864.09 666.213 1870.16Z" stroke="#E97132" stroke-width="3.4375" stroke-linejoin="round" stroke-miterlimit="10" fill="#E97132"/><path d="M566.213 1812.16C566.213 1818.24 561.288 1823.16 555.213 1823.16 549.139 1823.16 544.214 1818.24 544.214 1812.16 544.214 1806.09 549.139 1801.16 555.213 1801.16 561.288 1801.16 566.213 1806.09 566.213 1812.16Z" stroke="#E97132" stroke-width="3.4375" stroke-linejoin="round" stroke-miterlimit="10" fill="#E97132"/><path d="M569.213 1704.16C569.213 1710.24 564.288 1715.16 558.214 1715.16 552.139 1715.16 547.214 1710.24 547.214 1704.16 547.214 1698.09 552.139 1693.16 558.214 1693.16 564.288 1693.16 569.213 1698.09 569.213 1704.16Z" stroke="#E97132" stroke-width="3.4375" stroke-linejoin="round" stroke-miterlimit="10" fill="#E97132"/><path d="M591.213 1601.16C591.213 1607.24 586.288 1612.16 580.214 1612.16 574.139 1612.16 569.214 1607.24 569.214 1601.16 569.214 1595.09 574.139 1590.16 580.214 1590.16 586.288 1590.16 591.213 1595.09 591.213 1601.16Z" stroke="#E97132" stroke-width="3.4375" stroke-linejoin="round" stroke-miterlimit="10" fill="#E97132"/><path d="M676.213 1538.16C676.213 1544.24 671.288 1549.16 665.213 1549.16 659.139 1549.16 654.214 1544.24 654.214 1538.16 654.214 1532.09 659.139 1527.16 665.213 1527.16 671.288 1527.16 676.213 1532.09 676.213 1538.16Z" stroke="#E97132" stroke-width="3.4375" stroke-linejoin="round" stroke-miterlimit="10" fill="#E97132"/><path d="M762.213 1500.16C762.213 1506.24 757.288 1511.16 751.213 1511.16 745.138 1511.16 740.214 1506.24 740.214 1500.16 740.214 1494.09 745.138 1489.16 751.213 1489.16 757.288 1489.16 762.213 1494.09 762.213 1500.16Z" stroke="#E97132" stroke-width="3.4375" stroke-linejoin="round" stroke-miterlimit="10" fill="#E97132"/></g><g><text fill="#FFFFFF" font-family="Aptos Narrow,Aptos Narrow_MSFontService,sans-serif" font-weight="400" font-stretch="semi-condensed" font-size="41" transform="matrix(1 0 0 1 778.014 1745)">0</text></g><g><text fill="#FFFFFF" font-family="Aptos Narrow,Aptos Narrow_MSFontService,sans-serif" font-weight="400" font-stretch="semi-condensed" font-size="41" transform="matrix(1 0 0 1 778.014 1667)">1</text></g><g><text fill="#FFFFFF" font-family="Aptos Narrow,Aptos Narrow_MSFontService,sans-serif" font-weight="400" font-stretch="semi-condensed" font-size="41" transform="matrix(1 0 0 1 778.014 1589)">2</text></g><g><text fill="#FFFFFF" font-family="Aptos Narrow,Aptos Narrow_MSFontService,sans-serif" font-weight="400" font-stretch="semi-condensed" font-size="41" transform="matrix(1 0 0 1 778.014 1511)">3</text></g><g><text fill="#FFFFFF" font-family="Aptos Narrow,Aptos Narrow_MSFontService,sans-serif" font-weight="400" font-stretch="semi-condensed" font-size="41" transform="matrix(1 0 0 1 778.014 1432)">4</text></g><g><text fill="#FFFFFF" font-family="Aptos Narrow,Aptos Narrow_MSFontService,sans-serif" font-weight="400" font-stretch="semi-condensed" font-size="41" transform="matrix(1 0 0 1 778.014 1354)">5</text></g><g><text fill="#595959" font-family="Aptos Narrow,Aptos Narrow_MSFontService,sans-serif" font-weight="400" font-stretch="semi-condensed" font-size="41" transform="matrix(1 0 0 1 648.614 1309)">Foundational Concepts</text></g><g><text fill="#595959" font-family="Aptos Narrow,Aptos Narrow_MSFontService,sans-serif" font-weight="400" font-stretch="semi-condensed" font-size="41" transform="matrix(1 0 0 1 987.468 1339)">Preparation and</text></g><g><text fill="#595959" font-family="Aptos Narrow,Aptos Narrow_MSFontService,sans-serif" font-weight="400" font-stretch="semi-condensed" font-size="41" transform="matrix(1 0 0 1 1034.32 1389)">Standards</text></g><g><text fill="#595959" font-family="Aptos Narrow,Aptos Narrow_MSFontService,sans-serif" font-weight="400" font-stretch="semi-condensed" font-size="41" transform="matrix(1 0 0 1 1114.34 1417)">Backlog Management &amp;</text></g><g><text fill="#595959" font-family="Aptos Narrow,Aptos Narrow_MSFontService,sans-serif" font-weight="400" font-stretch="semi-condensed" font-size="41" transform="matrix(1 0 0 1 1211.9 1468)">Refinement</text></g><g><text fill="#595959" font-family="Aptos Narrow,Aptos Narrow_MSFontService,sans-serif" font-weight="400" font-stretch="semi-condensed" font-size="41" transform="matrix(1 0 0 1 1222.26 1536)">Estimation</text></g><g><text fill="#595959" font-family="Aptos Narrow,Aptos Narrow_MSFontService,sans-serif" font-weight="400" font-stretch="semi-condensed" font-size="41" transform="matrix(1 0 0 1 1204.32 1587)">Methodology</text></g><g><text fill="#595959" font-family="Aptos Narrow,Aptos Narrow_MSFontService,sans-serif" font-weight="400" font-stretch="semi-condensed" font-size="41" transform="matrix(1 0 0 1 1245.17 1705)">Sprint Planning</text></g><g><text fill="#595959" font-family="Aptos Narrow,Aptos Narrow_MSFontService,sans-serif" font-weight="400" font-stretch="semi-condensed" font-size="41" transform="matrix(1 0 0 1 1231.4 1854)">Daily Scrum</text></g><g><text fill="#595959" font-family="Aptos Narrow,Aptos Narrow_MSFontService,sans-serif" font-weight="400" font-stretch="semi-condensed" font-size="41" transform="matrix(1 0 0 1 1164.85 1987)">Execution</text></g><g><text fill="#595959" font-family="Aptos Narrow,Aptos Narrow_MSFontService,sans-serif" font-weight="400" font-stretch="semi-condensed" font-size="41" transform="matrix(1 0 0 1 1054.51 2088)">Sprint Review</text></g><g><text fill="#595959" font-family="Aptos Narrow,Aptos Narrow_MSFontService,sans-serif" font-weight="400" font-stretch="semi-condensed" font-size="41" transform="matrix(1 0 0 1 915.363 2142)">Sprint Retrospection</text></g><g><text fill="#595959" font-family="Aptos Narrow,Aptos Narrow_MSFontService,sans-serif" font-weight="400" font-stretch="semi-condensed" font-size="41" transform="matrix(1 0 0 1 391.146 2142)">Metrics and Monitoring</text></g><g><text fill="#595959" font-family="Aptos Narrow,Aptos Narrow_MSFontService,sans-serif" font-weight="400" font-stretch="semi-condensed" font-size="41" transform="matrix(1 0 0 1 348.039 2088)">Quality Practices</text></g><g><text fill="#595959" font-family="Aptos Narrow,Aptos Narrow_MSFontService,sans-serif" font-weight="400" font-stretch="semi-condensed" font-size="41" transform="matrix(1 0 0 1 275.722 1962)">Release and PI</text></g><g><text fill="#595959" font-family="Aptos Narrow,Aptos Narrow_MSFontService,sans-serif" font-weight="400" font-stretch="semi-condensed" font-size="41" transform="matrix(1 0 0 1 324.947 2013)">Planning</text></g><g><text fill="#595959" font-family="Aptos Narrow,Aptos Narrow_MSFontService,sans-serif" font-weight="400" font-stretch="semi-condensed" font-size="41" transform="matrix(1 0 0 1 188.047 1829)">Engineering and</text></g><g><text fill="#595959" font-family="Aptos Narrow,Aptos Narrow_MSFontService,sans-serif" font-weight="400" font-stretch="semi-condensed" font-size="41" transform="matrix(1 0 0 1 254.058 1879)">DevOps</text></g><g><text fill="#595959" font-family="Aptos Narrow,Aptos Narrow_MSFontService,sans-serif" font-weight="400" font-stretch="semi-condensed" font-size="41" transform="matrix(1 0 0 1 174.482 1705)">Team Dynamics</text></g><g><text fill="#595959" font-family="Aptos Narrow,Aptos Narrow_MSFontService,sans-serif" font-weight="400" font-stretch="semi-condensed" font-size="41" transform="matrix(1 0 0 1 304.09 1562)">Innovation</text></g><g><text fill="#595959" font-family="Aptos Narrow,Aptos Narrow_MSFontService,sans-serif" font-weight="400" font-stretch="semi-condensed" font-size="41" transform="matrix(1 0 0 1 208.712 1417)"> Leadership and Team</text></g><g><text fill="#595959" font-family="Aptos Narrow,Aptos Narrow_MSFontService,sans-serif" font-weight="400" font-stretch="semi-condensed" font-size="41" transform="matrix(1 0 0 1 311.3 1468)">Structure</text></g><g><text fill="#595959" font-family="Aptos Narrow,Aptos Narrow_MSFontService,sans-serif" font-weight="400" font-stretch="semi-condensed" font-size="41" transform="matrix(1 0 0 1 430.394 1364)">Gen AI Adoption</text></g><g><text fill="#595959" font-family="Aptos Narrow,Aptos Narrow_MSFontService,sans-serif" font-weight="700" font-stretch="semi-condensed" font-size="64" transform="matrix(1 0 0 1 804.728 1143)">AIris</text></g><g><path d="M633.5 2317.5 721.5 2317.5" stroke="#156082" stroke-width="6.875" stroke-linecap="round" stroke-linejoin="round" stroke-miterlimit="10" fill="none" fill-rule="evenodd"/></g><g><path d="M688 2317C688 2323.07 683.075 2328 677 2328 670.925 2328 666 2323.07 666 2317 666 2310.92 670.925 2306 677 2306 683.075 2306 688 2310.92 688 2317Z" stroke="#156082" stroke-width="3.4375" stroke-linejoin="round" stroke-miterlimit="10" fill="#156082"/></g><g><text fill="#595959" font-family="Aptos Narrow,Aptos Narrow_MSFontService,sans-serif" font-weight="400" font-stretch="semi-condensed" font-size="41" transform="matrix(1 0 0 1 730.354 2329)">Target</text></g><g><path d="M872.5 2317.5 960.5 2317.5" stroke="#E97132" stroke-width="6.875" stroke-linecap="round" stroke-linejoin="round" stroke-miterlimit="10" fill="none" fill-rule="evenodd"/></g><g><path d="M927 2317C927 2323.07 922.075 2328 916 2328 909.925 2328 905 2323.07 905 2317 905 2310.92 909.925 2306 916 2306 922.075 2306 927 2310.92 927 2317Z" stroke="#E97132" stroke-width="3.4375" stroke-linejoin="round" stroke-miterlimit="10" fill="#E97132"/></g><g><text fill="#595959" font-family="Aptos Narrow,Aptos Narrow_MSFontService,sans-serif" font-weight="400" font-stretch="semi-condensed" font-size="41" transform="matrix(1 0 0 1 969.726 2329)">Score</text></g><rect x="16.5" y="1064.5" width="1650" height="1320" stroke="#D9D9D9" stroke-width="3.4375" stroke-linejoin="round" stroke-miterlimit="10" fill="none"/></g></svg>