<svg width="1396" height="1169" xmlns="http://www.w3.org/2000/svg" xmlns:xlink="http://www.w3.org/1999/xlink" xml:space="preserve" overflow="hidden"><defs><clipPath id="clip0"><rect x="2795" y="-1" width="1396" height="1169"/></clipPath></defs><g clip-path="url(#clip0)" transform="translate(-2795 1)"><rect x="2796" y="0" width="1393" height="1166" fill="#FFFFFF"/><g><path d="M3492.61 462.515 3551.62 496.516M3551.62 496.516 3551.62 564.519M3551.62 564.519 3492.61 598.52M3492.61 598.52 3433.61 564.519M3433.61 564.519 3433.61 496.516M3433.61 496.516 3492.61 462.515M3492.61 395.513 3609.62 462.515M3609.62 462.515 3609.62 598.52M3609.62 598.52 3492.61 666.522M3492.61 666.522 3374.61 598.52M3374.61 598.52 3374.61 462.515M3374.61 462.515 3492.61 395.513M3492.61 327.511 3668.62 429.514M3668.62 429.514 3668.62 632.521M3668.62 632.521 3492.61 734.524M3492.61 734.524 3316.61 632.521M3316.61 632.521 3316.61 429.514M3316.61 429.514 3492.61 327.511M3492.61 259.509 3727.62 395.513M3727.62 395.513 3727.62 666.522M3727.62 666.522 3492.61 802.526M3492.61 802.526 3257.61 666.522M3257.61 666.522 3257.61 395.513M3257.61 395.513 3492.61 259.509M3492.61 191.5 3786.5 361.512M3786.5 361.512 3786.5 700.523M3786.5 700.523 3492.61 870.5M3492.61 870.5 3198.5 700.523M3198.5 700.523 3198.5 361.512M3198.5 361.512 3492.61 191.5" stroke="#D9D9D9" stroke-width="3.4375" stroke-linejoin="round" stroke-miterlimit="10" fill="none"/></g><g><path d="M3492.61 530.518 3492.61 191.5M3492.61 530.518 3786.5 361.512M3492.61 530.518 3786.5 700.523M3492.61 530.518 3492.61 870.5M3492.61 530.518 3198.5 700.523M3492.61 530.518 3198.5 361.512M3492.61 530.518 3492.61 191.5" stroke="#D9D9D9" stroke-width="3.4375" stroke-linejoin="round" stroke-miterlimit="10" fill="none"/></g><g><path d="M3198.5 361.512 3492.61 191.5 3786.5 361.512 3786.5 700.523 3492.61 870.5 3198.5 700.523 3198.5 361.512" stroke="#156082" stroke-width="6.875" stroke-linecap="round" stroke-linejoin="round" stroke-miterlimit="10" fill="none"/></g><g><path d="M3257.5 395.513 3492.61 293.5 3656.62 435.514 3688.5 643.521 3492.61 809.5 3316.61 632.521 3257.5 395.513" stroke="#A02B93" stroke-width="6.875" stroke-linecap="round" stroke-linejoin="round" stroke-miterlimit="10" fill="none"/></g><g><text fill="#595959" font-family="Aptos Narrow,Aptos Narrow_MSFontService,sans-serif" font-weight="400" font-stretch="semi-condensed" font-size="41" transform="matrix(1 0 0 1 3429.8 545)">0</text></g><g><text fill="#595959" font-family="Aptos Narrow,Aptos Narrow_MSFontService,sans-serif" font-weight="400" font-stretch="semi-condensed" font-size="41" transform="matrix(1 0 0 1 3429.8 477)">1</text></g><g><text fill="#595959" font-family="Aptos Narrow,Aptos Narrow_MSFontService,sans-serif" font-weight="400" font-stretch="semi-condensed" font-size="41" transform="matrix(1 0 0 1 3429.8 409)">2</text></g><g><text fill="#595959" font-family="Aptos Narrow,Aptos Narrow_MSFontService,sans-serif" font-weight="400" font-stretch="semi-condensed" font-size="41" transform="matrix(1 0 0 1 3429.8 341)">3</text></g><g><text fill="#595959" font-family="Aptos Narrow,Aptos Narrow_MSFontService,sans-serif" font-weight="400" font-stretch="semi-condensed" font-size="41" transform="matrix(1 0 0 1 3429.8 273)">4</text></g><g><text fill="#595959" font-family="Aptos Narrow,Aptos Narrow_MSFontService,sans-serif" font-weight="400" font-stretch="semi-condensed" font-size="41" transform="matrix(1 0 0 1 3429.8 205)">5</text></g><g><text fill="#595959" font-family="Aptos Narrow,Aptos Narrow_MSFontService,sans-serif" font-weight="400" font-stretch="semi-condensed" font-size="41" transform="matrix(1 0 0 1 3395.06 112)">Operational</text></g><g><text fill="#595959" font-family="Aptos Narrow,Aptos Narrow_MSFontService,sans-serif" font-weight="400" font-stretch="semi-condensed" font-size="41" transform="matrix(1 0 0 1 3338.44 162)">partnership quality</text></g><g><text fill="#595959" font-family="Aptos Narrow,Aptos Narrow_MSFontService,sans-serif" font-weight="400" font-stretch="semi-condensed" font-size="41" transform="matrix(1 0 0 1 3820.75 341)">Backlog &amp;</text></g><g><text fill="#595959" font-family="Aptos Narrow,Aptos Narrow_MSFontService,sans-serif" font-weight="400" font-stretch="semi-condensed" font-size="41" transform="matrix(1 0 0 1 3798.09 391)">Prioritization</text></g><g><text fill="#595959" font-family="Aptos Narrow,Aptos Narrow_MSFontService,sans-serif" font-weight="400" font-stretch="semi-condensed" font-size="41" transform="matrix(1 0 0 1 3848.1 694)">Execution &amp;</text></g><g><text fill="#595959" font-family="Aptos Narrow,Aptos Narrow_MSFontService,sans-serif" font-weight="400" font-stretch="semi-condensed" font-size="41" transform="matrix(1 0 0 1 3798.09 744)">Delivery Practices</text></g><g><text fill="#595959" font-family="Aptos Narrow,Aptos Narrow_MSFontService,sans-serif" font-weight="400" font-stretch="semi-condensed" font-size="41" transform="matrix(1 0 0 1 3362.16 923)">Value, Quality &amp;</text></g><g><text fill="#595959" font-family="Aptos Narrow,Aptos Narrow_MSFontService,sans-serif" font-weight="400" font-stretch="semi-condensed" font-size="41" transform="matrix(1 0 0 1 3412.2 973)">Feedback</text></g><g><text fill="#595959" font-family="Aptos Narrow,Aptos Narrow_MSFontService,sans-serif" font-weight="400" font-stretch="semi-condensed" font-size="41" transform="matrix(1 0 0 1 2890.27 668)">Team Capability &amp;</text></g><g><text fill="#595959" font-family="Aptos Narrow,Aptos Narrow_MSFontService,sans-serif" font-weight="400" font-stretch="semi-condensed" font-size="41" transform="matrix(1 0 0 1 2942.91 719)">Continuous</text></g><g><text fill="#595959" font-family="Aptos Narrow,Aptos Narrow_MSFontService,sans-serif" font-weight="400" font-stretch="semi-condensed" font-size="41" transform="matrix(1 0 0 1 2928.7 769)">Improvement</text></g><g><text fill="#595959" font-family="Aptos Narrow,Aptos Narrow_MSFontService,sans-serif" font-weight="400" font-stretch="semi-condensed" font-size="41" transform="matrix(1 0 0 1 2931.38 316)">Innovation, AI &amp;</text></g><g><text fill="#595959" font-family="Aptos Narrow,Aptos Narrow_MSFontService,sans-serif" font-weight="400" font-stretch="semi-condensed" font-size="41" transform="matrix(1 0 0 1 3005.72 366)">Future</text></g><g><text fill="#595959" font-family="Aptos Narrow,Aptos Narrow_MSFontService,sans-serif" font-weight="400" font-stretch="semi-condensed" font-size="41" transform="matrix(1 0 0 1 2945.83 416)">Opportunities</text></g><g><path d="M2980.5 1100.5 3068.5 1100.5" stroke="#156082" stroke-width="6.875" stroke-linecap="round" stroke-linejoin="round" stroke-miterlimit="10" fill="none" fill-rule="evenodd"/></g><g><text fill="#595959" font-family="Aptos Narrow,Aptos Narrow_MSFontService,sans-serif" font-weight="400" font-stretch="semi-condensed" font-size="41" transform="matrix(1 0 0 1 3078.16 1112)">Product Org Team Target</text></g><g><path d="M3560.5 1100.5 3648.5 1100.5" stroke="#A02B93" stroke-width="6.875" stroke-linecap="round" stroke-linejoin="round" stroke-miterlimit="10" fill="none" fill-rule="evenodd"/></g><g><text fill="#595959" font-family="Aptos Narrow,Aptos Narrow_MSFontService,sans-serif" font-weight="400" font-stretch="semi-condensed" font-size="41" transform="matrix(1 0 0 1 3657.6 1112)">Kim Mikalowsky Score</text></g><rect x="2796.5" y="0.499836" width="1393" height="1166" stroke="#D9D9D9" stroke-width="3.4375" stroke-linejoin="round" stroke-miterlimit="10" fill="none"/></g></svg>